<svg id="Layer_1" xmlns="http://www.w3.org/2000/svg" viewBox="0 0 400.67 97.31"><style>.st2{fill:#4c4c4c}</style><path d="M63.41 79.51c28.41 0 51.44 1.39 51.44 3.1 0 1.71-23.03 3.1-51.44 3.1-28.41 0-51.44-1.39-51.44-3.1 0-1.71 23.03-3.1 51.44-3.1z" fill-rule="evenodd" clip-rule="evenodd" fill="#e1e1e1"/><path d="M24.78 45.09c-1.59-2.17-3.35-5.01-5.28-8.62-1.1-1.91-1.21-2.79.63-3.57l33.11-13.7c.93-.41 2.15-.42 2.95 1.02 4.45 6.58 7.69 11.2 12.3 16.2 7.08 7.33 14.88 15.28 28.39 21.05 4.27 1.57 8.44 2.87 13.36 3.7.19.03 1.09.47 1.03 1.25l-.13 7.73-22.97 13.18c-1.17 1.02-2.28 1.91-4.9 1.07L14.98 70.19l-.01-4.58-5.41-1.4c-.42-.11-.43-.66-.08-.89l5.68-4.63c-.02-.89.23-1.46.68-2.02-2.49-.87-3.48-1.98-1.88-3.48l10.03-7.43.79-.67z" fill="#f60"/><path class="st2" d="M126.87 68.9V43.61c0-6.59 4.28-10.87 10.67-10.87 6.45 0 10.73 4.28 10.73 10.87v1.25c0 .4-.26.72-.66.72l-2.17.13c-.39 0-.66-.26-.66-.66V43.4c0-4.54-2.9-7.57-7.24-7.57-4.35 0-7.18 3.03-7.18 7.57v25.75c0 4.54 2.83 7.64 7.18 7.64s7.24-3.1 7.24-7.64v-1.51c0-.4.26-.66.66-.66l2.17.13c.4 0 .66.26.66.66v1.12c0 6.65-4.28 11-10.73 11-6.39.01-10.67-4.34-10.67-10.99zM174.81 56.65v22.06c0 .4-.26.66-.66.66h-2.17c-.4 0-.66-.26-.66-.66v-2.37c0-.26-.2-.33-.33-.13-1.71 2.57-4.48 3.69-7.64 3.69-3.75 0-8.56-1.65-8.56-9.22 0-7.64 4.81-10.6 11.13-10.6h5.14c.13 0 .26-.13.26-.26v-3.03c0-4.81-2.24-8.03-6.13-8.03-3.03 0-5.6 2.11-5.93 5.2 0 .46-.26.66-.66.66l-2.37-.13c-.39 0-.66-.26-.59-.66.53-4.94 4.61-8.17 9.62-8.17 6-.01 9.55 4.34 9.55 10.99zm-3.49 12.84v-6.26c0-.13-.13-.26-.26-.26h-5.14c-4.41 0-7.57 2.37-7.57 7.44 0 4.54 2.5 6.39 5.73 6.39 3.55 0 7.24-2.3 7.24-7.31zM181.47 71.34v-.4c0-.4.26-.66.66-.66h2.04c.39 0 .66.2.66.53v.53c0 3.1 2.44 5.53 6.13 5.53 3.56 0 5.86-2.37 5.86-5.8 0-4.08-3.42-5.47-6.98-6.91-3.82-1.58-8.17-3.49-8.17-9.48 0-5.4 3.69-8.76 9.15-8.76 5.66 0 9.22 3.62 9.22 8.76v.2c0 .39-.26.66-.66.66h-1.98c-.4 0-.66-.26-.66-.53v-.46c0-3.16-2.37-5.73-5.93-5.73s-5.8 2.44-5.8 5.8c0 3.82 3.16 5.14 6.59 6.65 3.95 1.65 8.69 3.62 8.69 9.68 0 5.27-3.69 8.76-9.35 8.76-5.78-.01-9.47-3.5-9.47-8.37zM225.99 55.99v22.72c0 .4-.26.66-.66.66h-2.17c-.39 0-.66-.26-.66-.66V56.32c0-4.74-2.17-7.51-5.93-7.51-3.89 0-6.26 2.96-6.26 7.9v22c0 .4-.26.66-.66.66h-2.17c-.39 0-.66-.26-.66-.66V33.93c0-.39.26-.66.66-.66h2.17c.4 0 .66.26.66.66v15.48c0 .26.2.26.33 0 1.65-2.57 4.15-3.69 6.98-3.69 5.34 0 8.37 3.82 8.37 10.27zM232.91 68.11v-1.78c0-.4.26-.66.66-.66h4.87c.4 0 .66.26.66.66v1.45c0 4.08 2.24 6.65 5.4 6.65 3.1 0 5.47-2.5 5.47-6.32 0-4.02-2.63-5.86-7.38-9.35-5.07-3.75-9.81-7.24-9.81-14.42s4.74-11.59 11.39-11.59c7.05 0 11.66 4.87 11.66 12.18v1.65c0 .39-.26.66-.66.66h-4.87c-.4 0-.66-.26-.66-.66V44.8c0-3.95-2.24-6.59-5.47-6.59-2.96 0-5.14 2.17-5.14 6.13 0 3.75 1.91 5.53 6.98 9.29 6.72 5.01 10.21 7.77 10.21 14.09 0 7.44-4.87 12.18-11.72 12.18-6.92 0-11.59-4.74-11.59-11.79zM283.88 56.12v22.59c0 .4-.26.66-.66.66h-5c-.4 0-.66-.26-.66-.66V56.65c0-3.69-1.65-5.8-4.48-5.8-3.03 0-4.81 2.24-4.81 6.06v21.8c0 .4-.26.66-.66.66h-5c-.4 0-.66-.26-.66-.66V33.93c0-.39.26-.66.66-.66h5c.4 0 .66.26.66.66v14.29c0 .2.2.26.4.07 1.78-2.17 4.28-2.9 6.65-2.9 5.53 0 8.56 3.95 8.56 10.73zM306.27 45.85h5c.4 0 .66.26.66.66v32.2c0 .4-.26.66-.66.66h-5c-.4 0-.66-.26-.66-.66V76.8c0-.26-.2-.26-.33-.07-1.45 2.3-3.69 3.1-6.32 3.1-4.94 0-8.83-2.83-8.83-9.75V46.51c0-.39.26-.66.66-.66h5.01c.39 0 .66.26.66.66V68.7c0 3.82 1.58 5.66 4.48 5.66 2.96 0 4.68-2.31 4.68-6.06V46.5c0-.39.26-.65.65-.65zM344.34 45.59c0 .13.13.26.26.26h4.54c.4 0 .66.26.66.66v3.29c0 .39-.26.66-.66.66h-4.54c-.13 0-.26.13-.26.26v27.99c0 .4-.26.66-.66.66h-5c-.4 0-.66-.26-.66-.66V50.72c0-.13-.13-.26-.26-.26h-10.73c-.13 0-.26.13-.26.26v27.99c0 .4-.26.66-.66.66h-5.01c-.39 0-.66-.26-.66-.66V50.72c0-.13-.13-.26-.26-.26h-2.5c-.4 0-.66-.26-.66-.66v-3.29c0-.39.26-.66.66-.66h2.5c.13 0 .26-.13.26-.26v-2.63c0-7.38 3.23-10.27 10.41-10.08h.46c.4 0 .66.26.66.66v3.16c0 .4-.2.66-.53.66h-.59c-3.23.07-4.08 2.44-4.08 6.13v2.11c0 .13.13.26.26.26h10.73c.13 0 .26-.13.26-.26v-2.63c0-7.38 3.23-10.27 10.4-10.08h.46c.39 0 .66.26.66.66v3.16c0 .4-.2.66-.53.66h-.59c-3.23.07-4.08 2.44-4.08 6.13v2.09zm11.13-12.32h5c.39 0 .66.26.66.66v44.78c0 .4-.26.66-.66.66h-5c-.4 0-.66-.26-.66-.66V33.93c0-.39.27-.66.66-.66zM388.6 65.21h-14.88c-.13 0-.26.13-.26.26v3.56c0 3.16 1.98 5.4 4.74 5.4 2.5 0 4.21-1.71 4.68-4.02.13-.4.33-.53.72-.53l4.87.26c.4 0 .66.26.59.66-.59 5.6-4.35 9.09-10.87 9.09-6.78 0-11.06-4.08-11.06-10.4V55.8c0-6.19 4.28-10.47 11.06-10.47 6.92 0 11.06 4.28 11.06 10.47v8.76c.01.39-.25.65-.65.65zm-15.15-9.02v3.49c0 .13.13.26.26.26h9.02c.13 0 .26-.13.26-.26v-3.49c0-3.16-1.91-5.4-4.81-5.4-2.75 0-4.73 2.24-4.73 5.4z"/><path d="M109.45 62.24L84.44 76.37C72.93 74 63.17 70.51 54.98 66.42c2.14.5 4.44.78 6.85.78 11.05 0 20.01-5.79 20.01-12.93 0-1.67-.49-3.26-1.38-4.73 8.61 6.54 18.49 11.51 28.99 12.7zm-47.81-20c10.15 0 18.38 5.24 18.38 11.7 0 6.46-8.23 11.7-18.38 11.7-10.15 0-18.38-5.24-18.38-11.7.01-6.46 8.23-11.7 18.38-11.7zm12.02 1.6c-3.31-1.57-7.4-2.5-11.83-2.5-11.05 0-20.01 5.79-20.01 12.93 0 2 .7 3.9 1.96 5.59-12.04-8.25-19.24-17.6-22.62-24.93l33.33-14.44c4.27 7.12 10.92 15.76 19.17 23.35zm-13.77-.32l-.84 2.56-2.64-.18-.6 1.58c1.6.14 2.31-.04 1.92 1.2l-2.49 8.07c-.27.86-.48.7-1.62.54l-1.33-.19-.75 2.26 2.78.47-.82 2.86 3.66.63.84-2.91 2.98.41-.75 2.96 3.56.47.71-3.01c1 .07.98.01 1.67-.08 1.21-.15 2.21-.49 3-1.02s1.34-1.42 1.55-2.16c.18-.62.09-1.45-.17-2.01-.26-.56-.69-1.04-1.29-1.42-.42-.27-1.05-.56-1.9-.86 1.47-.13 2.35-.56 3.27-1.44.94-.89 1.13-2.06.52-3.09-.74-1.26-2.28-1.85-3.88-2.21l.6-2.67-2.37-.24-.76 2.65L62 46.4l.72-2.56-2.83-.32zm.61 8.14l1.06-3.63 2.14.25c1.23.14 2.06.37 2.5.56 1.86.76 1.25 3.1-1.12 3.32-.56.05-1.39 0-2.48-.17l-2.1-.33zm-.59 2.02l2.47.38c1.08.16 1.87.36 2.35.59.48.23.82.5 1 .83.18.33.21.7.09 1.11-.14.49-.45 1.38-.92 1.67-.47.29-.99.45-1.55.48-.56.03-1.25-.04-2.06-.17-.26-.04-2.64-.38-2.64-.43l1.26-4.46zm-5.23 16.24c3.78.79 6 1.22 8.08 1.51 5.73 1.84 10.75 3.37 16.46 4.76-8.15-1.17-16.19-3.64-24.54-6.27zM92.8 72.5l17.59-10.21c.23-.19.22-.34-.19-.41-8.45-1.43-17.05-4.29-26.02-10.45C80.74 49 72.51 41.9 68.53 37.6c-4.63-5.02-8.55-10.68-13.01-16.98-.29-.5-.51-.82-.77-.94-.25-.11-.58-.06-1.1.17l-32.2 13.33c-2.01.85-1.95 1.47-.9 3.29 4.98 10.49 13.96 19.4 23.06 25.45 1.27 2.54 3.2 5.03 7.68 6.91-10.09-3.61-22.02-8.33-35.44-14.64l7.01-5.15-.86-.55-6.94 5.11c-1.01 1.01-.65 1.46.12 1.81 7.99 4.02 39.79 16.8 55.01 20.72-10.58-2.31-44.38-13.88-54.3-18.15-.6.78-.21 1.65.61 2.01l.78.24c3.17 1 27.93 9.63 32.8 10.76-5.66-.84-31.91-8.91-34.48-9.95l.09 1.37 36.22 10.31 3.5 1.33-41.23-10.03c-1.77-.46-2.91-.43-1.66-2.35l-2.2 1.74c-.21.14-.21.34.05.4l47.24 11.68 1.99.88-43.93-10.22.03.94 34.02 7.81 3.53 1.37-37.55-7.96-.02 1.03 68.06 14.09c.96.21 2.26.21 3.2-.53l23.13-13.39-7.19 3.09 7.21-4.23-12.96 5.64 12.92-6.9-6.71 2.66 6.67-4.11-10.99 5.08 11.02-6.56L92.8 72.5z" fill="#fff"/></svg>