<?xml version="1.0" encoding="utf-8"?>
<!-- Generator: Adobe Illustrator 23.0.2, SVG Export Plug-In . SVG Version: 6.00 Build 0)  -->
<svg version="1.1" id="Layer_1" xmlns="http://www.w3.org/2000/svg" xmlns:xlink="http://www.w3.org/1999/xlink" x="0px" y="0px"
	 viewBox="0 0 400.67 97.31" style="enable-background:new 0 0 400.67 97.31;" xml:space="preserve">
<style type="text/css">
	.st0{fill-rule:evenodd;clip-rule:evenodd;fill:#E1E1E1;}
	.st1{fill:#FF6600;}
	.st2{fill:#4C4C4C;}
	.st3{fill:#FFFFFF;}
</style>
<g>
	<path class="st0" d="M63.41,79.51c28.41,0,51.44,1.39,51.44,3.1c0,1.71-23.03,3.1-51.44,3.1c-28.41,0-51.44-1.39-51.44-3.1
		C11.97,80.9,35,79.51,63.41,79.51L63.41,79.51z"/>
	<path class="st1" d="M24.78,45.09c-1.59-2.17-3.35-5.01-5.28-8.62c-1.1-1.91-1.21-2.79,0.63-3.57l33.11-13.7
		c0.93-0.41,2.15-0.42,2.95,1.02c4.45,6.58,7.69,11.2,12.3,16.2c7.08,7.33,14.88,15.28,28.39,21.05c4.27,1.57,8.44,2.87,13.36,3.7
		c0.19,0.03,1.09,0.47,1.03,1.25l-0.13,7.73L88.17,83.33c-1.17,1.02-2.28,1.91-4.9,1.07L14.98,70.19l-0.01-4.58l-5.41-1.4
		c-0.42-0.11-0.43-0.66-0.08-0.89l5.68-4.63c-0.02-0.89,0.23-1.46,0.68-2.02c-2.49-0.87-3.48-1.98-1.88-3.48l10.03-7.43L24.78,45.09
		L24.78,45.09z"/>
	<g>
		<path class="st2" d="M126.87,68.9V43.61c0-6.59,4.28-10.87,10.67-10.87c6.45,0,10.73,4.28,10.73,10.87v1.25
			c0,0.4-0.26,0.72-0.66,0.72l-2.17,0.13c-0.39,0-0.66-0.26-0.66-0.66v-1.65c0-4.54-2.9-7.57-7.24-7.57c-4.35,0-7.18,3.03-7.18,7.57
			v25.75c0,4.54,2.83,7.64,7.18,7.64c4.35,0,7.24-3.1,7.24-7.64v-1.51c0-0.4,0.26-0.66,0.66-0.66l2.17,0.13
			c0.4,0,0.66,0.26,0.66,0.66v1.12c0,6.65-4.28,11-10.73,11C131.15,79.9,126.87,75.55,126.87,68.9z"/>
		<path class="st2" d="M174.81,56.65v22.06c0,0.4-0.26,0.66-0.66,0.66h-2.17c-0.4,0-0.66-0.26-0.66-0.66v-2.37
			c0-0.26-0.2-0.33-0.33-0.13c-1.71,2.57-4.48,3.69-7.64,3.69c-3.75,0-8.56-1.65-8.56-9.22c0-7.64,4.81-10.6,11.13-10.6h5.14
			c0.13,0,0.26-0.13,0.26-0.26v-3.03c0-4.81-2.24-8.03-6.13-8.03c-3.03,0-5.6,2.11-5.93,5.2c0,0.46-0.26,0.66-0.66,0.66l-2.37-0.13
			c-0.39,0-0.66-0.26-0.59-0.66c0.53-4.94,4.61-8.17,9.62-8.17C171.26,45.65,174.81,50,174.81,56.65z M171.32,69.49v-6.26
			c0-0.13-0.13-0.26-0.26-0.26h-5.14c-4.41,0-7.57,2.37-7.57,7.44c0,4.54,2.5,6.39,5.73,6.39C167.63,76.8,171.32,74.5,171.32,69.49z
			"/>
		<path class="st2" d="M181.47,71.34v-0.4c0-0.4,0.26-0.66,0.66-0.66h2.04c0.39,0,0.66,0.2,0.66,0.53v0.53
			c0,3.1,2.44,5.53,6.13,5.53c3.56,0,5.86-2.37,5.86-5.8c0-4.08-3.42-5.47-6.98-6.91c-3.82-1.58-8.17-3.49-8.17-9.48
			c0-5.4,3.69-8.76,9.15-8.76c5.66,0,9.22,3.62,9.22,8.76v0.2c0,0.39-0.26,0.66-0.66,0.66h-1.98c-0.4,0-0.66-0.26-0.66-0.53v-0.46
			c0-3.16-2.37-5.73-5.93-5.73s-5.8,2.44-5.8,5.8c0,3.82,3.16,5.14,6.59,6.65c3.95,1.65,8.69,3.62,8.69,9.68
			c0,5.27-3.69,8.76-9.35,8.76C185.16,79.7,181.47,76.21,181.47,71.34z"/>
		<path class="st2" d="M225.99,55.99v22.72c0,0.4-0.26,0.66-0.66,0.66h-2.17c-0.39,0-0.66-0.26-0.66-0.66V56.32
			c0-4.74-2.17-7.51-5.93-7.51c-3.89,0-6.26,2.96-6.26,7.9v22c0,0.4-0.26,0.66-0.66,0.66h-2.17c-0.39,0-0.66-0.26-0.66-0.66V33.93
			c0-0.39,0.26-0.66,0.66-0.66h2.17c0.4,0,0.66,0.26,0.66,0.66v15.48c0,0.26,0.2,0.26,0.33,0c1.65-2.57,4.15-3.69,6.98-3.69
			C222.96,45.72,225.99,49.54,225.99,55.99z"/>
		<path class="st2" d="M232.91,68.11v-1.78c0-0.4,0.26-0.66,0.66-0.66h4.87c0.4,0,0.66,0.26,0.66,0.66v1.45
			c0,4.08,2.24,6.65,5.4,6.65c3.1,0,5.47-2.5,5.47-6.32c0-4.02-2.63-5.86-7.38-9.35c-5.07-3.75-9.81-7.24-9.81-14.42
			c0-7.18,4.74-11.59,11.39-11.59c7.05,0,11.66,4.87,11.66,12.18v1.65c0,0.39-0.26,0.66-0.66,0.66h-4.87c-0.4,0-0.66-0.26-0.66-0.66
			V44.8c0-3.95-2.24-6.59-5.47-6.59c-2.96,0-5.14,2.17-5.14,6.13c0,3.75,1.91,5.53,6.98,9.29c6.72,5.01,10.21,7.77,10.21,14.09
			c0,7.44-4.87,12.18-11.72,12.18C237.58,79.9,232.91,75.16,232.91,68.11z"/>
		<path class="st2" d="M283.88,56.12v22.59c0,0.4-0.26,0.66-0.66,0.66h-5c-0.4,0-0.66-0.26-0.66-0.66V56.65
			c0-3.69-1.65-5.8-4.48-5.8c-3.03,0-4.81,2.24-4.81,6.06v21.8c0,0.4-0.26,0.66-0.66,0.66h-5c-0.4,0-0.66-0.26-0.66-0.66V33.93
			c0-0.39,0.26-0.66,0.66-0.66h5c0.4,0,0.66,0.26,0.66,0.66v14.29c0,0.2,0.2,0.26,0.4,0.07c1.78-2.17,4.28-2.9,6.65-2.9
			C280.85,45.39,283.88,49.34,283.88,56.12z"/>
		<path class="st2" d="M306.27,45.85h5c0.4,0,0.66,0.26,0.66,0.66v32.2c0,0.4-0.26,0.66-0.66,0.66h-5c-0.4,0-0.66-0.26-0.66-0.66
			V76.8c0-0.26-0.2-0.26-0.33-0.07c-1.45,2.3-3.69,3.1-6.32,3.1c-4.94,0-8.83-2.83-8.83-9.75V46.51c0-0.39,0.26-0.66,0.66-0.66h5.01
			c0.39,0,0.66,0.26,0.66,0.66V68.7c0,3.82,1.58,5.66,4.48,5.66c2.96,0,4.68-2.31,4.68-6.06v-21.8
			C305.62,46.11,305.88,45.85,306.27,45.85z"/>
		<path class="st2" d="M344.34,45.59c0,0.13,0.13,0.26,0.26,0.26h4.54c0.4,0,0.66,0.26,0.66,0.66v3.29c0,0.39-0.26,0.66-0.66,0.66
			h-4.54c-0.13,0-0.26,0.13-0.26,0.26v27.99c0,0.4-0.26,0.66-0.66,0.66h-5c-0.4,0-0.66-0.26-0.66-0.66V50.72
			c0-0.13-0.13-0.26-0.26-0.26h-10.73c-0.13,0-0.26,0.13-0.26,0.26v27.99c0,0.4-0.26,0.66-0.66,0.66h-5.01
			c-0.39,0-0.66-0.26-0.66-0.66V50.72c0-0.13-0.13-0.26-0.26-0.26h-2.5c-0.4,0-0.66-0.26-0.66-0.66v-3.29
			c0-0.39,0.26-0.66,0.66-0.66h2.5c0.13,0,0.26-0.13,0.26-0.26v-2.63c0-7.38,3.23-10.27,10.41-10.08h0.46c0.4,0,0.66,0.26,0.66,0.66
			v3.16c0,0.4-0.2,0.66-0.53,0.66h-0.59c-3.23,0.07-4.08,2.44-4.08,6.13v2.11c0,0.13,0.13,0.26,0.26,0.26h10.73
			c0.13,0,0.26-0.13,0.26-0.26v-2.63c0-7.38,3.23-10.27,10.4-10.08h0.46c0.39,0,0.66,0.26,0.66,0.66v3.16c0,0.4-0.2,0.66-0.53,0.66
			h-0.59c-3.23,0.07-4.08,2.44-4.08,6.13V45.59z M355.47,33.27h5c0.39,0,0.66,0.26,0.66,0.66v44.78c0,0.4-0.26,0.66-0.66,0.66h-5
			c-0.4,0-0.66-0.26-0.66-0.66V33.93C354.81,33.54,355.08,33.27,355.47,33.27z"/>
		<path class="st2" d="M388.6,65.21h-14.88c-0.13,0-0.26,0.13-0.26,0.26v3.56c0,3.16,1.98,5.4,4.74,5.4c2.5,0,4.21-1.71,4.68-4.02
			c0.13-0.4,0.33-0.53,0.72-0.53l4.87,0.26c0.4,0,0.66,0.26,0.59,0.66c-0.59,5.6-4.35,9.09-10.87,9.09
			c-6.78,0-11.06-4.08-11.06-10.4V55.8c0-6.19,4.28-10.47,11.06-10.47c6.92,0,11.06,4.28,11.06,10.47v8.76
			C389.26,64.95,389,65.21,388.6,65.21z M373.45,56.19v3.49c0,0.13,0.13,0.26,0.26,0.26h9.02c0.13,0,0.26-0.13,0.26-0.26v-3.49
			c0-3.16-1.91-5.4-4.81-5.4C375.43,50.79,373.45,53.03,373.45,56.19z"/>
	</g>
	<path class="st3" d="M109.45,62.24L84.44,76.37C72.93,74,63.17,70.51,54.98,66.42c2.14,0.5,4.44,0.78,6.85,0.78
		c11.05,0,20.01-5.79,20.01-12.93c0-1.67-0.49-3.26-1.38-4.73C89.07,56.08,98.95,61.05,109.45,62.24L109.45,62.24z M61.64,42.24
		c10.15,0,18.38,5.24,18.38,11.7c0,6.46-8.23,11.7-18.38,11.7c-10.15,0-18.38-5.24-18.38-11.7C43.27,47.48,51.49,42.24,61.64,42.24
		L61.64,42.24z M73.66,43.84c-3.31-1.57-7.4-2.5-11.83-2.5c-11.05,0-20.01,5.79-20.01,12.93c0,2,0.7,3.9,1.96,5.59
		c-12.04-8.25-19.24-17.6-22.62-24.93l33.33-14.44C58.76,27.61,65.41,36.25,73.66,43.84L73.66,43.84z M59.89,43.52l-0.84,2.56
		l-2.64-0.18l-0.6,1.58c1.6,0.14,2.31-0.04,1.92,1.2l-2.49,8.07c-0.27,0.86-0.48,0.7-1.62,0.54l-1.33-0.19l-0.75,2.26l2.78,0.47
		l-0.82,2.86l3.66,0.63L58,60.41l2.98,0.41l-0.75,2.96l3.56,0.47l0.71-3.01c1,0.07,0.98,0.01,1.67-0.08c1.21-0.15,2.21-0.49,3-1.02
		c0.79-0.53,1.34-1.42,1.55-2.16c0.18-0.62,0.09-1.45-0.17-2.01c-0.26-0.56-0.69-1.04-1.29-1.42c-0.42-0.27-1.05-0.56-1.9-0.86
		c1.47-0.13,2.35-0.56,3.27-1.44c0.94-0.89,1.13-2.06,0.52-3.09c-0.74-1.26-2.28-1.85-3.88-2.21l0.6-2.67l-2.37-0.24l-0.76,2.65
		L62,46.4l0.72-2.56L59.89,43.52L59.89,43.52z M60.5,51.66l1.06-3.63l2.14,0.25c1.23,0.14,2.06,0.37,2.5,0.56
		c1.86,0.76,1.25,3.1-1.12,3.32c-0.56,0.05-1.39,0-2.48-0.17L60.5,51.66L60.5,51.66z M59.91,53.68l2.47,0.38
		c1.08,0.16,1.87,0.36,2.35,0.59c0.48,0.23,0.82,0.5,1,0.83c0.18,0.33,0.21,0.7,0.09,1.11c-0.14,0.49-0.45,1.38-0.92,1.67
		c-0.47,0.29-0.99,0.45-1.55,0.48c-0.56,0.03-1.25-0.04-2.06-0.17c-0.26-0.04-2.64-0.38-2.64-0.43L59.91,53.68L59.91,53.68z
		 M54.68,69.92c3.78,0.79,6,1.22,8.08,1.51c5.73,1.84,10.75,3.37,16.46,4.76C71.07,75.02,63.03,72.55,54.68,69.92L54.68,69.92z
		 M92.8,72.5l17.59-10.21c0.23-0.19,0.22-0.34-0.19-0.41c-8.45-1.43-17.05-4.29-26.02-10.45c-3.44-2.43-11.67-9.53-15.65-13.83
		c-4.63-5.02-8.55-10.68-13.01-16.98c-0.29-0.5-0.51-0.82-0.77-0.94c-0.25-0.11-0.58-0.06-1.1,0.17L21.45,33.18
		c-2.01,0.85-1.95,1.47-0.9,3.29c4.98,10.49,13.96,19.4,23.06,25.45c1.27,2.54,3.2,5.03,7.68,6.91
		C41.2,65.22,29.27,60.5,15.85,54.19l7.01-5.15L22,48.49l-6.94,5.11c-1.01,1.01-0.65,1.46,0.12,1.81
		c7.99,4.02,39.79,16.8,55.01,20.72c-10.58-2.31-44.38-13.88-54.3-18.15c-0.6,0.78-0.21,1.65,0.61,2.01l0.78,0.24
		c3.17,1,27.93,9.63,32.8,10.76c-5.66-0.84-31.91-8.91-34.48-9.95l0.09,1.37l36.22,10.31l3.5,1.33L14.18,64.02
		c-1.77-0.46-2.91-0.43-1.66-2.35l-2.2,1.74c-0.21,0.14-0.21,0.34,0.05,0.4l47.24,11.68l1.99,0.88L15.67,66.15l0.03,0.94l34.02,7.81
		l3.53,1.37L15.7,68.31l-0.02,1.03l68.06,14.09c0.96,0.21,2.26,0.21,3.2-0.53l23.13-13.39l-7.19,3.09l7.21-4.23l-12.96,5.64
		l12.92-6.9l-6.71,2.66l6.67-4.11l-10.99,5.08l11.02-6.56L92.8,72.5L92.8,72.5z"/>
</g>
</svg>
