<?xml version="1.0" encoding="UTF-8"?>
<svg width="282px" height="185px" viewBox="0 0 282 185" version="1.1" xmlns="http://www.w3.org/2000/svg" xmlns:xlink="http://www.w3.org/1999/xlink">
    <!-- Generator: Sketch 48.2 (47327) - http://www.bohemiancoding.com/sketch -->
    <title>logo-vertical</title>
    <desc>Created with Sketch.</desc>
    <defs></defs>
    <g id="Page-1" stroke="none" stroke-width="1" fill="none" fill-rule="evenodd">
        <g id="logo-vertical">
            <path d="M143.92,104.39 C192.68,104.39 232.2,106.77 232.2,109.7 C232.2,112.63 192.67,115.01 143.92,115.01 C95.16,115.01 55.64,112.63 55.64,109.7 C55.63,106.77 95.16,104.39 143.92,104.39 Z" id="Shape" fill="#E1E1E1"></path>
            <path d="M77.62,45.32 C74.89,41.6 71.87,36.72 68.56,30.53 C66.67,27.26 66.48,25.74 69.63,24.4 L126.46,0.89 C128.06,0.19 130.16,0.18 131.52,2.64 C139.16,13.93 144.72,21.87 152.62,30.44 C164.77,43.02 178.15,56.66 201.35,66.56 C208.67,69.26 215.83,71.49 224.27,72.92 C224.59,72.97 226.15,73.72 226.04,75.06 L225.81,88.32 L186.4,110.95 C184.4,112.71 182.49,114.23 178,112.79 L60.8,88.4 L60.78,80.54 L51.49,78.14 C50.77,77.96 50.76,77.01 51.35,76.61 L61.1,68.67 C61.06,67.14 61.5,66.17 62.26,65.21 C57.98,63.71 56.29,61.82 59.04,59.24 L76.25,46.49 L77.62,45.32 Z" id="Shape" fill="#7F7F7F" fill-rule="nonzero"></path>
            <g id="Group" transform="translate(0.000000, 133.000000)" fill="#4C4C4C" fill-rule="nonzero">
                <path d="M0.41,39.64 L0.41,12.59 C0.41,5.55 4.99,0.97 11.82,0.97 C18.72,0.97 23.3,5.55 23.3,12.59 L23.3,13.93 C23.3,14.35 23.02,14.71 22.6,14.71 L20.28,14.85 C19.86,14.85 19.58,14.57 19.58,14.15 L19.58,12.39 C19.58,7.53 16.48,4.29 11.83,4.29 C7.18,4.29 4.15,7.53 4.15,12.39 L4.15,39.93 C4.15,44.79 7.18,48.1 11.83,48.1 C16.48,48.1 19.58,44.79 19.58,39.93 L19.58,38.31 C19.58,37.89 19.86,37.61 20.28,37.61 L22.6,37.75 C23.02,37.75 23.3,38.03 23.3,38.45 L23.3,39.65 C23.3,46.76 18.72,51.41 11.82,51.41 C4.99,51.4 0.41,46.75 0.41,39.64 Z" id="Shape"></path>
                <path d="M51.69,26.54 L51.69,50.14 C51.69,50.56 51.41,50.84 50.99,50.84 L48.67,50.84 C48.25,50.84 47.97,50.56 47.97,50.14 L47.97,47.6 C47.97,47.32 47.76,47.25 47.62,47.46 C45.79,50.21 42.83,51.4 39.45,51.4 C35.44,51.4 30.29,49.64 30.29,41.54 C30.29,33.37 35.43,30.2 42.19,30.2 L47.68,30.2 C47.82,30.2 47.96,30.06 47.96,29.92 L47.96,26.68 C47.96,21.54 45.56,18.09 41.41,18.09 C38.17,18.09 35.42,20.34 35.07,23.66 C35.07,24.15 34.79,24.36 34.37,24.36 L31.83,24.22 C31.41,24.22 31.13,23.94 31.2,23.52 C31.76,18.24 36.13,14.79 41.48,14.79 C47.89,14.77 51.69,19.42 51.69,26.54 Z M47.96,40.27 L47.96,33.58 C47.96,33.44 47.82,33.3 47.68,33.3 L42.19,33.3 C37.47,33.3 34.09,35.84 34.09,41.26 C34.09,46.12 36.77,48.09 40.22,48.09 C44.02,48.09 47.96,45.62 47.96,40.27 Z" id="Shape"></path>
                <path d="M58.81,42.24 L58.81,41.82 C58.81,41.4 59.09,41.12 59.51,41.12 L61.69,41.12 C62.11,41.12 62.39,41.33 62.39,41.68 L62.39,42.24 C62.39,45.55 65,48.16 68.94,48.16 C72.74,48.16 75.21,45.62 75.21,41.96 C75.21,37.59 71.55,36.11 67.74,34.56 C63.65,32.87 59.01,30.83 59.01,24.42 C59.01,18.64 62.95,15.05 68.8,15.05 C74.86,15.05 78.66,18.92 78.66,24.42 L78.66,24.63 C78.66,25.05 78.38,25.33 77.96,25.33 L75.85,25.33 C75.43,25.33 75.15,25.05 75.15,24.77 L75.15,24.28 C75.15,20.9 72.61,18.15 68.81,18.15 C65.01,18.15 62.61,20.76 62.61,24.35 C62.61,28.43 65.99,29.84 69.65,31.46 C73.88,33.22 78.95,35.33 78.95,41.81 C78.95,47.45 75.01,51.18 68.95,51.18 C62.75,51.19 58.81,47.46 58.81,42.24 Z" id="Shape"></path>
                <path d="M106.43,25.83 L106.43,50.13 C106.43,50.55 106.15,50.83 105.73,50.83 L103.4,50.83 C102.98,50.83 102.7,50.55 102.7,50.13 L102.7,26.18 C102.7,21.11 100.38,18.15 96.36,18.15 C92.2,18.15 89.67,21.32 89.67,26.6 L89.67,50.13 C89.67,50.55 89.39,50.83 88.97,50.83 L86.64,50.83 C86.22,50.83 85.94,50.55 85.94,50.13 L85.94,2.23 C85.94,1.81 86.22,1.53 86.64,1.53 L88.97,1.53 C89.39,1.53 89.67,1.81 89.67,2.23 L89.67,18.78 C89.67,19.06 89.88,19.06 90.02,18.78 C91.78,16.03 94.46,14.84 97.49,14.84 C103.19,14.84 106.43,18.93 106.43,25.83 Z" id="Shape"></path>
                <path d="M113.83,38.79 L113.83,36.89 C113.83,36.47 114.11,36.18 114.53,36.18 L119.74,36.18 C120.16,36.18 120.44,36.46 120.44,36.89 L120.44,38.44 C120.44,42.81 122.84,45.55 126.22,45.55 C129.53,45.55 132.07,42.87 132.07,38.79 C132.07,34.49 129.25,32.52 124.18,28.79 C118.76,24.77 113.69,21.04 113.69,13.36 C113.69,5.68 118.76,0.96 125.88,0.96 C133.42,0.96 138.35,6.17 138.35,13.99 L138.35,15.75 C138.35,16.17 138.07,16.45 137.65,16.45 L132.44,16.45 C132.02,16.45 131.74,16.17 131.74,15.75 L131.74,13.85 C131.74,9.62 129.34,6.81 125.89,6.81 C122.72,6.81 120.4,9.13 120.4,13.36 C120.4,17.37 122.44,19.28 127.87,23.29 C135.05,28.64 138.79,31.6 138.79,38.36 C138.79,46.32 133.58,51.39 126.25,51.39 C118.83,51.4 113.83,46.33 113.83,38.79 Z" id="Shape"></path>
                <path d="M168.35,25.97 L168.35,50.13 C168.35,50.55 168.07,50.83 167.65,50.83 L162.3,50.83 C161.88,50.83 161.6,50.55 161.6,50.13 L161.6,26.53 C161.6,22.58 159.84,20.33 156.81,20.33 C153.57,20.33 151.67,22.73 151.67,26.81 L151.67,50.12 C151.67,50.54 151.39,50.82 150.97,50.82 L145.62,50.82 C145.2,50.82 144.92,50.54 144.92,50.12 L144.92,2.22 C144.92,1.8 145.2,1.52 145.62,1.52 L150.97,1.52 C151.39,1.52 151.67,1.8 151.67,2.22 L151.67,17.51 C151.67,17.72 151.88,17.79 152.09,17.58 C153.99,15.26 156.67,14.48 159.2,14.48 C165.11,14.49 168.35,18.72 168.35,25.97 Z" id="Shape"></path>
                <path d="M192.3,14.98 L197.65,14.98 C198.07,14.98 198.35,15.26 198.35,15.68 L198.35,50.12 C198.35,50.54 198.07,50.82 197.65,50.82 L192.3,50.82 C191.88,50.82 191.6,50.54 191.6,50.12 L191.6,48.08 C191.6,47.8 191.39,47.8 191.25,48.01 C189.7,50.47 187.31,51.32 184.49,51.32 C179.21,51.32 175.05,48.29 175.05,40.9 L175.05,15.68 C175.05,15.26 175.33,14.98 175.75,14.98 L181.1,14.98 C181.52,14.98 181.8,15.26 181.8,15.68 L181.8,39.42 C181.8,43.5 183.49,45.48 186.59,45.48 C189.76,45.48 191.59,43.01 191.59,39 L191.59,15.69 C191.6,15.27 191.88,14.98 192.3,14.98 Z" id="Shape"></path>
                <path d="M233.02,14.7 C233.02,14.84 233.16,14.98 233.3,14.98 L238.16,14.98 C238.58,14.98 238.86,15.26 238.86,15.68 L238.86,19.2 C238.86,19.62 238.58,19.9 238.16,19.9 L233.3,19.9 C233.16,19.9 233.02,20.04 233.02,20.18 L233.02,50.12 C233.02,50.54 232.74,50.82 232.32,50.82 L226.97,50.82 C226.55,50.82 226.27,50.54 226.27,50.12 L226.27,20.2 C226.27,20.06 226.13,19.92 225.99,19.92 L214.51,19.92 C214.37,19.92 214.23,20.06 214.23,20.2 L214.23,50.14 C214.23,50.56 213.95,50.84 213.53,50.84 L208.18,50.84 C207.76,50.84 207.48,50.56 207.48,50.14 L207.48,20.2 C207.48,20.06 207.34,19.92 207.2,19.92 L204.52,19.92 C204.1,19.92 203.82,19.64 203.82,19.22 L203.82,15.7 C203.82,15.28 204.1,15 204.52,15 L207.2,15 C207.34,15 207.48,14.86 207.48,14.72 L207.48,11.9 C207.48,4.01 210.93,0.91 218.61,1.12 L219.1,1.12 C219.52,1.12 219.8,1.4 219.8,1.82 L219.8,5.2 C219.8,5.62 219.59,5.9 219.24,5.9 L218.61,5.9 C215.16,5.97 214.24,8.51 214.24,12.45 L214.24,14.7 C214.24,14.84 214.38,14.98 214.52,14.98 L226,14.98 C226.14,14.98 226.28,14.84 226.28,14.7 L226.28,11.88 C226.28,3.99 229.73,0.89 237.41,1.1 L237.9,1.1 C238.32,1.1 238.6,1.38 238.6,1.8 L238.6,5.18 C238.6,5.6 238.39,5.88 238.04,5.88 L237.41,5.88 C233.96,5.95 233.04,8.49 233.04,12.43 L233.04,14.7 L233.02,14.7 Z M244.92,1.53 L250.27,1.53 C250.69,1.53 250.97,1.81 250.97,2.23 L250.97,50.13 C250.97,50.55 250.69,50.83 250.27,50.83 L244.92,50.83 C244.5,50.83 244.21,50.55 244.21,50.13 L244.21,2.23 C244.22,1.81 244.5,1.53 244.92,1.53 Z" id="Shape"></path>
                <path d="M280.36,35.69 L264.44,35.69 C264.3,35.69 264.16,35.83 264.16,35.97 L264.16,39.77 C264.16,43.15 266.27,45.55 269.23,45.55 C271.91,45.55 273.74,43.72 274.23,41.25 C274.37,40.83 274.58,40.69 275,40.69 L280.21,40.97 C280.63,40.97 280.91,41.25 280.84,41.67 C280.21,47.66 276.19,51.39 269.22,51.39 C261.97,51.39 257.39,47.02 257.39,40.26 L257.39,25.61 C257.39,18.99 261.97,14.41 269.22,14.41 C276.62,14.41 281.05,18.99 281.05,25.61 L281.05,34.98 C281.06,35.41 280.78,35.69 280.36,35.69 Z M264.16,26.04 L264.16,29.77 C264.16,29.91 264.3,30.05 264.44,30.05 L274.09,30.05 C274.23,30.05 274.37,29.91 274.37,29.77 L274.37,26.04 C274.37,22.66 272.33,20.26 269.23,20.26 C266.27,20.27 264.16,22.66 264.16,26.04 Z" id="Shape"></path>
            </g>
            <path d="M222.94,74.75 L180.02,99 C160.26,94.94 143.51,88.94 129.45,81.92 C133.12,82.78 137.08,83.25 141.21,83.25 C160.18,83.25 175.56,73.31 175.56,61.06 C175.56,58.2 174.72,55.46 173.19,52.95 C187.96,64.17 204.92,72.71 222.94,74.75 Z M140.89,40.42 C158.31,40.42 172.43,49.41 172.43,60.51 C172.43,71.61 158.31,80.6 140.89,80.6 C123.47,80.6 109.35,71.61 109.35,60.51 C109.35,49.41 123.47,40.42 140.89,40.42 Z M161.51,43.17 C155.82,40.47 148.8,38.88 141.2,38.88 C122.23,38.88 106.85,48.82 106.85,61.07 C106.85,64.51 108.06,67.76 110.22,70.66 C89.55,56.5 77.21,40.46 71.39,27.88 L128.59,3.1 C135.94,15.32 147.35,30.15 161.51,43.17 Z M137.88,42.62 L136.43,47.02 L131.9,46.7 L130.87,49.41 C133.62,49.66 134.83,49.35 134.17,51.47 L129.9,65.32 C129.44,66.8 129.07,66.53 127.12,66.25 L124.84,65.93 L123.55,69.81 L128.32,70.61 L126.91,75.52 L133.19,76.6 L134.63,71.6 L139.75,72.3 L138.47,77.38 L144.59,78.18 L145.81,73.01 C147.52,73.13 147.48,73.03 148.67,72.87 C150.74,72.61 152.46,72.02 153.82,71.12 C155.17,70.22 156.12,68.68 156.49,67.41 C156.8,66.35 156.64,64.92 156.2,63.96 C155.76,62.99 155.02,62.18 153.98,61.52 C153.26,61.06 152.18,60.56 150.73,60.04 C153.25,59.83 154.75,59.08 156.33,57.58 C157.94,56.05 158.26,54.04 157.22,52.27 C155.94,50.11 153.31,49.1 150.57,48.48 L151.6,43.89 L147.53,43.49 L146.22,48.04 L141.51,47.56 L142.74,43.17 L137.88,42.62 Z M138.92,56.6 L140.73,50.38 L144.41,50.8 C146.52,51.04 147.94,51.44 148.69,51.75 C151.89,53.05 150.83,57.06 146.77,57.44 C145.81,57.53 144.38,57.43 142.51,57.15 L138.92,56.6 Z M137.92,60.06 L142.16,60.71 C144.02,60.99 145.37,61.33 146.2,61.72 C147.03,62.11 147.61,62.58 147.91,63.14 C148.23,63.7 148.28,64.34 148.07,65.05 C147.83,65.88 147.31,67.42 146.49,67.92 C145.68,68.42 144.79,68.69 143.82,68.74 C142.85,68.79 141.67,68.67 140.29,68.45 C139.84,68.38 135.76,67.79 135.75,67.71 L137.92,60.06 Z M128.94,87.94 C135.43,89.3 139.24,90.04 142.8,90.53 C152.64,93.69 161.24,96.31 171.04,98.69 C157.07,96.68 143.26,92.45 128.94,87.94 Z M194.36,92.37 L224.55,74.85 C224.94,74.53 224.93,74.26 224.22,74.15 C209.72,71.7 194.96,66.79 179.56,56.22 C173.66,52.05 159.53,39.87 152.71,32.48 C144.77,23.87 138.04,14.15 130.37,3.34 C129.86,2.48 129.49,1.94 129.04,1.73 C128.61,1.54 128.05,1.63 127.15,2.03 L71.9,24.87 C68.45,26.33 68.56,27.39 70.36,30.51 C78.91,48.52 94.31,63.8 109.93,74.18 C112.11,78.54 115.41,82.8 123.11,86.05 C105.8,79.86 85.33,71.76 62.3,60.93 L74.33,52.1 L72.85,51.14 L60.94,59.92 C59.2,61.66 59.82,62.43 61.14,63.03 C74.85,69.92 129.42,91.86 155.56,98.59 C137.41,94.63 79.4,74.78 62.36,67.43 C61.32,68.76 61.99,70.27 63.41,70.88 L64.74,71.3 C70.18,73.01 112.68,87.83 121.03,89.76 C111.32,88.32 66.27,74.48 61.85,72.68 L62.01,75.03 L124.18,92.72 L130.19,94.99 L59.43,77.81 C56.4,77.03 54.43,77.07 56.58,73.77 L52.8,76.75 C52.43,76.99 52.44,77.34 52.89,77.44 L133.96,97.48 L137.37,98.99 L61.98,81.47 L62.03,83.09 L120.41,96.5 L126.47,98.85 L62.03,85.17 L62,86.95 L178.81,111.13 C180.46,111.48 182.7,111.49 184.3,110.23 L224,87.24 L211.65,92.54 L224.02,85.27 L201.78,94.95 L223.96,83.1 L212.45,87.67 L223.9,80.62 L205.03,89.34 L223.95,78.07 L194.36,92.37 Z" id="Shape" fill="#FFFFFF" fill-rule="nonzero"></path>
        </g>
    </g>
</svg>