<?xml version="1.0" encoding="utf-8"?>
<!-- Generator: Adobe Illustrator 23.0.2, SVG Export Plug-In . SVG Version: 6.00 Build 0)  -->
<svg version="1.1" id="Layer_1" xmlns="http://www.w3.org/2000/svg" xmlns:xlink="http://www.w3.org/1999/xlink" x="0px" y="0px"
	 viewBox="0 0 319.59 221.63" style="enable-background:new 0 0 319.59 221.63;" xml:space="preserve">
<style type="text/css">
	.st0{fill-rule:evenodd;clip-rule:evenodd;fill:#E1E1E1;}
	.st1{fill:#FF6600;}
	.st2{fill:#4C4C4C;}
	.st3{fill:#FFFFFF;}
</style>
<g>
	<path class="st0" d="M162.92,118.39c48.76,0,88.28,2.38,88.28,5.31c0,2.93-39.53,5.31-88.28,5.31c-48.76,0-88.28-2.38-88.28-5.31
		C74.63,120.77,114.16,118.39,162.92,118.39L162.92,118.39z"/>
	<path class="st1" d="M96.62,59.32c-2.73-3.72-5.75-8.6-9.06-14.79c-1.89-3.27-2.08-4.79,1.07-6.13l56.83-23.51
		c1.6-0.7,3.7-0.71,5.06,1.75c7.64,11.29,13.2,19.23,21.1,27.8c12.15,12.58,25.53,26.22,48.73,36.12c7.32,2.7,14.48,4.93,22.92,6.36
		c0.32,0.05,1.88,0.8,1.77,2.14l-0.23,13.26l-39.41,22.63c-2,1.76-3.91,3.28-8.4,1.84L79.8,102.4l-0.02-7.86l-9.29-2.4
		c-0.72-0.18-0.73-1.13-0.14-1.53l9.75-7.94c-0.04-1.53,0.4-2.5,1.16-3.46c-4.28-1.5-5.97-3.39-3.22-5.97l17.21-12.75L96.62,59.32
		L96.62,59.32z"/>
	<g>
		<path class="st2" d="M19.41,186.64v-27.05c0-7.04,4.58-11.62,11.41-11.62c6.9,0,11.48,4.58,11.48,11.62v1.34
			c0,0.42-0.28,0.78-0.7,0.78l-2.32,0.14c-0.42,0-0.7-0.28-0.7-0.7v-1.76c0-4.86-3.1-8.1-7.75-8.1c-4.65,0-7.68,3.24-7.68,8.1v27.54
			c0,4.86,3.03,8.17,7.68,8.17c4.65,0,7.75-3.31,7.75-8.17v-1.62c0-0.42,0.28-0.7,0.7-0.7l2.32,0.14c0.42,0,0.7,0.28,0.7,0.7v1.2
			c0,7.11-4.58,11.76-11.48,11.76C23.99,198.4,19.41,193.75,19.41,186.64z"/>
		<path class="st2" d="M70.69,173.54v23.6c0,0.42-0.28,0.7-0.7,0.7h-2.32c-0.42,0-0.7-0.28-0.7-0.7v-2.54
			c0-0.28-0.21-0.35-0.35-0.14c-1.83,2.75-4.79,3.94-8.17,3.94c-4.01,0-9.16-1.76-9.16-9.86c0-8.17,5.14-11.34,11.9-11.34h5.49
			c0.14,0,0.28-0.14,0.28-0.28v-3.24c0-5.14-2.4-8.59-6.55-8.59c-3.24,0-5.99,2.25-6.34,5.57c0,0.49-0.28,0.7-0.7,0.7l-2.54-0.14
			c-0.42,0-0.7-0.28-0.63-0.7c0.56-5.28,4.93-8.73,10.28-8.73C66.89,161.77,70.69,166.42,70.69,173.54z M66.96,187.27v-6.69
			c0-0.14-0.14-0.28-0.28-0.28h-5.49c-4.72,0-8.1,2.54-8.1,7.96c0,4.86,2.68,6.83,6.13,6.83C63.02,195.09,66.96,192.62,66.96,187.27
			z"/>
		<path class="st2" d="M77.81,189.24v-0.42c0-0.42,0.28-0.7,0.7-0.7h2.18c0.42,0,0.7,0.21,0.7,0.56v0.56c0,3.31,2.61,5.92,6.55,5.92
			c3.8,0,6.27-2.54,6.27-6.2c0-4.37-3.66-5.85-7.47-7.4c-4.09-1.69-8.73-3.73-8.73-10.14c0-5.78,3.94-9.37,9.79-9.37
			c6.06,0,9.86,3.87,9.86,9.37v0.21c0,0.42-0.28,0.7-0.7,0.7h-2.11c-0.42,0-0.7-0.28-0.7-0.56v-0.49c0-3.38-2.54-6.13-6.34-6.13
			s-6.2,2.61-6.2,6.2c0,4.08,3.38,5.49,7.04,7.11c4.23,1.76,9.3,3.87,9.3,10.35c0,5.64-3.94,9.37-10,9.37
			C81.75,198.19,77.81,194.46,77.81,189.24z"/>
		<path class="st2" d="M125.43,172.83v24.3c0,0.42-0.28,0.7-0.7,0.7h-2.33c-0.42,0-0.7-0.28-0.7-0.7v-23.95
			c0-5.07-2.32-8.03-6.34-8.03c-4.16,0-6.69,3.17-6.69,8.45v23.53c0,0.42-0.28,0.7-0.7,0.7h-2.33c-0.42,0-0.7-0.28-0.7-0.7v-47.9
			c0-0.42,0.28-0.7,0.7-0.7h2.33c0.42,0,0.7,0.28,0.7,0.7v16.55c0,0.28,0.21,0.28,0.35,0c1.76-2.75,4.44-3.94,7.47-3.94
			C122.19,161.84,125.43,165.93,125.43,172.83z"/>
		<path class="st2" d="M132.83,185.79v-1.9c0-0.42,0.28-0.71,0.7-0.71h5.21c0.42,0,0.7,0.28,0.7,0.71v1.55
			c0,4.37,2.4,7.11,5.78,7.11c3.31,0,5.85-2.68,5.85-6.76c0-4.3-2.82-6.27-7.89-10c-5.42-4.02-10.49-7.75-10.49-15.43
			c0-7.68,5.07-12.4,12.19-12.4c7.54,0,12.47,5.21,12.47,13.03v1.76c0,0.42-0.28,0.7-0.7,0.7h-5.21c-0.42,0-0.7-0.28-0.7-0.7v-1.9
			c0-4.23-2.4-7.04-5.85-7.04c-3.17,0-5.49,2.32-5.49,6.55c0,4.01,2.04,5.92,7.47,9.93c7.18,5.35,10.92,8.31,10.92,15.07
			c0,7.96-5.21,13.03-12.54,13.03C137.83,198.4,132.83,193.33,132.83,185.79z"/>
		<path class="st2" d="M187.35,172.97v24.16c0,0.42-0.28,0.7-0.7,0.7h-5.35c-0.42,0-0.7-0.28-0.7-0.7v-23.6
			c0-3.95-1.76-6.2-4.79-6.2c-3.24,0-5.14,2.4-5.14,6.48v23.31c0,0.42-0.28,0.7-0.7,0.7h-5.35c-0.42,0-0.7-0.28-0.7-0.7v-47.9
			c0-0.42,0.28-0.7,0.7-0.7h5.35c0.42,0,0.7,0.28,0.7,0.7v15.29c0,0.21,0.21,0.28,0.42,0.07c1.9-2.32,4.58-3.1,7.11-3.1
			C184.11,161.49,187.35,165.72,187.35,172.97z"/>
		<path class="st2" d="M211.3,161.98h5.35c0.42,0,0.7,0.28,0.7,0.7v34.44c0,0.42-0.28,0.7-0.7,0.7h-5.35c-0.42,0-0.7-0.28-0.7-0.7
			v-2.04c0-0.28-0.21-0.28-0.35-0.07c-1.55,2.46-3.94,3.31-6.76,3.31c-5.28,0-9.44-3.03-9.44-10.42v-25.22c0-0.42,0.28-0.7,0.7-0.7
			h5.35c0.42,0,0.7,0.28,0.7,0.7v23.74c0,4.08,1.69,6.06,4.79,6.06c3.17,0,5-2.47,5-6.48v-23.31
			C210.6,162.27,210.88,161.98,211.3,161.98z"/>
		<path class="st2" d="M252.02,161.7c0,0.14,0.14,0.28,0.28,0.28h4.86c0.42,0,0.7,0.28,0.7,0.7v3.52c0,0.42-0.28,0.7-0.7,0.7h-4.86
			c-0.14,0-0.28,0.14-0.28,0.28v29.94c0,0.42-0.28,0.7-0.7,0.7h-5.35c-0.42,0-0.7-0.28-0.7-0.7V167.2c0-0.14-0.14-0.28-0.28-0.28
			h-11.48c-0.14,0-0.28,0.14-0.28,0.28v29.94c0,0.42-0.28,0.7-0.7,0.7h-5.35c-0.42,0-0.7-0.28-0.7-0.7V167.2
			c0-0.14-0.14-0.28-0.28-0.28h-2.68c-0.42,0-0.7-0.28-0.7-0.7v-3.52c0-0.42,0.28-0.7,0.7-0.7h2.68c0.14,0,0.28-0.14,0.28-0.28
			v-2.82c0-7.89,3.45-10.99,11.13-10.78h0.49c0.42,0,0.7,0.28,0.7,0.7v3.38c0,0.42-0.21,0.7-0.56,0.7h-0.63
			c-3.45,0.07-4.37,2.61-4.37,6.55v2.25c0,0.14,0.14,0.28,0.28,0.28h11.48c0.14,0,0.28-0.14,0.28-0.28v-2.82
			c0-7.89,3.45-10.99,11.13-10.78h0.49c0.42,0,0.7,0.28,0.7,0.7v3.38c0,0.42-0.21,0.7-0.56,0.7h-0.63
			c-3.45,0.07-4.37,2.61-4.37,6.55V161.7z M263.92,148.53h5.35c0.42,0,0.7,0.28,0.7,0.7v47.9c0,0.42-0.28,0.7-0.7,0.7h-5.35
			c-0.42,0-0.71-0.28-0.71-0.7v-47.9C263.22,148.81,263.5,148.53,263.92,148.53z"/>
		<path class="st2" d="M299.36,182.69h-15.92c-0.14,0-0.28,0.14-0.28,0.28v3.8c0,3.38,2.11,5.78,5.07,5.78c2.68,0,4.51-1.83,5-4.3
			c0.14-0.42,0.35-0.56,0.77-0.56l5.21,0.28c0.42,0,0.7,0.28,0.63,0.7c-0.63,5.99-4.65,9.72-11.62,9.72
			c-7.25,0-11.83-4.37-11.83-11.13v-14.65c0-6.62,4.58-11.2,11.83-11.2c7.4,0,11.83,4.58,11.83,11.2v9.37
			C300.06,182.41,299.78,182.69,299.36,182.69z M283.16,173.04v3.73c0,0.14,0.14,0.28,0.28,0.28h9.65c0.14,0,0.28-0.14,0.28-0.28
			v-3.73c0-3.38-2.04-5.78-5.14-5.78C285.27,167.27,283.16,169.66,283.16,173.04z"/>
	</g>
	<path class="st3" d="M241.94,88.75L199.02,113c-19.76-4.06-36.51-10.06-50.57-17.08c3.67,0.86,7.63,1.33,11.76,1.33
		c18.97,0,34.35-9.94,34.35-22.19c0-2.86-0.84-5.6-2.37-8.11C206.96,78.17,223.92,86.71,241.94,88.75L241.94,88.75z M159.89,54.42
		c17.42,0,31.54,8.99,31.54,20.09s-14.12,20.09-31.54,20.09c-17.42,0-31.54-8.99-31.54-20.09S142.47,54.42,159.89,54.42
		L159.89,54.42z M180.51,57.17c-5.69-2.7-12.71-4.29-20.31-4.29c-18.97,0-34.35,9.94-34.35,22.19c0,3.44,1.21,6.69,3.37,9.59
		c-20.67-14.16-33.01-30.2-38.83-42.78l57.2-24.78C154.94,29.32,166.35,44.15,180.51,57.17L180.51,57.17z M156.88,56.62l-1.45,4.4
		l-4.53-0.32l-1.03,2.71c2.75,0.25,3.96-0.06,3.3,2.06l-4.27,13.85c-0.46,1.48-0.83,1.21-2.78,0.93l-2.28-0.32l-1.29,3.88l4.77,0.8
		l-1.41,4.91l6.28,1.08l1.44-5l5.12,0.7l-1.28,5.08l6.12,0.8l1.22-5.17c1.71,0.12,1.67,0.02,2.86-0.14
		c2.07-0.26,3.79-0.85,5.15-1.75c1.35-0.9,2.3-2.44,2.67-3.71c0.31-1.06,0.15-2.49-0.29-3.45c-0.44-0.97-1.18-1.78-2.22-2.44
		c-0.72-0.46-1.8-0.96-3.25-1.48c2.52-0.21,4.02-0.96,5.6-2.46c1.61-1.53,1.93-3.54,0.89-5.31c-1.28-2.16-3.91-3.17-6.65-3.79
		l1.03-4.59l-4.07-0.4l-1.31,4.55l-4.71-0.48l1.23-4.39L156.88,56.62L156.88,56.62z M157.92,70.6l1.81-6.22l3.68,0.42
		c2.11,0.24,3.53,0.64,4.28,0.95c3.2,1.3,2.14,5.31-1.92,5.69c-0.96,0.09-2.39-0.01-4.26-0.29L157.92,70.6L157.92,70.6z
		 M156.92,74.06l4.24,0.65c1.86,0.28,3.21,0.62,4.04,1.01c0.83,0.39,1.41,0.86,1.71,1.42c0.32,0.56,0.37,1.2,0.16,1.91
		c-0.24,0.83-0.76,2.37-1.58,2.87c-0.81,0.5-1.7,0.77-2.67,0.82c-0.97,0.05-2.15-0.07-3.53-0.29c-0.45-0.07-4.53-0.66-4.54-0.74
		L156.92,74.06L156.92,74.06z M147.94,101.94c6.49,1.36,10.3,2.1,13.86,2.59c9.84,3.16,18.44,5.78,28.24,8.16
		C176.07,110.68,162.26,106.45,147.94,101.94L147.94,101.94z M213.36,106.37l30.19-17.52c0.39-0.32,0.38-0.59-0.33-0.7
		c-14.5-2.45-29.26-7.36-44.66-17.93c-5.9-4.17-20.03-16.35-26.85-23.74c-7.94-8.61-14.67-18.33-22.34-29.14
		c-0.51-0.86-0.88-1.4-1.33-1.61c-0.43-0.19-0.99-0.1-1.89,0.3L90.9,38.87c-3.45,1.46-3.34,2.52-1.54,5.64
		c8.55,18.01,23.95,33.29,39.57,43.67c2.18,4.36,5.48,8.62,13.18,11.87c-17.31-6.19-37.78-14.29-60.81-25.12l12.03-8.83l-1.48-0.96
		l-11.91,8.78c-1.74,1.74-1.12,2.51,0.2,3.11c13.71,6.89,68.28,28.83,94.42,35.56c-18.15-3.96-76.16-23.81-93.2-31.16
		c-1.04,1.33-0.37,2.84,1.05,3.45l1.33,0.42c5.44,1.71,47.94,16.53,56.29,18.46c-9.71-1.44-54.76-15.28-59.18-17.08l0.16,2.35
		l62.17,17.69l6.01,2.27L78.43,91.81c-3.03-0.78-5-0.74-2.85-4.04l-3.78,2.98c-0.37,0.24-0.36,0.59,0.09,0.69l81.07,20.04l3.41,1.51
		L80.98,95.47l0.05,1.62l58.38,13.41l6.06,2.35L81.03,99.17L81,100.95l116.81,24.18c1.65,0.35,3.89,0.36,5.49-0.9l39.7-22.99
		l-12.35,5.3l12.37-7.27l-22.24,9.68l22.18-11.85l-11.51,4.57l11.45-7.05l-18.87,8.72l18.92-11.27L213.36,106.37L213.36,106.37z"/>
</g>
</svg>
