<svg id="Layer_1" xmlns="http://www.w3.org/2000/svg" viewBox="0 0 319.59 221.63"><style>.st2{fill:#4c4c4c}</style><path d="M162.92 118.39c48.76 0 88.28 2.38 88.28 5.31 0 2.93-39.53 5.31-88.28 5.31-48.76 0-88.28-2.38-88.28-5.31-.01-2.93 39.52-5.31 88.28-5.31z" fill-rule="evenodd" clip-rule="evenodd" fill="#e1e1e1"/><path d="M96.62 59.32c-2.73-3.72-5.75-8.6-9.06-14.79-1.89-3.27-2.08-4.79 1.07-6.13l56.83-23.51c1.6-.7 3.7-.71 5.06 1.75 7.64 11.29 13.2 19.23 21.1 27.8 12.15 12.58 25.53 26.22 48.73 36.12 7.32 2.7 14.48 4.93 22.92 6.36.32.05 1.88.8 1.77 2.14l-.23 13.26-39.41 22.63c-2 1.76-3.91 3.28-8.4 1.84L79.8 102.4l-.02-7.86-9.29-2.4c-.72-.18-.73-1.13-.14-1.53l9.75-7.94c-.04-1.53.4-2.5 1.16-3.46-4.28-1.5-5.97-3.39-3.22-5.97l17.21-12.75 1.37-1.17z" fill="#f60"/><path class="st2" d="M19.41 186.64v-27.05c0-7.04 4.58-11.62 11.41-11.62 6.9 0 11.48 4.58 11.48 11.62v1.34c0 .42-.28.78-.7.78l-2.32.14c-.42 0-.7-.28-.7-.7v-1.76c0-4.86-3.1-8.1-7.75-8.1s-7.68 3.24-7.68 8.1v27.54c0 4.86 3.03 8.17 7.68 8.17s7.75-3.31 7.75-8.17v-1.62c0-.42.28-.7.7-.7l2.32.14c.42 0 .7.28.7.7v1.2c0 7.11-4.58 11.76-11.48 11.76-6.83-.01-11.41-4.66-11.41-11.77zM70.69 173.54v23.6c0 .42-.28.7-.7.7h-2.32c-.42 0-.7-.28-.7-.7v-2.54c0-.28-.21-.35-.35-.14-1.83 2.75-4.79 3.94-8.17 3.94-4.01 0-9.16-1.76-9.16-9.86 0-8.17 5.14-11.34 11.9-11.34h5.49c.14 0 .28-.14.28-.28v-3.24c0-5.14-2.4-8.59-6.55-8.59-3.24 0-5.99 2.25-6.34 5.57 0 .49-.28.7-.7.7l-2.54-.14c-.42 0-.7-.28-.63-.7.56-5.28 4.93-8.73 10.28-8.73 6.41-.02 10.21 4.63 10.21 11.75zm-3.73 13.73v-6.69c0-.14-.14-.28-.28-.28h-5.49c-4.72 0-8.1 2.54-8.1 7.96 0 4.86 2.68 6.83 6.13 6.83 3.8 0 7.74-2.47 7.74-7.82zM77.81 189.24v-.42c0-.42.28-.7.7-.7h2.18c.42 0 .7.21.7.56v.56c0 3.31 2.61 5.92 6.55 5.92 3.8 0 6.27-2.54 6.27-6.2 0-4.37-3.66-5.85-7.47-7.4-4.09-1.69-8.73-3.73-8.73-10.14 0-5.78 3.94-9.37 9.79-9.37 6.06 0 9.86 3.87 9.86 9.37v.21c0 .42-.28.7-.7.7h-2.11c-.42 0-.7-.28-.7-.56v-.49c0-3.38-2.54-6.13-6.34-6.13s-6.2 2.61-6.2 6.2c0 4.08 3.38 5.49 7.04 7.11 4.23 1.76 9.3 3.87 9.3 10.35 0 5.64-3.94 9.37-10 9.37-6.2.01-10.14-3.72-10.14-8.94zM125.43 172.83v24.3c0 .42-.28.7-.7.7h-2.33c-.42 0-.7-.28-.7-.7v-23.95c0-5.07-2.32-8.03-6.34-8.03-4.16 0-6.69 3.17-6.69 8.45v23.53c0 .42-.28.7-.7.7h-2.33c-.42 0-.7-.28-.7-.7v-47.9c0-.42.28-.7.7-.7h2.33c.42 0 .7.28.7.7v16.55c0 .28.21.28.35 0 1.76-2.75 4.44-3.94 7.47-3.94 5.7 0 8.94 4.09 8.94 10.99zM132.83 185.79v-1.9c0-.42.28-.71.7-.71h5.21c.42 0 .7.28.7.71v1.55c0 4.37 2.4 7.11 5.78 7.11 3.31 0 5.85-2.68 5.85-6.76 0-4.3-2.82-6.27-7.89-10-5.42-4.02-10.49-7.75-10.49-15.43s5.07-12.4 12.19-12.4c7.54 0 12.47 5.21 12.47 13.03v1.76c0 .42-.28.7-.7.7h-5.21c-.42 0-.7-.28-.7-.7v-1.9c0-4.23-2.4-7.04-5.85-7.04-3.17 0-5.49 2.32-5.49 6.55 0 4.01 2.04 5.92 7.47 9.93 7.18 5.35 10.92 8.31 10.92 15.07 0 7.96-5.21 13.03-12.54 13.03-7.42.01-12.42-5.06-12.42-12.6zM187.35 172.97v24.16c0 .42-.28.7-.7.7h-5.35c-.42 0-.7-.28-.7-.7v-23.6c0-3.95-1.76-6.2-4.79-6.2-3.24 0-5.14 2.4-5.14 6.48v23.31c0 .42-.28.7-.7.7h-5.35c-.42 0-.7-.28-.7-.7v-47.9c0-.42.28-.7.7-.7h5.35c.42 0 .7.28.7.7v15.29c0 .21.21.28.42.07 1.9-2.32 4.58-3.1 7.11-3.1 5.91.01 9.15 4.24 9.15 11.49zM211.3 161.98h5.35c.42 0 .7.28.7.7v34.44c0 .42-.28.7-.7.7h-5.35c-.42 0-.7-.28-.7-.7v-2.04c0-.28-.21-.28-.35-.07-1.55 2.46-3.94 3.31-6.76 3.31-5.28 0-9.44-3.03-9.44-10.42v-25.22c0-.42.28-.7.7-.7h5.35c.42 0 .7.28.7.7v23.74c0 4.08 1.69 6.06 4.79 6.06 3.17 0 5-2.47 5-6.48v-23.31c.01-.42.29-.71.71-.71zM252.02 161.7c0 .14.14.28.28.28h4.86c.42 0 .7.28.7.7v3.52c0 .42-.28.7-.7.7h-4.86c-.14 0-.28.14-.28.28v29.94c0 .42-.28.7-.7.7h-5.35c-.42 0-.7-.28-.7-.7V167.2c0-.14-.14-.28-.28-.28h-11.48c-.14 0-.28.14-.28.28v29.94c0 .42-.28.7-.7.7h-5.35c-.42 0-.7-.28-.7-.7V167.2c0-.14-.14-.28-.28-.28h-2.68c-.42 0-.7-.28-.7-.7v-3.52c0-.42.28-.7.7-.7h2.68c.14 0 .28-.14.28-.28v-2.82c0-7.89 3.45-10.99 11.13-10.78h.49c.42 0 .7.28.7.7v3.38c0 .42-.21.7-.56.7h-.63c-3.45.07-4.37 2.61-4.37 6.55v2.25c0 .14.14.28.28.28H245c.14 0 .28-.14.28-.28v-2.82c0-7.89 3.45-10.99 11.13-10.78h.49c.42 0 .7.28.7.7v3.38c0 .42-.21.7-.56.7h-.63c-3.45.07-4.37 2.61-4.37 6.55v2.27zm11.9-13.17h5.35c.42 0 .7.28.7.7v47.9c0 .42-.28.7-.7.7h-5.35c-.42 0-.71-.28-.71-.7v-47.9c.01-.42.29-.7.71-.7zM299.36 182.69h-15.92c-.14 0-.28.14-.28.28v3.8c0 3.38 2.11 5.78 5.07 5.78 2.68 0 4.51-1.83 5-4.3.14-.42.35-.56.77-.56l5.21.28c.42 0 .7.28.63.7-.63 5.99-4.65 9.72-11.62 9.72-7.25 0-11.83-4.37-11.83-11.13v-14.65c0-6.62 4.58-11.2 11.83-11.2 7.4 0 11.83 4.58 11.83 11.2v9.37c.01.43-.27.71-.69.71zm-16.2-9.65v3.73c0 .14.14.28.28.28h9.65c.14 0 .28-.14.28-.28v-3.73c0-3.38-2.04-5.78-5.14-5.78-2.96.01-5.07 2.4-5.07 5.78z"/><path d="M241.94 88.75L199.02 113c-19.76-4.06-36.51-10.06-50.57-17.08 3.67.86 7.63 1.33 11.76 1.33 18.97 0 34.35-9.94 34.35-22.19 0-2.86-.84-5.6-2.37-8.11 14.77 11.22 31.73 19.76 49.75 21.8zm-82.05-34.33c17.42 0 31.54 8.99 31.54 20.09S177.31 94.6 159.89 94.6s-31.54-8.99-31.54-20.09 14.12-20.09 31.54-20.09zm20.62 2.75c-5.69-2.7-12.71-4.29-20.31-4.29-18.97 0-34.35 9.94-34.35 22.19 0 3.44 1.21 6.69 3.37 9.59-20.67-14.16-33.01-30.2-38.83-42.78l57.2-24.78c7.35 12.22 18.76 27.05 32.92 40.07zm-23.63-.55l-1.45 4.4-4.53-.32-1.03 2.71c2.75.25 3.96-.06 3.3 2.06l-4.27 13.85c-.46 1.48-.83 1.21-2.78.93l-2.28-.32-1.29 3.88 4.77.8-1.41 4.91 6.28 1.08 1.44-5 5.12.7-1.28 5.08 6.12.8 1.22-5.17c1.71.12 1.67.02 2.86-.14 2.07-.26 3.79-.85 5.15-1.75 1.35-.9 2.3-2.44 2.67-3.71.31-1.06.15-2.49-.29-3.45-.44-.97-1.18-1.78-2.22-2.44-.72-.46-1.8-.96-3.25-1.48 2.52-.21 4.02-.96 5.6-2.46 1.61-1.53 1.93-3.54.89-5.31-1.28-2.16-3.91-3.17-6.65-3.79l1.03-4.59-4.07-.4-1.31 4.55-4.71-.48 1.23-4.39-4.86-.55zm1.04 13.98l1.81-6.22 3.68.42c2.11.24 3.53.64 4.28.95 3.2 1.3 2.14 5.31-1.92 5.69-.96.09-2.39-.01-4.26-.29l-3.59-.55zm-1 3.46l4.24.65c1.86.28 3.21.62 4.04 1.01.83.39 1.41.86 1.71 1.42.32.56.37 1.2.16 1.91-.24.83-.76 2.37-1.58 2.87-.81.5-1.7.77-2.67.82-.97.05-2.15-.07-3.53-.29-.45-.07-4.53-.66-4.54-.74l2.17-7.65zm-8.98 27.88c6.49 1.36 10.3 2.1 13.86 2.59 9.84 3.16 18.44 5.78 28.24 8.16-13.97-2.01-27.78-6.24-42.1-10.75zm65.42 4.43l30.19-17.52c.39-.32.38-.59-.33-.7-14.5-2.45-29.26-7.36-44.66-17.93-5.9-4.17-20.03-16.35-26.85-23.74-7.94-8.61-14.67-18.33-22.34-29.14-.51-.86-.88-1.4-1.33-1.61-.43-.19-.99-.1-1.89.3L90.9 38.87c-3.45 1.46-3.34 2.52-1.54 5.64 8.55 18.01 23.95 33.29 39.57 43.67 2.18 4.36 5.48 8.62 13.18 11.87-17.31-6.19-37.78-14.29-60.81-25.12l12.03-8.83-1.48-.96-11.91 8.78c-1.74 1.74-1.12 2.51.2 3.11 13.71 6.89 68.28 28.83 94.42 35.56-18.15-3.96-76.16-23.81-93.2-31.16-1.04 1.33-.37 2.84 1.05 3.45l1.33.42c5.44 1.71 47.94 16.53 56.29 18.46-9.71-1.44-54.76-15.28-59.18-17.08l.16 2.35 62.17 17.69 6.01 2.27-70.76-17.18c-3.03-.78-5-.74-2.85-4.04l-3.78 2.98c-.37.24-.36.59.09.69l81.07 20.04 3.41 1.51-75.39-17.52.05 1.62 58.38 13.41 6.06 2.35-64.44-13.68-.03 1.78 116.81 24.18c1.65.35 3.89.36 5.49-.9l39.7-22.99-12.35 5.3 12.37-7.27-22.24 9.68 22.18-11.85-11.51 4.57 11.45-7.05-18.87 8.72 18.92-11.27-29.59 14.3z" fill="#fff"/></svg>