<?xml version="1.0" encoding="UTF-8" standalone="no"?>
<!-- Generator: Adobe Illustrator 23.0.2, SVG Export Plug-In . SVG Version: 6.00 Build 0)  -->

<svg
   xmlns:dc="http://purl.org/dc/elements/1.1/"
   xmlns:cc="http://creativecommons.org/ns#"
   xmlns:rdf="http://www.w3.org/1999/02/22-rdf-syntax-ns#"
   xmlns:svg="http://www.w3.org/2000/svg"
   xmlns="http://www.w3.org/2000/svg"
   xmlns:sodipodi="http://sodipodi.sourceforge.net/DTD/sodipodi-0.dtd"
   xmlns:inkscape="http://www.inkscape.org/namespaces/inkscape"
   version="1.1"
   id="Layer_1"
   x="0px"
   y="0px"
   viewBox="0 0 176 176"
   xml:space="preserve"
   sodipodi:docname="cashshuffle_on_error.svg"
   inkscape:version="0.92.4 (5da689c313, 2019-01-14)"
   width="176"
   height="176"><metadata
   id="metadata4014"><rdf:RDF><cc:Work
       rdf:about=""><dc:format>image/svg+xml</dc:format><dc:type
         rdf:resource="http://purl.org/dc/dcmitype/StillImage" /><dc:title /></cc:Work></rdf:RDF></metadata><defs
   id="defs4012" /><sodipodi:namedview
   pagecolor="#ffffff"
   bordercolor="#666666"
   borderopacity="1"
   objecttolerance="10"
   gridtolerance="10"
   guidetolerance="10"
   inkscape:pageopacity="0"
   inkscape:pageshadow="2"
   inkscape:window-width="1299"
   inkscape:window-height="815"
   id="namedview4010"
   showgrid="false"
   inkscape:zoom="3.011816"
   inkscape:cx="43.371765"
   inkscape:cy="142.23465"
   inkscape:window-x="0"
   inkscape:window-y="0"
   inkscape:window-maximized="0"
   inkscape:current-layer="g4007" />
<style
   type="text/css"
   id="style3979">
	.st0{fill-rule:evenodd;clip-rule:evenodd;fill:#E1E1E1;}
	.st1{fill:#FF6600;}
	.st2{fill:#4C4C4C;}
	.st3{fill:#FFFFFF;}
</style>
<g
   id="g4007"
   transform="translate(0,-45.630005)">
	
	<path
   class="st1"
   d="m 27.133662,122.02599 c -2.73,-3.72 -5.75,-8.6 -9.06,-14.79 -1.89,-3.27 -2.08,-4.79 1.07,-6.13 l 56.83,-23.509998 c 1.6,-0.7 3.7,-0.71 5.06,1.75 7.64,11.29 13.2,19.23 21.099998,27.799998 12.15,12.58 25.53,26.22 48.73,36.12 7.32,2.7 14.48,4.93 22.92,6.36 0.32,0.05 1.88,0.8 1.77,2.14 l -0.23,13.26 -39.41,22.63001 c -2,1.76 -3.91,3.28 -8.4,1.84 l -117.199999,-24.39001 -0.02,-7.86 -9.2899996,-2.4 c -0.72000002,-0.18 -0.73000002,-1.13 -0.14000002,-1.53 l 9.75000062,-7.94 c -0.04,-1.53 0.4,-2.5 1.16,-3.46 -4.2800006,-1.5 -5.9700006,-3.39 -3.2200006,-5.97 l 17.2100006,-12.75 z"
   id="path3983"
   inkscape:connector-curvature="0"
   style="fill:#ff6600" />
	
	<path
   class="st3"
   d="m 172.45366,151.45599 -42.92,24.25 c -19.76,-4.06 -36.509998,-10.06 -50.569998,-17.08 3.67,0.86 7.63,1.33 11.76,1.33 18.969998,0 34.349998,-9.94 34.349998,-22.19 0,-2.86 -0.84,-5.6 -2.37,-8.11 14.77,11.22 31.73,19.76 49.75,21.8 z m -82.049998,-34.33 c 17.419998,0 31.539998,8.99 31.539998,20.09 0,11.1 -14.12,20.09 -31.539998,20.09 -17.42,0 -31.54,-8.99 -31.54,-20.09 0,-11.1 14.12,-20.09 31.54,-20.09 z m 20.619998,2.75 c -5.69,-2.7 -12.709998,-4.29 -20.309998,-4.29 -18.97,0 -34.35,9.94 -34.35,22.19 0,3.44 1.21,6.69 3.37,9.59 -20.67,-14.16 -33.01,-30.2 -38.83,-42.78 l 57.2,-24.779998 c 7.35,12.22 18.76,27.049998 32.919998,40.069998 z m -23.629998,-0.55 -1.45,4.4 -4.53,-0.32 -1.03,2.71 c 2.75,0.25 3.96,-0.06 3.3,2.06 l -4.27,13.85 c -0.46,1.48 -0.83,1.21 -2.78,0.93 l -2.28,-0.32 -1.29,3.88 4.77,0.8 -1.41,4.91 6.28,1.08 1.44,-5 5.12,0.7 -1.28,5.08 6.12,0.8 1.22,-5.17 c 1.71,0.12 1.67,0.02 2.86,-0.14 2.069998,-0.26 3.789998,-0.85 5.149998,-1.75 1.35,-0.9 2.3,-2.44 2.67,-3.71 0.31,-1.06 0.15,-2.49 -0.29,-3.45 -0.44,-0.97 -1.18,-1.78 -2.22,-2.44 -0.72,-0.46 -1.8,-0.96 -3.25,-1.48 2.52,-0.21 4.02,-0.96 5.6,-2.46 1.61,-1.53 1.93,-3.54 0.89,-5.31 -1.28,-2.16 -3.91,-3.17 -6.65,-3.79 l 1.03,-4.59 -4.069998,-0.4 -1.31,4.55 -4.71,-0.48 1.23,-4.39 z m 1.04,13.98 1.81,-6.22 3.68,0.42 c 2.11,0.24 3.53,0.64 4.28,0.95 3.199998,1.3 2.139998,5.31 -1.92,5.69 -0.96,0.09 -2.39,-0.01 -4.26,-0.29 z m -1,3.46 4.24,0.65 c 1.86,0.28 3.21,0.62 4.04,1.01 0.83,0.39 1.41,0.86 1.71,1.42 0.32,0.56 0.37,1.2 0.16,1.91 -0.24,0.83 -0.76,2.37 -1.58,2.87 -0.81,0.5 -1.7,0.77 -2.67,0.82 -0.97,0.05 -2.15,-0.07 -3.53,-0.29 -0.45,-0.07 -4.53,-0.66 -4.54,-0.74 z m -8.98,27.88 c 6.49,1.36 10.3,2.1 13.86,2.59 9.839998,3.16 18.439998,5.78 28.239998,8.16 -13.97,-2.01 -27.779998,-6.24 -42.099998,-10.75 z m 65.419998,4.43 30.19,-17.52 c 0.39,-0.32 0.38,-0.59 -0.33,-0.7 -14.5,-2.45 -29.26,-7.36 -44.66,-17.93 -5.9,-4.17 -20.03,-16.35 -26.85,-23.74 -7.939998,-8.61 -14.669998,-18.329998 -22.339998,-29.139998 -0.51,-0.86 -0.88,-1.4 -1.33,-1.61 -0.43,-0.19 -0.99,-0.1 -1.89,0.3 l -55.25,22.839998 c -3.45,1.46 -3.34,2.52 -1.54,5.64 8.55,18.01 23.95,33.29 39.57,43.67 2.18,4.36 5.48,8.62 13.18,11.87 -17.31,-6.19 -37.78,-14.29 -60.81,-25.12 l 12.03,-8.83 -1.48,-0.96 -11.91,8.78 c -1.7400006,1.74 -1.1200006,2.51 0.2,3.11 13.71,6.89 68.28,28.83 94.419998,35.56 -18.149998,-3.96 -76.159998,-23.81 -93.199998,-31.16 -1.04,1.33 -0.37,2.84 1.05,3.45 l 1.33,0.42 c 5.44,1.71 47.94,16.53 56.29,18.46 -9.71,-1.44 -54.76,-15.28 -59.18,-17.08 l 0.16,2.35 62.17,17.69 6.01,2.27 -70.7600006,-17.18 c -3.03,-0.78 -5,-0.74 -2.85,-4.04 l -3.78,2.98 c -0.37,0.24 -0.36,0.59 0.09,0.69 l 81.0700006,20.04 3.41,1.51 -75.39,-17.52 0.05,1.62 58.38,13.41 6.06,2.35 -64.44,-13.68 -0.03,1.78 116.809998,24.18001 c 1.65,0.35 3.89,0.36 5.49,-0.9 l 39.7,-22.99001 -12.35,5.3 12.37,-7.27 -22.24,9.68 22.18,-11.85 -11.51,4.57 11.45,-7.05 -18.87,8.72 18.92,-11.27 z"
   id="path4005"
   inkscape:connector-curvature="0"
   style="fill:#ffffff" />
<path
   style="fill:none;fill-opacity:1;stroke-width:0.33202559;opacity:0.95;stroke:none;fill-rule:nonzero"
   d="M 114.35867,92.62603 C 104.21921,91.049626 95.704825,86.705964 88.418335,79.392406 82.872545,73.826014 78.891288,66.914234 76.890202,59.378644 75.89077,55.615034 75.850296,55.203777 75.835148,48.658367 c -0.0141,-6.092805 0.06702,-7.137272 0.773598,-9.960768 3.274246,-13.083898 11.582567,-23.575269 23.449614,-29.6111072 4.22363,-2.1482312 7.51827,-3.3331616 12.03816,-4.3295707 4.34308,-0.9574303 13.70297,-1.033619 18.12451,-0.1475319 13.48842,2.7031167 25.06222,10.8805418 31.58221,22.3142868 9.52418,16.702053 6.92005,37.66004 -6.42172,51.681796 -10.61303,11.153939 -25.88613,16.373892 -41.02285,14.020558 z"
   id="path4972"
   inkscape:connector-curvature="0"
   transform="translate(0,45.630005)" /><ellipse
   style="opacity:1;fill:#ff0000;fill-opacity:0.86666667;fill-rule:nonzero;stroke:#ffffff;stroke-width:2.47292852;stroke-linecap:round;stroke-linejoin:round;stroke-miterlimit:4;stroke-dasharray:none;stroke-opacity:1"
   id="path5519"
   cx="124.17757"
   cy="94.630219"
   rx="45.013535"
   ry="44.01746" />
<text
   xml:space="preserve"
   style="font-style:normal;font-weight:normal;font-size:40px;line-height:1.25;font-family:'.SF Compact Rounded';letter-spacing:0px;word-spacing:0px;fill:#000000;fill-opacity:1;stroke:none;-inkscape-font-specification:'.SF Compact Rounded';font-stretch:normal;font-variant:normal;"
   x="118.20111"
   y="88.819771"
   id="text24"><tspan
     sodipodi:role="line"
     id="tspan22"
     x="118.20111"
     y="124.2104" /></text>
<text
   xml:space="preserve"
   style="font-style:normal;font-weight:normal;font-size:40px;line-height:1.25;font-family:sans-serif;letter-spacing:0px;word-spacing:0px;fill:#000000;fill-opacity:1;stroke:none"
   x="116.20896"
   y="101.76877"
   id="text28"><tspan
     sodipodi:role="line"
     id="tspan26"
     x="116.20896"
     y="137.15939" /></text>
<text
   xml:space="preserve"
   style="font-style:normal;font-weight:normal;font-size:40px;line-height:1.25;font-family:sans-serif;letter-spacing:0px;word-spacing:0px;fill:#ffffff;fill-opacity:1;stroke:none;"
   x="112.55668"
   y="96.45636"
   id="text32"><tspan
     sodipodi:role="line"
     id="tspan30"
     x="112.55668"
     y="131.84698" /></text>
<text
   xml:space="preserve"
   style="font-style:normal;font-weight:normal;font-size:40px;line-height:1.25;font-family:sans-serif;letter-spacing:0px;word-spacing:0px;fill:#000000;fill-opacity:1;stroke:none"
   x="124.17757"
   y="120.03017"
   id="text841"><tspan
     sodipodi:role="line"
     id="tspan839"
     x="124.17757"
     y="155.42081"></tspan></text>
<text
   xml:space="preserve"
   style="font-style:normal;font-weight:normal;font-size:96px;line-height:1.25;font-family:sans-serif;letter-spacing:0px;word-spacing:0px;fill:#000000;fill-opacity:1;stroke:none;"
   x="109.90047"
   y="101.43674"
   id="text845"><tspan
     sodipodi:role="line"
     id="tspan843"
     x="109.90047"
     y="148.62424" /></text>
<text
   xml:space="preserve"
   style="font-style:normal;font-weight:normal;font-size:85.33333333px;line-height:1.25;font-family:sans-serif;letter-spacing:0px;word-spacing:0px;fill:#000000;fill-opacity:1;stroke:none;"
   x="111.02366"
   y="119.87599"
   id="text849"><tspan
     sodipodi:role="line"
     id="tspan847"
     x="111.02366"
     y="167.06349" /></text>
<text
   xml:space="preserve"
   style="font-style:normal;font-weight:normal;font-size:85.33333588px;line-height:1.25;font-family:sans-serif;letter-spacing:0px;word-spacing:0px;fill:#000000;fill-opacity:1;stroke:none"
   x="123.51352"
   y="118.70207"
   id="text853"><tspan
     sodipodi:role="line"
     id="tspan851"
     x="123.51352"
     y="194.20207" /></text>
<text
   xml:space="preserve"
   style="font-style:normal;font-weight:normal;font-size:85.33333588px;font-family:sans-serif;letter-spacing:0px;word-spacing:0px;fill:#000000;fill-opacity:1;stroke:none"
   x="115.87693"
   y="132.31512"
   id="text857"><tspan
     sodipodi:role="line"
     id="tspan855"
     x="115.87693"
     y="207.81512" /></text>
<text
   xml:space="preserve"
   style="font-style:normal;font-weight:normal;font-size:85.33333588px;line-height:1.25;font-family:sans-serif;letter-spacing:0px;word-spacing:0px;fill:#000000;fill-opacity:1;stroke:none"
   x="114.35867"
   y="138.25604"
   id="text861"><tspan
     sodipodi:role="line"
     id="tspan859"
     x="114.35867"
     y="213.75604" /></text>
<text
   xml:space="preserve"
   style="font-style:normal;font-weight:normal;font-size:85.33333588px;line-height:1.25;font-family:sans-serif;letter-spacing:0px;word-spacing:0px;fill:#000000;fill-opacity:1;stroke:none"
   x="109.90047"
   y="112.06156"
   id="text865"><tspan
     sodipodi:role="line"
     id="tspan863"
     x="109.90047"
     y="187.56157" /></text>
<text
   xml:space="preserve"
   style="font-style:normal;font-weight:normal;font-size:85.33333588px;line-height:1.25;font-family:sans-serif;letter-spacing:0px;word-spacing:0px;fill:#ffffff;fill-opacity:1;stroke:none"
   x="110.56038"
   y="127.18491"
   id="text869"><tspan
     sodipodi:role="line"
     id="tspan867"
     x="110.56038"
     y="127.18491"
     style="font-style:normal;font-variant:normal;font-weight:bold;font-stretch:normal;font-size:96px;font-family:'.SF Compact Rounded';-inkscape-font-specification:'.SF Compact Rounded Bold'">!</tspan></text>
</g>
</svg>