<?xml version="1.0" encoding="utf-8"?>
<!-- Generator: Adobe Illustrator 15.1.0, SVG Export Plug-In . SVG Version: 6.00 Build 0)  -->
<!DOCTYPE svg PUBLIC "-//W3C//DTD SVG 1.1//EN" "http://www.w3.org/Graphics/SVG/1.1/DTD/svg11.dtd">
<svg version="1.1" id="Layer_1" xmlns="http://www.w3.org/2000/svg" xmlns:xlink="http://www.w3.org/1999/xlink" x="0px" y="0px"
	 width="40.46px" height="40.46px" viewBox="0 0 40.46 40.46" enable-background="new 0 0 40.46 40.46" xml:space="preserve">
<radialGradient id="SVGID_1_" cx="20.2305" cy="20.2124" r="20.1273" fx="7.4027" fy="20.2998" gradientUnits="userSpaceOnUse">
	<stop  offset="0" style="stop-color:#FFFFFF"/>
	<stop  offset="0.65" style="stop-color:#D0D2D3"/>
	<stop  offset="1" style="stop-color:#D0D2D3"/>
</radialGradient>
<circle fill="url(#SVGID_1_)" cx="20.23" cy="20.211" r="19.729"/>
<radialGradient id="SVGID_2_" cx="20.231" cy="20.2124" r="19.7231" gradientUnits="userSpaceOnUse">
	<stop  offset="0" style="stop-color:#A5FE1E"/>
	<stop  offset="1" style="stop-color:#FFFFFF"/>
</radialGradient>
<circle opacity="0.4" fill="url(#SVGID_2_)" cx="20.231" cy="20.212" r="19.723"/>
<path fill="#A5FE1E" d="M20.23,0.501v19.708l0.001,0.002H20.23v0.02l-0.074-0.059L2.842,10.948C1.356,13.714,0.5,16.87,0.5,20.231
	c0,10.896,8.834,19.729,19.729,19.729s19.729-8.833,19.729-19.729C39.959,9.334,31.125,0.501,20.23,0.501z"/>
<radialGradient id="SVGID_3_" cx="-37.6118" cy="39.9155" r="7.4336" gradientTransform="matrix(1.64 -0.1612 0.0897 0.9132 77.2771 -34.5034)" gradientUnits="userSpaceOnUse">
	<stop  offset="0.25" style="stop-color:#FFFFFF"/>
	<stop  offset="1" style="stop-color:#FFFFFF;stop-opacity:0"/>
</radialGradient>
<path opacity="0.7" fill="url(#SVGID_3_)" d="M31.364,6.811c0.368,3.75-4.791,7.325-11.524,7.987S7.349,12.957,6.98,9.207
	c-0.368-3.749,4.792-7.324,11.525-7.986S30.995,3.062,31.364,6.811z"/>
<path fill="#58595B" d="M20.23,40.459C9.076,40.459,0,31.385,0,20.231S9.076,0.001,20.23,0.001s20.229,9.075,20.229,20.229
	S31.384,40.459,20.23,40.459z M20.23,1.001C9.626,1.001,1,9.627,1,20.231C1,30.833,9.626,39.459,20.23,39.459
	s19.229-8.626,19.229-19.229C39.459,9.627,30.833,1.001,20.23,1.001z"/>
<path fill="#231F20" d="M20.23,21.231c-0.162,0-0.324-0.039-0.472-0.119L7.57,14.6c-0.486-0.261-0.671-0.867-0.41-1.354
	c0.26-0.487,0.865-0.672,1.354-0.41l10.717,5.727v-8.248c0-0.552,0.447-1,1-1s1,0.448,1,1v9.916c0,0.352-0.185,0.677-0.485,0.857
	C20.586,21.183,20.408,21.231,20.23,21.231z"/>
<path fill="#231F20" d="M20.325,37.821h-0.124c-0.69,0-1.25-0.559-1.25-1.25c0-0.689,0.56-1.25,1.25-1.25h0.106
	c0.69,0,1.259,0.561,1.259,1.25C21.566,37.262,21.015,37.821,20.325,37.821z M12.104,35.676c-0.196,0-0.397-0.051-0.586-0.158
	l-0.131-0.075c-0.593-0.354-0.786-1.122-0.433-1.714c0.355-0.594,1.125-0.787,1.714-0.433c0.601,0.341,0.853,1.128,0.512,1.728
	C12.947,35.436,12.535,35.676,12.104,35.676z M28.38,35.651c-0.436,0-0.857-0.229-1.088-0.633c-0.341-0.602-0.131-1.364,0.47-1.705
	c0.592-0.354,1.403-0.184,1.756,0.408c0.354,0.593,0.202,1.336-0.391,1.69l-0.131,0.075C28.801,35.598,28.589,35.651,28.38,35.651z
	 M6.114,29.733c-0.433,0-0.854-0.225-1.084-0.626l-0.05-0.085c-0.356-0.592-0.166-1.359,0.425-1.717
	c0.592-0.355,1.36-0.165,1.716,0.426l0.075,0.129c0.345,0.599,0.139,1.363-0.46,1.707C6.54,29.68,6.326,29.733,6.114,29.733z
	 M34.378,29.68c-0.22,0-0.442-0.059-0.645-0.18c-0.591-0.356-0.781-1.125-0.425-1.717c0.34-0.6,1.126-0.85,1.727-0.51
	c0.601,0.342,0.834,1.064,0.493,1.665l-0.079,0.136C35.215,29.464,34.802,29.68,34.378,29.68z M3.872,21.573
	c-0.69,0-1.25-0.56-1.25-1.25v-0.034c0-0.69,0.56-1.295,1.25-1.295s1.25,0.515,1.25,1.205v0.124
	C5.122,21.013,4.562,21.573,3.872,21.573z M36.589,21.509c-0.69,0-1.25-0.56-1.25-1.25v-0.124c0-0.69,0.56-1.284,1.25-1.284
	s1.25,0.525,1.25,1.216v0.192C37.839,20.95,37.28,21.509,36.589,21.509z M6.001,13.381c-0.209,0-0.421-0.052-0.616-0.162
	c-0.601-0.341-0.811-1.104-0.47-1.705l0.065-0.113c0.343-0.6,1.108-0.805,1.706-0.461c0.599,0.345,0.805,1.109,0.46,1.707
	l-0.058,0.102C6.859,13.155,6.436,13.381,6.001,13.381z M34.394,13.268c-0.424,0-0.837-0.215-1.071-0.604l-0.075-0.129
	c-0.345-0.599-0.139-1.362,0.46-1.707c0.596-0.345,1.362-0.139,1.706,0.46l0.05,0.085c0.356,0.591,0.166,1.36-0.425,1.716
	C34.836,13.21,34.614,13.268,34.394,13.268z M11.995,7.311c-0.431,0-0.853-0.207-1.083-0.592c-0.354-0.593-0.201-1.336,0.392-1.69
	l0.13-0.076c0.603-0.342,1.362-0.13,1.704,0.47c0.341,0.601,0.131,1.364-0.47,1.704C12.459,7.25,12.226,7.311,11.995,7.311z
	 M28.402,7.288c-0.219,0-0.439-0.057-0.64-0.177C27.162,6.77,26.91,5.983,27.25,5.382c0.34-0.6,1.061-0.837,1.662-0.494l0.131,0.076
	c0.593,0.354,0.786,1.121,0.433,1.714C29.242,7.07,28.827,7.288,28.402,7.288z M20.129,2.603h0.097c0.69,0,1.25,0.56,1.25,1.25
	s-0.56,1.25-1.25,1.25h-0.124c-0.69,0-1.25-0.56-1.25-1.25s0.56-1.25,1.25-1.25"/>
</svg>
