<?xml version="1.0" encoding="utf-8"?>
<!-- Generator: Adobe Illustrator 15.1.0, SVG Export Plug-In . SVG Version: 6.00 Build 0)  -->
<!DOCTYPE svg PUBLIC "-//W3C//DTD SVG 1.1//EN" "http://www.w3.org/Graphics/SVG/1.1/DTD/svg11.dtd">
<svg version="1.1" id="Layer_1" xmlns="http://www.w3.org/2000/svg" xmlns:xlink="http://www.w3.org/1999/xlink" x="0px" y="0px"
	 width="40.46px" height="40.46px" viewBox="0 0 40.46 40.46" enable-background="new 0 0 40.46 40.46" xml:space="preserve">
<radialGradient id="SVGID_1_" cx="305.9995" cy="-354.9814" r="20.1273" fx="293.1717" fy="-354.894" gradientTransform="matrix(1 0 0 -1 -285.7695 -334.7705)" gradientUnits="userSpaceOnUse">
	<stop  offset="0" style="stop-color:#FFFFFF"/>
	<stop  offset="0.65" style="stop-color:#D0D2D3"/>
	<stop  offset="1" style="stop-color:#D0D2D3"/>
</radialGradient>
<circle fill="url(#SVGID_1_)" cx="20.23" cy="20.211" r="19.729"/>
<path fill="#EE413C" d="M37.013,9.896c-3.475-5.63-9.682-9.395-16.783-9.395v19.718L37.013,9.896z"/>
<radialGradient id="SVGID_2_" cx="305.9995" cy="-355.001" r="19.6838" gradientTransform="matrix(1 0 0 -1 -285.7695 -334.7705)" gradientUnits="userSpaceOnUse">
	<stop  offset="0" style="stop-color:#EE413C"/>
	<stop  offset="1" style="stop-color:#FFFFFF"/>
</radialGradient>
<circle opacity="0.4" fill="url(#SVGID_2_)" enable-background="new    " cx="20.23" cy="20.23" r="19.684"/>
<path fill="#58595B" d="M20.23,40.458c-11.154,0-20.229-9.074-20.229-20.229c0-11.154,9.074-20.229,20.229-20.229
	c11.154,0,20.229,9.075,20.229,20.229C40.458,31.384,31.384,40.458,20.23,40.458z M20.23,1.001C9.627,1.001,1.001,9.627,1.001,20.23
	c0,10.604,8.626,19.229,19.229,19.229c10.604,0,19.229-8.625,19.229-19.229C39.458,9.627,30.833,1.001,20.23,1.001z"/>
<radialGradient id="SVGID_3_" cx="-37.6118" cy="39.9155" r="7.4336" gradientTransform="matrix(1.64 -0.1612 0.0897 0.9132 77.2771 -34.5034)" gradientUnits="userSpaceOnUse">
	<stop  offset="0.25" style="stop-color:#FFFFFF"/>
	<stop  offset="1" style="stop-color:#FFFFFF;stop-opacity:0"/>
</radialGradient>
<path opacity="0.7" fill="url(#SVGID_3_)" d="M31.364,6.811c0.368,3.75-4.791,7.325-11.524,7.987S7.349,12.957,6.98,9.207
	c-0.368-3.749,4.792-7.324,11.525-7.986S30.995,3.062,31.364,6.811z"/>
<path fill="#231F20" d="M20.324,37.857h-0.123c-0.691,0-1.25-0.559-1.25-1.25c0-0.689,0.559-1.25,1.25-1.25h0.106
	c0.69,0,1.259,0.561,1.259,1.25C21.566,37.298,21.015,37.857,20.324,37.857z M12.125,35.716c-0.21,0-0.421-0.053-0.616-0.164
	l-0.125-0.07c-0.596-0.352-0.793-1.117-0.443-1.713c0.351-0.596,1.117-0.791,1.712-0.441l0.091,0.051
	c0.6,0.343,0.811,1.104,0.47,1.705C12.984,35.488,12.56,35.716,12.125,35.716z M28.39,35.685c-0.432,0-0.854-0.225-1.084-0.627
	c-0.344-0.598-0.139-1.363,0.46-1.707l0.097-0.055c0.594-0.351,1.36-0.152,1.711,0.44c0.35,0.597,0.152,1.361-0.443,1.714
	l-0.116,0.067C28.816,35.63,28.602,35.685,28.39,35.685z M6.097,29.761c-0.428,0-0.845-0.221-1.078-0.615l-0.068-0.119
	c-0.345-0.598-0.139-1.361,0.459-1.707c0.6-0.344,1.363-0.137,1.707,0.461l0.057,0.096c0.35,0.597,0.152,1.361-0.443,1.711
	C6.531,29.705,6.313,29.761,6.097,29.761z M34.395,29.707c-0.216,0-0.435-0.055-0.634-0.172c-0.596-0.352-0.793-1.117-0.442-1.713
	l0.052-0.09c0.342-0.602,1.105-0.813,1.705-0.471s0.812,1.104,0.469,1.705l-0.07,0.125C35.24,29.488,34.823,29.707,34.395,29.707z
	 M3.853,21.591c-0.691,0-1.25-0.559-1.25-1.25v-0.035c0-0.69,0.559-1.295,1.25-1.295c0.689,0,1.25,0.516,1.25,1.205v0.125
	C5.103,21.033,4.542,21.591,3.853,21.591z M37.858,20.141v0.094c0,0.688-0.56,1.271-1.25,1.271s-1.25-0.536-1.25-1.228v-0.124
	c0-0.69,0.56-1.284,1.25-1.284s1.249,0.524,1.249,1.215 M5.984,13.391c-0.209,0-0.421-0.052-0.615-0.162
	c-0.601-0.341-0.811-1.104-0.471-1.705l0.072-0.125c0.35-0.594,1.117-0.792,1.711-0.442c0.596,0.351,0.793,1.116,0.443,1.712
	l-0.053,0.09C6.842,13.164,6.419,13.391,5.984,13.391z M34.41,13.275c-0.432,0-0.853-0.225-1.084-0.626l-0.057-0.097
	c-0.35-0.594-0.152-1.36,0.443-1.711c0.595-0.35,1.36-0.152,1.711,0.443l0.068,0.117c0.346,0.599,0.139,1.363-0.459,1.707
	C34.835,13.223,34.623,13.275,34.41,13.275z M11.935,7.355c-0.428,0-0.845-0.22-1.078-0.616c-0.35-0.595-0.152-1.361,0.443-1.711
	l0.117-0.069c0.6-0.343,1.363-0.138,1.707,0.46c0.344,0.599,0.139,1.363-0.46,1.707l-0.097,0.056
	C12.369,7.299,12.151,7.355,11.935,7.355z M28.412,7.289c-0.217,0-0.435-0.056-0.634-0.173l-0.091-0.052
	c-0.6-0.34-0.811-1.104-0.471-1.704c0.342-0.6,1.104-0.81,1.705-0.47l0.125,0.072c0.596,0.351,0.793,1.117,0.442,1.711
	C29.255,7.069,28.839,7.289,28.412,7.289z M20.13,2.603h0.096c0.689,0,1.25,0.56,1.25,1.25s-0.561,1.25-1.25,1.25h-0.125
	c-0.689,0-1.25-0.56-1.25-1.25s0.561-1.25,1.25-1.25"/>
<path fill="#231F20" d="M20.23,21.23c-0.168,0-0.336-0.043-0.487-0.127c-0.316-0.178-0.513-0.511-0.513-0.873v-9.916
	c0-0.552,0.448-1,1-1c0.553,0,1,0.448,1,1v8.125l10.182-6.273c0.471-0.289,1.086-0.143,1.377,0.328
	c0.289,0.47,0.144,1.086-0.328,1.375l-11.705,7.212C20.594,21.179,20.413,21.23,20.23,21.23z"/>
</svg>
