<?xml version="1.0" encoding="utf-8"?>
<!-- Generator: Adobe Illustrator 15.1.0, SVG Export Plug-In . SVG Version: 6.00 Build 0)  -->
<!DOCTYPE svg PUBLIC "-//W3C//DTD SVG 1.1//EN" "http://www.w3.org/Graphics/SVG/1.1/DTD/svg11.dtd">
<svg version="1.1" id="Layer_1" xmlns="http://www.w3.org/2000/svg" xmlns:xlink="http://www.w3.org/1999/xlink" x="0px" y="0px"
	 width="40.46px" height="40.46px" viewBox="0 0 40.46 40.46" enable-background="new 0 0 40.46 40.46" xml:space="preserve">
<radialGradient id="SVGID_1_" cx="306.0015" cy="-354.9814" r="20.1269" fx="293.174" fy="-354.894" gradientTransform="matrix(1 0 0 -1 -285.7695 -334.7705)" gradientUnits="userSpaceOnUse">
	<stop  offset="0" style="stop-color:#FFFFFF"/>
	<stop  offset="0.65" style="stop-color:#D0D2D3"/>
	<stop  offset="1" style="stop-color:#D0D2D3"/>
</radialGradient>
<circle fill="url(#SVGID_1_)" cx="20.231" cy="20.211" r="19.729"/>
<path fill="#FDBD10" d="M20.23,0.924v38.613c10.662,0,19.307-8.645,19.307-19.307S30.892,0.924,20.23,0.924z"/>
<radialGradient id="SVGID_2_" cx="306.0015" cy="-354.9829" r="19.6799" gradientTransform="matrix(1 0 0 -1 -285.7695 -334.7705)" gradientUnits="userSpaceOnUse">
	<stop  offset="0" style="stop-color:#FDBD10"/>
	<stop  offset="1" style="stop-color:#FFFFFF"/>
</radialGradient>
<circle opacity="0.4" fill="url(#SVGID_2_)" enable-background="new    " cx="20.231" cy="20.212" r="19.68"/>
<path fill="#58595B" d="M20.23,40.458c-11.154,0-20.229-9.073-20.229-20.229c0-11.155,9.075-20.229,20.229-20.229
	c11.154,0,20.229,9.075,20.229,20.229C40.458,31.384,31.384,40.458,20.23,40.458z M20.23,1.001C9.627,1.001,1.001,9.627,1.001,20.23
	c0,10.604,8.626,19.229,19.229,19.229c10.604,0,19.229-8.625,19.229-19.229C39.458,9.627,30.833,1.001,20.23,1.001z"/>
<radialGradient id="SVGID_3_" cx="-37.6118" cy="39.9155" r="7.4336" gradientTransform="matrix(1.64 -0.1612 0.0897 0.9132 77.2771 -34.5034)" gradientUnits="userSpaceOnUse">
	<stop  offset="0.25" style="stop-color:#FFFFFF"/>
	<stop  offset="1" style="stop-color:#FFFFFF;stop-opacity:0"/>
</radialGradient>
<path opacity="0.7" fill="url(#SVGID_3_)" d="M31.364,6.811c0.368,3.75-4.791,7.325-11.524,7.987S7.349,12.957,6.98,9.207
	c-0.368-3.749,4.792-7.324,11.525-7.986S30.995,3.062,31.364,6.811z"/>
<path fill="#231F20" d="M20.23,34.937c-0.553,0-1-0.448-1-1V10.315c0-0.552,0.447-1,1-1s1,0.448,1,1v23.622
	C21.23,34.489,20.783,34.937,20.23,34.937z"/>
<path fill="#231F20" d="M20.325,37.821h-0.124c-0.69,0-1.25-0.559-1.25-1.25c0-0.688,0.56-1.25,1.25-1.25h0.107
	c0.689,0,1.258,0.562,1.258,1.25C21.566,37.262,21.015,37.821,20.325,37.821z M12.135,35.682c-0.21,0-0.421-0.054-0.616-0.163
	l-0.125-0.071c-0.596-0.352-0.793-1.116-0.443-1.712c0.352-0.595,1.117-0.792,1.712-0.441l0.091,0.052
	c0.6,0.341,0.811,1.104,0.47,1.704C12.994,35.455,12.57,35.682,12.135,35.682z M28.382,35.651c-0.435,0-0.854-0.226-1.086-0.627
	c-0.344-0.599-0.137-1.362,0.461-1.707l0.096-0.055c0.594-0.351,1.361-0.154,1.712,0.442c0.351,0.594,0.151,1.359-0.442,1.711
	l-0.117,0.068C28.808,35.597,28.593,35.651,28.382,35.651z M6.114,29.734c-0.429,0-0.845-0.22-1.078-0.615L4.967,29
	c-0.345-0.599-0.138-1.362,0.46-1.707c0.6-0.342,1.363-0.139,1.707,0.461L7.19,27.85c0.351,0.594,0.152,1.36-0.442,1.711
	C6.548,29.678,6.33,29.734,6.114,29.734z M34.378,29.68c-0.215,0-0.435-0.058-0.633-0.175c-0.596-0.35-0.793-1.115-0.442-1.711
	l0.052-0.09c0.342-0.602,1.105-0.812,1.705-0.471c0.6,0.34,0.811,1.104,0.469,1.704l-0.07,0.125
	C35.224,29.458,34.807,29.68,34.378,29.68z M3.872,21.574c-0.69,0-1.25-0.56-1.25-1.25v-0.035c0-0.69,0.56-1.295,1.25-1.295
	s1.25,0.515,1.25,1.206v0.124C5.122,21.014,4.562,21.574,3.872,21.574z M37.839,20.122v0.094c0,0.692-0.56,1.272-1.25,1.272
	c-0.689,0-1.25-0.537-1.25-1.229v-0.124c0-0.69,0.561-1.285,1.25-1.285s1.25,0.525,1.25,1.216 M6.001,13.382
	c-0.21,0-0.422-0.052-0.617-0.163c-0.6-0.34-0.811-1.104-0.469-1.704l0.071-0.125c0.351-0.596,1.118-0.792,1.712-0.442
	c0.595,0.35,0.793,1.116,0.442,1.711L7.089,12.75C6.859,13.155,6.436,13.382,6.001,13.382z M34.394,13.267
	c-0.432,0-0.854-0.225-1.084-0.626l-0.057-0.097c-0.351-0.595-0.151-1.36,0.442-1.712c0.595-0.348,1.361-0.152,1.712,0.443
	l0.068,0.117c0.345,0.6,0.138,1.363-0.46,1.707C34.82,13.213,34.606,13.267,34.394,13.267z M11.945,7.353
	c-0.428,0-0.846-0.22-1.078-0.616c-0.35-0.595-0.152-1.36,0.443-1.711l0.117-0.069c0.6-0.342,1.363-0.138,1.707,0.46
	c0.344,0.599,0.139,1.363-0.46,1.707L12.578,7.18C12.378,7.297,12.161,7.353,11.945,7.353z M28.402,7.287
	c-0.215,0-0.434-0.056-0.633-0.173l-0.091-0.052c-0.601-0.341-0.812-1.104-0.47-1.704c0.34-0.6,1.104-0.811,1.703-0.47l0.125,0.071
	c0.596,0.351,0.793,1.117,0.442,1.712C29.248,7.067,28.83,7.287,28.402,7.287z M20.13,2.603h0.096c0.689,0,1.25,0.56,1.25,1.25
	s-0.561,1.25-1.25,1.25h-0.124c-0.69,0-1.25-0.56-1.25-1.25s0.56-1.25,1.25-1.25"/>
</svg>
