<?xml version="1.0" encoding="utf-8"?>
<!-- Generator: Adobe Illustrator 15.1.0, SVG Export Plug-In . SVG Version: 6.00 Build 0)  -->
<!DOCTYPE svg PUBLIC "-//W3C//DTD SVG 1.1//EN" "http://www.w3.org/Graphics/SVG/1.1/DTD/svg11.dtd">
<svg version="1.1" id="Layer_1" xmlns="http://www.w3.org/2000/svg" xmlns:xlink="http://www.w3.org/1999/xlink" x="0px" y="0px"
	 width="40.46px" height="40.46px" viewBox="0 0 40.46 40.46" enable-background="new 0 0 40.46 40.46" xml:space="preserve">
<radialGradient id="SVGID_1_" cx="305.8081" cy="-354.9814" r="20.1263" fx="292.9809" fy="-354.894" gradientTransform="matrix(1 0 0 -1 -285.7695 -334.7705)" gradientUnits="userSpaceOnUse">
	<stop  offset="0" style="stop-color:#FFFFFF"/>
	<stop  offset="0.65" style="stop-color:#D0D2D3"/>
	<stop  offset="1" style="stop-color:#D0D2D3"/>
</radialGradient>
<circle fill="url(#SVGID_1_)" cx="20.038" cy="20.211" r="19.729"/>
<path fill="#F9EC31" d="M20.214,0.718l-0.071,19.619L2.752,29.41C6.028,35.677,12.58,39.96,20.143,39.96
	c10.837,0,19.622-8.785,19.622-19.623C39.765,9.524,31.018,0.757,20.214,0.718z"/>
<radialGradient id="SVGID_2_" cx="305.8081" cy="-354.9819" r="19.7502" gradientTransform="matrix(1 0 0 -1 -285.7695 -334.7705)" gradientUnits="userSpaceOnUse">
	<stop  offset="0" style="stop-color:#F9EC31"/>
	<stop  offset="1" style="stop-color:#FFFFFF"/>
</radialGradient>
<circle opacity="0.4" fill="url(#SVGID_2_)" enable-background="new    " cx="20.038" cy="20.212" r="19.751"/>
<path fill="#58595B" d="M20.231,40.458c-11.154,0-20.229-9.073-20.229-20.229c0-11.155,9.075-20.229,20.229-20.229
	c11.154,0,20.229,9.075,20.229,20.229C40.46,31.384,31.384,40.458,20.231,40.458z M20.231,1.001
	C9.627,1.001,1.002,9.627,1.002,20.23c0,10.604,8.626,19.229,19.229,19.229c10.603,0,19.229-8.625,19.229-19.229
	C39.458,9.627,30.833,1.001,20.231,1.001z"/>
<radialGradient id="SVGID_3_" cx="-37.6118" cy="39.9155" r="7.4336" gradientTransform="matrix(1.64 -0.1612 0.0897 0.9132 77.2771 -34.5034)" gradientUnits="userSpaceOnUse">
	<stop  offset="0.25" style="stop-color:#FFFFFF"/>
	<stop  offset="1" style="stop-color:#FFFFFF;stop-opacity:0"/>
</radialGradient>
<path opacity="0.7" fill="url(#SVGID_3_)" d="M31.364,6.811c0.368,3.75-4.791,7.325-11.524,7.987S7.349,12.957,6.98,9.207
	c-0.368-3.749,4.792-7.324,11.525-7.986S30.995,3.062,31.364,6.811z"/>
<path fill="#231F20" d="M8.043,27.65c-0.359,0-0.707-0.193-0.886-0.533c-0.257-0.488-0.069-1.095,0.419-1.352l11.654-6.138v-9.313
	c0-0.552,0.447-1,1-1s1,0.448,1,1v9.916c0,0.371-0.205,0.711-0.534,0.885l-12.188,6.42C8.36,27.613,8.2,27.65,8.043,27.65z"/>
<path fill="#231F20" d="M20.325,37.821H20.2c-0.689,0-1.25-0.559-1.25-1.25c0-0.688,0.561-1.25,1.25-1.25h0.107
	c0.69,0,1.259,0.562,1.259,1.25C21.566,37.262,21.014,37.821,20.325,37.821z M12.134,35.682c-0.21,0-0.421-0.054-0.616-0.163
	l-0.125-0.071c-0.596-0.352-0.793-1.116-0.443-1.712c0.351-0.595,1.117-0.792,1.712-0.441l0.091,0.052
	c0.6,0.341,0.811,1.104,0.47,1.704C12.993,35.455,12.569,35.682,12.134,35.682z M28.38,35.651c-0.437,0-0.857-0.229-1.088-0.633
	c-0.342-0.603-0.131-1.364,0.47-1.705c0.592-0.354,1.403-0.185,1.756,0.408c0.354,0.593,0.202,1.336-0.392,1.69l-0.131,0.074
	C28.8,35.598,28.589,35.651,28.38,35.651z M6.114,29.734c-0.428,0-0.846-0.22-1.078-0.615L4.967,29
	c-0.345-0.599-0.139-1.362,0.459-1.707c0.602-0.342,1.363-0.139,1.707,0.461L7.19,27.85c0.35,0.594,0.152,1.36-0.443,1.711
	C6.547,29.678,6.329,29.734,6.114,29.734z M34.378,29.68c-0.221,0-0.442-0.06-0.646-0.181c-0.591-0.355-0.78-1.125-0.425-1.717
	c0.34-0.6,1.126-0.85,1.727-0.51c0.602,0.342,0.834,1.064,0.493,1.665l-0.079,0.136C35.214,29.464,34.802,29.68,34.378,29.68z
	 M3.872,21.573c-0.691,0-1.25-0.559-1.25-1.25v-0.034c0-0.69,0.559-1.295,1.25-1.295c0.689,0,1.25,0.515,1.25,1.206v0.123
	C5.122,21.014,4.561,21.573,3.872,21.573z M36.589,21.509c-0.69,0-1.25-0.561-1.25-1.25v-0.124c0-0.69,0.56-1.284,1.25-1.284
	c0.689,0,1.25,0.524,1.25,1.216v0.192C37.839,20.951,37.28,21.509,36.589,21.509z M6,13.381c-0.209,0-0.422-0.052-0.616-0.162
	c-0.601-0.341-0.811-1.104-0.47-1.705l0.072-0.125c0.35-0.595,1.117-0.793,1.711-0.442c0.596,0.351,0.793,1.116,0.443,1.712
	l-0.053,0.09C6.858,13.155,6.436,13.381,6,13.381z M34.394,13.268c-0.424,0-0.837-0.215-1.071-0.604l-0.075-0.129
	c-0.345-0.599-0.139-1.362,0.461-1.707c0.596-0.345,1.361-0.139,1.705,0.46l0.051,0.085c0.355,0.591,0.166,1.36-0.426,1.716
	C34.835,13.21,34.614,13.268,34.394,13.268z M11.944,7.352c-0.428,0-0.844-0.22-1.078-0.615c-0.35-0.595-0.152-1.361,0.443-1.712
	l0.117-0.068c0.6-0.344,1.363-0.138,1.707,0.46c0.345,0.599,0.139,1.362-0.459,1.707L12.577,7.18
	C12.378,7.296,12.161,7.352,11.944,7.352z M28.402,7.288c-0.219,0-0.439-0.057-0.64-0.177C27.162,6.77,26.91,5.983,27.25,5.382
	c0.34-0.6,1.061-0.837,1.662-0.494l0.131,0.076c0.594,0.354,0.787,1.121,0.434,1.714C29.242,7.07,28.828,7.288,28.402,7.288z
	 M20.13,2.603h0.095c0.69,0,1.251,0.56,1.251,1.25s-0.561,1.25-1.251,1.25h-0.123c-0.691,0-1.25-0.56-1.25-1.25
	s0.559-1.25,1.25-1.25"/>
</svg>
