<?xml version="1.0" encoding="UTF-8" standalone="no"?>
<svg
   xmlns:dc="http://purl.org/dc/elements/1.1/"
   xmlns:cc="http://creativecommons.org/ns#"
   xmlns:rdf="http://www.w3.org/1999/02/22-rdf-syntax-ns#"
   xmlns:svg="http://www.w3.org/2000/svg"
   xmlns="http://www.w3.org/2000/svg"
   xmlns:sodipodi="http://sodipodi.sourceforge.net/DTD/sodipodi-0.dtd"
   xmlns:inkscape="http://www.inkscape.org/namespaces/inkscape"
   id="Layer_1"
   data-name="Layer 1"
   viewBox="0 0 511.99999 512.00001"
   version="1.1"
   sodipodi:docname="electron.svg"
   width="512"
   height="512"
   inkscape:version="0.92.4 5da689c313, 2019-01-14">
  <metadata
     id="metadata115">
    <rdf:RDF>
      <cc:Work
         rdf:about="">
        <dc:format>image/svg+xml</dc:format>
        <dc:type
           rdf:resource="http://purl.org/dc/dcmitype/StillImage" />
        <dc:title>4-bitcoin-cash-logo-flag</dc:title>
      </cc:Work>
    </rdf:RDF>
  </metadata>
  <sodipodi:namedview
     pagecolor="#ffffff"
     bordercolor="#666666"
     borderopacity="1"
     objecttolerance="10"
     gridtolerance="10"
     guidetolerance="10"
     inkscape:pageopacity="0"
     inkscape:pageshadow="2"
     inkscape:window-width="1920"
     inkscape:window-height="1003"
     id="namedview113"
     showgrid="false"
     units="px"
     inkscape:zoom="0.94707168"
     inkscape:cx="18.338465"
     inkscape:cy="187.20906"
     inkscape:window-x="0"
     inkscape:window-y="0"
     inkscape:window-maximized="1"
     inkscape:current-layer="Layer_1" />
  <defs
     id="defs100">
    <style
       id="style98">.cls-1{fill:#0056C0;}.cls-2{fill:#fff;}</style>
  </defs>
  <title
     id="title102">4-bitcoin-cash-logo-flag</title>
  <g
     id="g193"
     transform="matrix(0.53221623,0,0,0.53221623,1.748275e-6,141.6568)">
    <path
       style="fill:#4d4d4d"
       inkscape:connector-curvature="0"
       id="path104"
       d="m 689.315,512.00001 c 93.5,-65.6 154.6,-174.2 154.6,-297.106 0,-122.905998 -61.098,-231.606998 -154.6,-297.206998 h 272.7 V 512.00001 Z"
       class="cls-1" />
    <path
       style="fill:#4d4d4d"
       inkscape:connector-curvature="0"
       id="path106"
       d="m 118.4,214.79401 c 0,122.9 61.1,231.5 154.6,297.106 H 0 V -82.312988 h 273.006 c -93.506,65.6 -154.606,174.2 -154.606,297.106998 z"
       class="cls-1" />
    <circle
       style="fill:#4d4d4d"
       id="circle108"
       r="296.905"
       cy="214.65002"
       cx="481.01001"
       class="cls-1" />
    <path
       style="fill:#ffffff"
       inkscape:connector-curvature="0"
       id="path110"
       d="m 620.266,226.98701 -0.165,-0.307 -0.028,-0.051 c -0.1,-0.309 -0.175,-0.632 -0.289,-0.966 l -0.014,-0.026 -0.014,-0.026 -0.014,-0.026 -0.014,-0.026 -0.014,-0.026 -0.014,-0.026 -0.028,-0.051 a 60.65,60.65 0 0 0 -19.831,-29.671 l -0.014,-0.026 c -0.279,-0.213 -0.572,-0.451 -0.852,-0.663 l -0.386,-0.287 -0.279,-0.212 -0.12,-0.1 -0.266,-0.187 -0.12,-0.1 -0.266,-0.187 -0.12,-0.1 -0.279,-0.212 -0.146,-0.087 -0.279,-0.212 -0.146,-0.087 -0.3,-0.2 -0.146,-0.087 -0.177,-0.268 -0.159,-0.112 -0.3,-0.2 -0.159,-0.112 -0.305,-0.2 -0.159,-0.112 -0.3,-0.2 -0.159,-0.112 -0.319,-0.224 -0.159,-0.112 -0.344,-0.211 -0.159,-0.112 -0.344,-0.211 -0.159,-0.112 -0.344,-0.211 -0.159,-0.112 -0.344,-0.211 -0.185,-0.1 -0.344,-0.211 -0.185,-0.1 -0.37,-0.2 -0.185,-0.1 -0.384,-0.222 -0.185,-0.1 -0.384,-0.222 -0.185,-0.1 -0.384,-0.222 -0.2,-0.124 -0.384,-0.222 -0.2,-0.124 -0.409,-0.209 -0.2,-0.124 -0.409,-0.209 -0.277,-0.148 -0.014,-0.026 c -0.2,-0.124 -0.409,-0.209 -0.608,-0.333 a 84.659,84.659 0 0 0 -27.11,-8.566 75.8,75.8 0 0 0 7.263,-9.122 l 0.348,-0.517 0.026,-0.014 0.161,-0.252 0.211,-0.344 0.112,-0.159 0.211,-0.344 0.112,-0.159 0.211,-0.344 0.112,-0.159 0.211,-0.344 0.112,-0.159 0.211,-0.344 0.112,-0.159 0.185,-0.331 0.112,-0.159 0.185,-0.331 0.087,-0.146 0.185,-0.331 0.087,-0.146 0.185,-0.331 0.087,-0.146 0.159,-0.317 0.087,-0.146 0.159,-0.317 0.087,-0.146 0.159,-0.317 0.087,-0.146 0.172,-0.291 0.087,-0.146 0.173,-0.291 0.087,-0.146 0.148,-0.277 0.087,-0.146 0.148,-0.277 0.061,-0.132 0.148,-0.277 0.061,-0.132 0.148,-0.277 0.061,-0.132 0.148,-0.277 0.061,-0.132 0.122,-0.264 0.061,-0.132 0.122,-0.264 0.061,-0.132 0.122,-0.264 0.061,-0.132 0.134,-0.3 0.183,-0.4 c 0.134,-0.3 0.242,-0.592 0.376,-0.895 l 0.026,-0.014 a 53.867,53.867 0 0 0 2.737,-31.626 l -0.014,-0.026 -0.028,-0.051 -0.014,-0.026 -0.014,-0.026 -0.014,-0.026 -0.014,-0.026 -0.014,-0.026 -0.014,-0.026 c -0.061,-0.3 -0.122,-0.594 -0.208,-0.878 v -0.065 l -0.014,-0.026 -0.014,-0.026 -0.014,-0.026 0.014,0.026 -0.124,-0.23 c -0.09,-0.413 -0.181,-0.826 -0.311,-1.251 -0.09,-0.413 -0.22,-0.838 -0.336,-1.238 l -0.151,-0.281 -0.028,-0.051 c -0.087,-0.283 -0.173,-0.567 -0.26,-0.85 l -0.014,-0.026 -0.014,-0.026 -0.014,-0.026 -0.014,-0.026 -0.014,-0.026 -0.014,-0.026 -0.013,-0.026 A 53.88,53.88 0 0 0 557.02,93.747012 l -0.013,-0.026 c -0.24,-0.2 -0.506,-0.388 -0.746,-0.588 l -0.332,-0.25 -0.266,-0.187 -0.12,-0.1 -0.226,-0.175 -0.12,-0.1 -0.226,-0.175 -0.12,-0.1 -0.252,-0.161 -0.12,-0.1 -0.266,-0.187 -0.12,-0.1 -0.266,-0.187 -0.12,-0.1 -0.266,-0.187 -0.146,-0.087 -0.266,-0.187 -0.146,-0.087 -0.266,-0.187 -0.146,-0.087 -0.291,-0.173 -0.146,-0.087 -0.291,-0.173 -0.146,-0.087 -0.291,-0.173 -0.146,-0.087 -0.291,-0.173 -0.146,-0.087 -0.305,-0.2 -0.146,-0.087 -0.305,-0.2 -0.146,-0.087 -0.331,-0.185 -0.146,-0.087 -0.33,-0.185 -0.159,-0.112 -0.331,-0.185 -0.159,-0.112 -0.33,-0.185 -0.159,-0.112 -0.344,-0.211 -0.185,-0.1 -0.344,-0.211 -0.185,-0.1 -0.37,-0.2 -0.185,-0.1 -0.37,-0.2 -0.264,-0.122 -0.014,-0.026 -0.555,-0.3 c -16.214,-8.427 -36.813,-10.964 -57.538,-5.647 l -5.391,1.384 -13.636,-53.1 -31.6,8.1 13.591,52.89 -25.286,6.518 -13.6,-52.721 -31.6,8.1 13.591,52.889998 -65.167,16.769 8.671,33.7 26.258,-6.744 a 16.25,16.25 0 0 1 19.8,11.711 v 0 l 36.447,141.817 a 10.857,10.857 0 0 1 -7.8,13.206 l -23.008,5.919 1.352,40.08 65.09,-16.727 13.766,52.794 31.584,-8.127 -13.6,-52.916 25.278,-6.481 13.605,52.915 31.584,-8.127 -13.651,-53.122 c 5.352,-1.4 9.956,-2.588 13.141,-3.412 23.356,-6.007 42.243,-19.7 53.672,-36.775 l 0.386,-0.57 0.026,-0.014 0.187,-0.266 0.248,-0.4 0.124,-0.2 0.248,-0.4 0.124,-0.2 0.222,-0.384 0.124,-0.2 0.222,-0.384 0.1,-0.185 0.222,-0.384 0.1,-0.185 0.222,-0.384 0.1,-0.185 0.2,-0.37 0.1,-0.185 0.2,-0.37 0.1,-0.185 0.211,-0.344 0.1,-0.185 0.211,-0.344 0.1,-0.185 0.185,-0.331 0.1,-0.185 0.185,-0.33 0.1,-0.185 0.185,-0.33 0.073,-0.171 0.185,-0.33 0.073,-0.171 0.159,-0.317 0.087,-0.146 0.159,-0.317 0.087,-0.146 0.159,-0.317 0.087,-0.146 0.159,-0.317 0.087,-0.146 0.159,-0.317 0.087,-0.146 0.159,-0.317 0.087,-0.146 0.134,-0.3 0.087,-0.146 0.134,-0.3 0.061,-0.132 0.146,-0.342 0.2,-0.435 c 0.146,-0.342 0.3,-0.659 0.425,-0.988 l 0.012,-0.039 a 60.716,60.716 0 0 0 3.086,-35.574 l -0.014,-0.026 -0.014,-0.026 -0.014,-0.026 -0.014,-0.026 -0.014,-0.026 -0.014,-0.026 -0.014,-0.026 -0.014,-0.026 c -0.075,-0.323 -0.149,-0.645 -0.224,-0.968 v -0.065 l -0.014,-0.026 -0.014,-0.026 -0.014,-0.026 -0.014,-0.026 -0.014,-0.026 -0.014,-0.026 -0.014,-0.026 -0.014,-0.026 -0.014,-0.026 -0.014,-0.026 -0.014,-0.026 -0.014,-0.026 -0.014,-0.026 -0.055,-0.1 c -0.118,-0.464 -0.21,-0.942 -0.354,-1.393 -0.048,-0.269 -0.115,-0.761 -0.144,-1.301 z m -185.661,-94.871 c 5.391,-1.384 27.681,-6.982 35.031,-8.893 11.685,-2.991 23.2,-1.83 32.19,2.5 l 0.3,0.134 v 0 l 0.132,0.061 0.185,0.1 0.092,0.049 0.185,0.1 0.092,0.049 0.185,0.1 0.092,0.049 0.185,0.1 0.092,0.049 0.185,0.1 0.092,0.049 0.185,0.1 0.092,0.049 0.185,0.1 0.092,0.049 0.185,0.1 0.092,0.049 0.185,0.1 0.092,0.049 0.159,0.112 0.092,0.049 0.159,0.112 0.092,0.049 0.159,0.112 0.092,0.049 0.146,0.087 0.092,0.049 0.146,0.087 0.092,0.049 0.146,0.087 0.092,0.049 0.146,0.087 0.092,0.049 0.146,0.087 0.067,0.063 0.146,0.087 0.053,0.037 0.146,0.087 0.053,0.037 0.146,0.087 0.053,0.037 0.146,0.087 0.053,0.037 0.12,0.1 0.053,0.037 0.146,0.087 0.2,0.124 c 0.146,0.087 0.279,0.213 0.425,0.3 v 0 a 27.251,27.251 0 0 1 9.658,13.836 v 0 l 0.041,0.077 c 0.043,0.142 0.1,0.309 0.143,0.451 l 0.014,0.026 0.083,0.153 c 0.059,0.232 0.13,0.425 0.189,0.657 a 3.953,3.953 0 0 1 0.126,0.724 l 0.083,0.153 0.014,0.026 a 2.2,2.2 0 0 0 0.118,0.464 l 0.041,0.077 v 0 a 27.341,27.341 0 0 1 -1.8,16.768 v 0 l -0.207,0.474 -0.11,0.224 -0.087,0.146 -0.024,0.079 -0.061,0.132 -0.024,0.079 -0.087,0.146 -0.024,0.079 -0.087,0.146 -0.024,0.079 -0.087,0.146 -0.024,0.079 -0.087,0.146 -0.024,0.079 -0.087,0.146 -0.024,0.079 -0.087,0.146 -0.049,0.092 -0.087,0.146 -0.049,0.092 -0.087,0.146 -0.049,0.092 -0.087,0.146 -0.049,0.092 -0.112,0.159 -0.049,0.092 -0.112,0.159 -0.049,0.092 -0.112,0.159 -0.049,0.092 -0.112,0.159 -0.049,0.092 -0.112,0.159 -0.049,0.092 -0.112,0.159 -0.049,0.092 -0.112,0.159 -0.049,0.092 -0.112,0.159 -0.049,0.092 -0.138,0.173 -0.049,0.092 -0.138,0.173 -0.049,0.092 -0.138,0.173 -0.049,0.092 -0.138,0.173 -0.1,0.12 v 0 l -0.187,0.266 c -5.811,8.142 -15.334,14.72 -27.019,17.711 -7.364,1.886 -29.6,7.716 -34.986,9.1 z m 123.512,108.723 0.083,0.153 0.014,0.026 c 0.031,0.181 0.075,0.323 0.106,0.5 v 0 l 0.014,0.026 v 0 l 0.014,0.026 0.014,0.026 0.014,0.026 v 0 a 28.087,28.087 0 0 1 -2.541,18.324 v 0 l -0.283,0.515 -0.136,0.238 -0.1,0.185 -0.049,0.092 -0.087,0.146 -0.049,0.092 -0.087,0.146 -0.049,0.092 -0.112,0.159 -0.049,0.092 -0.112,0.159 -0.049,0.092 -0.112,0.159 -0.049,0.092 -0.112,0.159 -0.049,0.092 -0.112,0.159 -0.049,0.092 -0.112,0.159 -0.049,0.092 -0.112,0.159 -0.049,0.092 -0.112,0.159 -0.049,0.092 -0.112,0.159 -0.049,0.092 -0.138,0.173 -0.049,0.092 -0.138,0.173 -0.049,0.092 -0.124,0.2 -0.049,0.092 -0.124,0.2 -0.049,0.092 -0.124,0.2 -0.075,0.106 -0.124,0.2 -0.075,0.106 -0.15,0.212 -0.075,0.106 -0.15,0.212 -0.075,0.106 -0.15,0.212 -0.075,0.106 -0.151,0.212 -0.075,0.106 -0.15,0.212 -0.126,0.134 v 0 l -0.238,0.293 c -7.057,9.012 -18.44,16.425 -32.265,19.974 -8.719,2.251 -35.063,9.141 -41.473,10.777 l -17.935,-69.785 c 6.4,-1.662 32.814,-8.294 41.532,-10.545 13.826,-3.549 27.4,-2.542 37.891,1.938 l 0.342,0.146 v 0 l 0.171,0.073 0.25,0.1 0.118,0.035 0.224,0.11 0.118,0.035 0.224,0.11 0.118,0.035 0.224,0.11 0.092,0.049 0.224,0.11 0.092,0.049 0.224,0.11 0.092,0.049 0.224,0.11 0.092,0.049 0.185,0.1 0.092,0.049 0.185,0.1 0.092,0.049 0.185,0.1 0.092,0.049 0.185,0.1 0.092,0.049 0.185,0.1 0.092,0.049 0.185,0.1 0.092,0.049 0.185,0.1 0.092,0.049 0.185,0.1 0.092,0.049 0.185,0.1 0.092,0.049 0.159,0.112 0.092,0.049 0.159,0.112 0.092,0.049 0.159,0.112 0.092,0.049 0.159,0.112 0.092,0.049 0.159,0.112 0.092,0.049 0.146,0.087 0.092,0.049 0.159,0.112 0.212,0.15 c 0.159,0.112 0.344,0.211 0.5,0.323 v 0 a 28.172,28.172 0 0 1 11.053,14.834 v 0 l 0.055,0.1 c 0.057,0.167 0.1,0.309 0.157,0.476 l 0.014,0.026 0.083,0.153 c 0.059,0.232 0.118,0.464 0.191,0.722 0.129,0.057 0.15,0.342 0.109,0.694 z"
       class="cls-2" />
  </g>
</svg>
