<?xml version="1.0" encoding="UTF-8" standalone="no"?>
<svg
   xmlns:dc="http://purl.org/dc/elements/1.1/"
   xmlns:cc="http://creativecommons.org/ns#"
   xmlns:rdf="http://www.w3.org/1999/02/22-rdf-syntax-ns#"
   xmlns:svg="http://www.w3.org/2000/svg"
   xmlns="http://www.w3.org/2000/svg"
   id="Layer_1"
   data-name="Layer 1"
   viewBox="0 0 512 512"
   version="1.1"
   width="512"
   height="512">
  <metadata
     id="metadata115">
    <rdf:RDF>
      <cc:Work
         rdf:about="">
        <dc:format>image/svg+xml</dc:format>
        <dc:type
           rdf:resource="http://purl.org/dc/dcmitype/StillImage" />
        <dc:title>4-bitcoin-cash-logo-flag</dc:title>
      </cc:Work>
    </rdf:RDF>
  </metadata>
  <defs
     id="defs100">
    <style
       id="style98">.cls-1{fill:#0056C0;}.cls-2{fill:#fff;}</style>
  </defs>
  <title
     id="title102">4-bitcoin-cash-logo-flag</title>
  <g
     id="g2560">
    <path
       style="display:inline;fill:#4d4d4d;stroke-width:0.67824298"
       d="m 433.95312,116.85156 c 27.23983,39.61512 43.18555,87.61041 43.18555,139.31446 0,51.58063 -15.87115,99.44231 -42.99219,138.98242 H 512 V 116.85156 Z"
       id="path104" />
    <path
       style="display:inline;fill:#4d4d4d;stroke-width:0.67824298"
       d="M 0,116.85156 V 395.14844 H 78.105469 C 50.953951,355.59475 35.0625,307.70863 35.0625,256.09961 c 0,-51.69507 15.942982,-99.65686 43.175781,-139.24805 z"
       id="path106" />
    <circle
       class="cls-1"
       cx="256.00171"
       cy="256"
       r="194.82242"
       id="circle108"
       style="display:inline;fill:#4d4d4d;stroke-width:0.6561777" />
    <path
       class="cls-2"
       d="m 364.22228,265.62381 -0.12807,-0.23824 -0.0219,-0.0392 c -0.0776,-0.2398 -0.13579,-0.49043 -0.22426,-0.74962 l -0.009,-0.0204 -0.009,-0.0205 -0.009,-0.0204 -0.009,-0.0205 -0.009,-0.0204 -0.009,-0.0203 -0.0218,-0.0396 a 47.065879,47.065879 0 0 0 -15.38795,-23.0252 l -0.009,-0.0203 c -0.21653,-0.16531 -0.44389,-0.34997 -0.66121,-0.51451 l -0.29956,-0.22271 -0.21646,-0.16451 -0.0932,-0.0777 -0.20638,-0.14508 -0.0934,-0.0776 -0.2064,-0.14504 -0.0932,-0.0778 -0.21648,-0.16453 -0.11332,-0.0677 -0.21653,-0.16448 -0.11334,-0.0677 -0.23281,-0.15521 -0.11333,-0.0677 -0.13734,-0.20798 -0.12331,-0.0868 -0.23282,-0.15518 -0.12329,-0.0866 -0.23664,-0.15523 -0.12332,-0.0866 -0.23278,-0.15525 -0.12335,-0.0868 -0.24754,-0.17388 -0.12328,-0.0868 -0.267,-0.16372 -0.12331,-0.0869 -0.26692,-0.16372 -0.12334,-0.0868 -0.26694,-0.16376 -0.12331,-0.0867 -0.26692,-0.16374 -0.1437,-0.0776 -0.26689,-0.16376 -0.14362,-0.0774 -0.28715,-0.15518 -0.14363,-0.0775 -0.298,-0.17228 -0.14363,-0.0778 -0.29801,-0.17229 -0.14355,-0.0775 -0.29805,-0.17228 -0.1552,-0.0962 -0.29796,-0.17235 -0.15521,-0.0961 -0.3174,-0.16219 -0.15522,-0.0962 -0.31742,-0.16219 -0.21492,-0.11472 -0.009,-0.0205 c -0.15522,-0.0959 -0.31742,-0.16218 -0.47181,-0.25844 a 65.697445,65.697445 0 0 0 -21.03804,-6.64739 58.822651,58.822651 0 0 0 5.63626,-7.07889 l 0.27008,-0.4012 0.0204,-0.009 0.12494,-0.19561 0.16377,-0.26691 0.0868,-0.12333 0.16378,-0.26695 0.087,-0.12333 0.16374,-0.26692 0.0868,-0.12334 0.16375,-0.2669 0.0868,-0.12336 0.1637,-0.26695 0.0865,-0.12333 0.14359,-0.25679 0.0867,-0.12332 0.14361,-0.25689 0.0677,-0.11333 0.14363,-0.25685 0.0678,-0.11333 0.14365,-0.25686 0.0673,-0.11333 0.1233,-0.24599 0.0673,-0.11334 0.12326,-0.24596 0.0677,-0.11333 0.12331,-0.246 0.0673,-0.11334 0.13342,-0.22582 0.0677,-0.11334 0.13423,-0.22583 0.0675,-0.11334 0.11483,-0.215 0.0676,-0.11333 0.11484,-0.21493 0.0475,-0.10248 0.1146,-0.21499 0.0479,-0.10259 0.11484,-0.21496 0.0475,-0.10258 0.11471,-0.21498 0.0478,-0.10258 0.0947,-0.20486 0.0473,-0.10269 0.0945,-0.20487 0.0477,-0.10248 0.0947,-0.20483 0.0476,-0.10248 0.10384,-0.23286 0.14202,-0.31041 c 0.10384,-0.23277 0.18783,-0.45942 0.29178,-0.6945 l 0.0204,-0.009 a 41.802103,41.802103 0 0 0 2.12395,-24.54256 l -0.009,-0.0203 -0.0216,-0.0396 -0.009,-0.0203 -0.009,-0.0204 -0.009,-0.0203 -0.009,-0.0204 -0.009,-0.0204 -0.009,-0.0205 c -0.0477,-0.2328 -0.0949,-0.46093 -0.16136,-0.68133 v -0.0504 l -0.009,-0.0204 -0.009,-0.0204 -0.009,-0.0205 0.009,0.0205 -0.0963,-0.17845 c -0.07,-0.32047 -0.14038,-0.641 -0.2413,-0.97085 -0.07,-0.32048 -0.17077,-0.65029 -0.26074,-0.96068 l -0.11708,-0.21809 -0.0218,-0.0394 c -0.0678,-0.21958 -0.13425,-0.44 -0.20176,-0.65963 l -0.009,-0.0202 -0.009,-0.0204 -0.009,-0.0203 -0.009,-0.0204 -0.009,-0.0203 -0.009,-0.0205 -0.009,-0.0203 A 41.812193,41.812193 0 0 0 315.1866,162.23058 l -0.009,-0.0205 c -0.18625,-0.15519 -0.39271,-0.30112 -0.57894,-0.45628 l -0.25766,-0.19403 -0.20642,-0.14507 -0.0932,-0.0775 -0.17539,-0.13566 -0.0931,-0.0778 -0.17539,-0.13581 -0.0932,-0.0777 -0.19553,-0.12497 -0.0931,-0.0778 -0.20643,-0.14503 -0.0931,-0.0778 -0.20641,-0.14507 -0.093,-0.0776 -0.20642,-0.14506 -0.11332,-0.0676 -0.20639,-0.14508 -0.11333,-0.0677 -0.20646,-0.14516 -0.11333,-0.0675 -0.22581,-0.13428 -0.11333,-0.0678 -0.22586,-0.13433 -0.11332,-0.0675 -0.22588,-0.13428 -0.11333,-0.0677 -0.22583,-0.13432 -0.11333,-0.0676 -0.23668,-0.15519 -0.11334,-0.0677 -0.23669,-0.15518 -0.11334,-0.0675 -0.25685,-0.14367 -0.11333,-0.0677 -0.25608,-0.14362 -0.12334,-0.0869 -0.25681,-0.14358 -0.12333,-0.0867 -0.25609,-0.1436 -0.12333,-0.0867 -0.26694,-0.16373 -0.1436,-0.0775 -0.26696,-0.16372 -0.14362,-0.0776 -0.28711,-0.15521 -0.14366,-0.0776 -0.28713,-0.15517 -0.20485,-0.0946 -0.009,-0.0204 -0.4307,-0.2328 c -12.5825,-6.53956 -28.56779,-8.50834 -44.65093,-4.3822 l -4.18356,1.07401 -10.58186,-41.2069 -24.52231,6.28579 10.54694,41.0439 -19.6226,5.05814 -10.55391,-40.91278 -24.52236,6.28581 10.54694,41.04397 -50.57117,13.01313 6.7289,26.15202 20.37684,-5.2335 a 12.610396,12.610396 0 0 1 15.36532,9.08799 v 0 l 28.28373,110.05345 a 8.425298,8.425298 0 0 1 -6.05299,10.24823 l -17.85479,4.59324 1.04922,31.10307 50.5114,-12.98054 10.68275,40.96941 24.50995,-6.30675 -10.55392,-41.06415 19.61634,-5.02937 10.55781,41.06333 24.50996,-6.30673 -10.59353,-41.22396 c 4.15331,-1.08647 7.72616,-2.00837 10.19776,-2.64782 18.12483,-4.66158 32.78162,-15.28771 41.65081,-28.5383 l 0.29951,-0.44234 0.0205,-0.009 0.14506,-0.20642 0.19248,-0.31043 0.0962,-0.1552 0.19242,-0.31039 0.0959,-0.15521 0.1723,-0.29797 0.096,-0.15524 0.17233,-0.29801 0.0775,-0.14359 0.17231,-0.29798 0.0777,-0.14365 0.17227,-0.298 0.0775,-0.1436 0.15524,-0.28715 0.0776,-0.1436 0.1552,-0.28709 0.0774,-0.14367 0.16377,-0.26695 0.0779,-0.1436 0.16376,-0.26698 0.0777,-0.14359 0.14364,-0.25692 0.0777,-0.14363 0.14362,-0.25605 0.0776,-0.14363 0.14363,-0.25611 0.0568,-0.13277 0.14365,-0.25606 0.0568,-0.13277 0.12327,-0.24597 0.0675,-0.11332 0.12339,-0.24598 0.0673,-0.11332 0.1233,-0.24607 0.0675,-0.11321 0.12332,-0.24599 0.0673,-0.11333 0.12336,-0.24598 0.0677,-0.11332 0.12332,-0.24602 0.0677,-0.11332 0.10385,-0.23285 0.0677,-0.11333 0.10406,-0.23282 0.0477,-0.10248 0.11332,-0.26539 0.15523,-0.33753 c 0.11333,-0.2654 0.23278,-0.51143 0.32979,-0.7667 l 0.008,-0.0301 a 47.117097,47.117097 0 0 0 2.39637,-27.60558 l -0.009,-0.0204 -0.009,-0.0202 -0.009,-0.0204 -0.009,-0.0204 -0.009,-0.0203 -0.009,-0.0204 -0.009,-0.0203 -0.009,-0.0202 c -0.0583,-0.25066 -0.11576,-0.50055 -0.17384,-0.75116 v -0.0505 l -0.009,-0.0205 -0.009,-0.0204 -0.009,-0.0205 -0.009,-0.0202 -0.009,-0.0205 -0.009,-0.0204 -0.009,-0.0204 -0.009,-0.0205 -0.009,-0.0204 -0.009,-0.0205 -0.009,-0.0204 -0.009,-0.0204 -0.009,-0.0204 -0.043,-0.0776 c -0.0916,-0.36008 -0.16299,-0.73103 -0.27474,-1.08101 -0.0372,-0.20875 -0.0892,-0.59058 -0.11159,-1.0096 z m -144.0775,-73.62217 c 4.18358,-1.07401 21.48118,-5.41822 27.18494,-6.90116 9.06785,-2.32112 18.00377,-1.42016 24.98023,1.94 l 0.2328,0.10395 v 0 l 0.10248,0.0476 0.14362,0.0778 0.0712,0.0381 0.14358,0.0775 0.0714,0.0379 0.14366,0.0775 0.0715,0.0378 0.1436,0.0775 0.0715,0.0379 0.14359,0.0776 0.0716,0.0379 0.14361,0.0775 0.0714,0.0379 0.14362,0.0774 0.0714,0.0379 0.14357,0.0775 0.0716,0.0379 0.1436,0.0778 0.0715,0.0381 0.12326,0.0867 0.0712,0.0381 0.12332,0.0866 0.0715,0.0381 0.12331,0.0866 0.0714,0.0381 0.11334,0.0677 0.0713,0.0379 0.11333,0.0675 0.0714,0.0379 0.11333,0.0675 0.0713,0.038 0.11334,0.0675 0.0713,0.038 0.11333,0.0676 0.0519,0.0488 0.11334,0.0676 0.041,0.0286 0.11333,0.0677 0.0412,0.0287 0.11333,0.0674 0.0413,0.0284 0.11334,0.0677 0.041,0.0286 0.0931,0.0775 0.041,0.0284 0.11334,0.0674 0.15516,0.0962 c 0.11334,0.0677 0.21649,0.1653 0.32984,0.23282 v 0 a 21.147439,21.147439 0 0 1 7.49481,10.73704 v 0 l 0.0317,0.0598 c 0.0336,0.11025 0.0776,0.23976 0.1109,0.34997 l 0.009,0.0204 0.0645,0.1187 c 0.0458,0.18009 0.10091,0.32985 0.14668,0.50986 a 3.0676247,3.0676247 0 0 1 0.0977,0.56191 l 0.0643,0.11869 0.009,0.0205 a 1.7072534,1.7072537 0 0 0 0.0916,0.36004 l 0.0318,0.06 v 0 a 21.217283,21.217283 0 0 1 -1.39687,13.01234 v 0 l -0.16066,0.36786 -0.0853,0.17388 -0.0674,0.11334 -0.0186,0.0611 -0.0473,0.10258 -0.0186,0.0614 -0.0676,0.11332 -0.0186,0.061 -0.0675,0.11332 -0.0186,0.0613 -0.0675,0.11334 -0.0185,0.0612 -0.0677,0.11333 -0.0186,0.0613 -0.0673,0.11333 -0.0185,0.0613 -0.0677,0.11334 -0.0379,0.0717 -0.0675,0.11334 -0.0379,0.0717 -0.0677,0.11334 -0.0379,0.0714 -0.0677,0.11334 -0.0378,0.0713 -0.0868,0.12331 -0.0381,0.0714 -0.0866,0.12333 -0.0381,0.0714 -0.0868,0.12327 -0.0378,0.0715 -0.0871,0.12333 -0.0381,0.0716 -0.0868,0.12333 -0.0379,0.0714 -0.0866,0.12325 -0.0383,0.0717 -0.0866,0.1233 -0.0378,0.0714 -0.0867,0.12329 -0.0379,0.0716 -0.10716,0.13427 -0.0381,0.0719 -0.10694,0.13428 -0.038,0.0717 -0.10694,0.13423 -0.0379,0.0717 -0.10716,0.1343 -0.0774,0.0932 v 0 l -0.14507,0.2064 c -4.50947,6.31842 -11.89954,11.42312 -20.9674,13.74421 -5.71465,1.46353 -22.97035,5.98776 -27.14997,7.0618 z m 95.84833,84.37169 0.0645,0.11876 0.009,0.0202 c 0.0244,0.14044 0.0582,0.25067 0.082,0.38805 v 0 l 0.009,0.0202 v 0 l 0.009,0.0204 0.009,0.0203 0.009,0.0204 v 0 a 21.796196,21.796196 0 0 1 -1.97183,14.21989 v 0 l -0.21963,0.39965 -0.10552,0.18468 -0.0776,0.14363 -0.038,0.0717 -0.0675,0.11333 -0.0378,0.0713 -0.0677,0.11334 -0.0379,0.0716 -0.0868,0.12324 -0.038,0.0713 -0.0868,0.12333 -0.038,0.0714 -0.0868,0.12333 -0.038,0.0714 -0.0868,0.12331 -0.0378,0.0713 -0.0865,0.12332 -0.0378,0.0714 -0.0867,0.12329 -0.0379,0.0714 -0.0866,0.1233 -0.0379,0.0716 -0.0871,0.1233 -0.038,0.0715 -0.0867,0.12325 -0.0381,0.0717 -0.10705,0.13435 -0.0378,0.0714 -0.10716,0.13421 -0.038,0.0714 -0.0962,0.15517 -0.038,0.0715 -0.0962,0.15521 -0.0379,0.0716 -0.0962,0.15517 -0.0583,0.0824 -0.0962,0.1552 -0.0584,0.0824 -0.11635,0.16454 -0.0583,0.0822 -0.11636,0.16451 -0.0583,0.0821 -0.11639,0.1645 -0.0582,0.0824 -0.11706,0.16456 -0.0582,0.0824 -0.1163,0.16447 -0.0977,0.10374 v 0 l -0.18472,0.22736 c -5.47639,6.99357 -14.30987,12.74619 -25.03841,15.50034 -6.76611,1.74681 -27.2097,7.09363 -32.18408,8.36322 l -13.9203,-54.1572 c 4.9666,-1.28972 25.46453,-6.43636 32.22985,-8.18316 10.72936,-2.7541 21.2631,-1.97268 29.40436,1.50394 l 0.26542,0.11333 v 0 l 0.13271,0.0567 0.194,0.0773 0.0917,0.0273 0.17384,0.0852 0.0913,0.027 0.17378,0.0853 0.0918,0.0271 0.17383,0.0853 0.0714,0.0381 0.1739,0.0853 0.0714,0.0378 0.17384,0.0853 0.0713,0.0378 0.17388,0.0853 0.0714,0.038 0.14359,0.0778 0.0712,0.0379 0.14362,0.0777 0.0712,0.0379 0.14364,0.0774 0.0714,0.0381 0.14361,0.0776 0.0713,0.0383 0.14367,0.0776 0.0714,0.0379 0.1436,0.0775 0.0714,0.0376 0.14365,0.0776 0.0713,0.0383 0.14366,0.0776 0.0714,0.0383 0.14369,0.0775 0.0714,0.0381 0.12333,0.0869 0.0714,0.0379 0.12332,0.0866 0.0714,0.0381 0.12328,0.0866 0.0714,0.0379 0.12328,0.0866 0.0716,0.038 0.1233,0.0868 0.0714,0.0379 0.11334,0.0675 0.0714,0.038 0.1233,0.0868 0.16456,0.1164 c 0.12332,0.0866 0.26692,0.16376 0.38798,0.2507 v 0 a 21.862162,21.86216 0 0 1 8.57741,11.51151 v 0 l 0.0427,0.0776 c 0.0442,0.12964 0.0776,0.23981 0.12193,0.36943 l 0.009,0.0205 0.0645,0.11873 c 0.0459,0.18006 0.0918,0.36008 0.14824,0.56027 0.10007,0.0443 0.11637,0.26543 0.0846,0.53858 z"
       id="path110"
       style="display:inline;fill:#ffffff;stroke-width:0.7760244" />
  </g>
</svg>
