<?xml version="1.0" encoding="UTF-8" standalone="no"?>
<svg
   xmlns:dc="http://purl.org/dc/elements/1.1/"
   xmlns:cc="http://creativecommons.org/ns#"
   xmlns:rdf="http://www.w3.org/1999/02/22-rdf-syntax-ns#"
   xmlns:svg="http://www.w3.org/2000/svg"
   xmlns="http://www.w3.org/2000/svg"
   xmlns:sodipodi="http://sodipodi.sourceforge.net/DTD/sodipodi-0.dtd"
   xmlns:inkscape="http://www.inkscape.org/namespaces/inkscape"
   version="1.1"
   x="0px"
   y="0px"
   viewBox="0 0 128 128"
   enable-background="new 0 0 100 100"
   xml:space="preserve"
   id="svg8"
   sodipodi:docname="import.svg"
   width="128"
   height="128"
   inkscape:version="0.92.4 (5da689c313, 2019-01-14)"><metadata
     id="metadata14"><rdf:RDF><cc:Work
         rdf:about=""><dc:format>image/svg+xml</dc:format><dc:type
           rdf:resource="http://purl.org/dc/dcmitype/StillImage" /><dc:title></dc:title></cc:Work></rdf:RDF></metadata><defs
     id="defs12" /><sodipodi:namedview
     pagecolor="#ffffff"
     bordercolor="#666666"
     borderopacity="1"
     objecttolerance="10"
     gridtolerance="10"
     guidetolerance="10"
     inkscape:pageopacity="0"
     inkscape:pageshadow="2"
     inkscape:window-width="989"
     inkscape:window-height="689"
     id="namedview10"
     showgrid="false"
     inkscape:zoom="3.776"
     inkscape:cx="51.999332"
     inkscape:cy="60.495135"
     inkscape:window-x="0"
     inkscape:window-y="0"
     inkscape:window-maximized="0"
     inkscape:current-layer="svg8" /><path
     d="M 120,115.70297 C 120,118.05941 117.74713,120 115.0115,120 H 12.988506 C 10.252873,120 8,118.05941 8,115.70297 c 0,-2.35643 2.252873,-4.29703 4.988506,-4.29703 H 115.0115 c 2.73563,-0.13861 4.9885,1.80198 4.9885,4.29703 z M 64,8 c -2.735632,0 -4.988506,1.9405938 -4.988506,4.29703 V 82.019802 L 39.37931,65.247525 c -1.931034,-1.663366 -5.149424,-1.663366 -7.08046,0 -1.931033,1.663366 -1.931033,4.435644 0,6.09901 l 28.16092,24.257423 c 0.965518,0.83169 2.252872,1.247524 3.54023,1.247524 1.287358,0 2.574712,-0.415834 3.54023,-1.247524 L 95.70115,71.346535 c 1.93103,-1.663366 1.93103,-4.435644 0,-6.09901 -1.931036,-1.663366 -5.149426,-1.663366 -7.08046,0 L 68.988506,82.158416 V 12.29703 C 68.988506,9.9405938 66.735632,8 64,8 Z"
     id="path2"
     inkscape:connector-curvature="0"
     style="stroke-width:1.49350858"
     inkscape:label="path2" /></svg>