<?xml version="1.0" encoding="UTF-8"?>
<svg width="143pt" height="143pt" version="1.1" viewBox="0 0 143 143" xmlns="http://www.w3.org/2000/svg" xmlns:xlink="http://www.w3.org/1999/xlink"><defs><linearGradient id="a" x1="22.809" x2="120.92" y1="29.946" y2="119.21" gradientUnits="userSpaceOnUse"><stop stop-color="#0076bd" offset="0"/><stop stop-color="#9cdef9" offset="1"/></linearGradient></defs><g id="#0ca9e4ff" fill="url(#a)"><path d="m52.82 70.75c6.03-23.37 12.45-46.65 18.21-70.08 6.4 23.8 12.35 47.73 18.77 71.52 1.06 4.02 4.85 7.35 9.17 6.78 8.17-0.6 15.19-5.42 22.16-9.27-14.91 15.09-29.92 30.12-44.99 45.06-0.89-24.25-2.19-48.49-3.02-72.75-0.84-12.75-0.77-25.56-2.02-38.29-1.34 17.38-1.58 34.84-2.55 52.25-0.72 19.6-1.87 39.19-2.56 58.79-15.09-14.91-30.05-29.96-44.88-45.12 7.2 3.97 14.48 9.1 22.99 9.32 4.62 0.19 7.88-4.05 8.72-8.21z"/><path d="m18.49 34.41c10.95-14.21 27.9-23.48 45.73-25.33-1.03 3.83-2.09 7.66-2.97 11.53-13.81 2.72-26.64 10.46-34.94 21.9-8.32 11.18-12.2 25.6-10.47 39.44 1.81 15.98 11.01 30.91 24.42 39.77 13.18 8.96 30.3 11.65 45.63 7.36 14.18-3.87 26.59-13.66 33.73-26.5 7.32-12.93 9.12-28.87 4.72-43.08-5.69-19.69-23.14-35.14-43.27-38.8-0.97-3.88-2.01-7.75-2.98-11.63 14.97 1.6 29.37 8.3 40.03 18.95 10.77 10.57 17.75 24.92 19.35 39.92 1.94 16.05-2.3 32.75-11.63 45.95-10 14.31-25.78 24.48-43.02 27.41-18.02 3.2-37.31-1.25-51.88-12.38-17.14-12.62-27.08-33.84-26.79-55 0.75-14.19 5.47-28.31 14.34-39.51z"/></g></svg>
