<?xml version="1.0" encoding="UTF-8"?>
<svg width="65px" height="58px" viewBox="0 0 65 58" version="1.1" xmlns="http://www.w3.org/2000/svg" xmlns:xlink="http://www.w3.org/1999/xlink">
    <!-- Generator: Sketch 48.2 (47327) - http://www.bohemiancoding.com/sketch -->
    <title>preferences</title>
    <desc>Created with Sketch.</desc>
    <defs>
        <radialGradient cx="50.8522404%" cy="50.7800314%" fx="50.8522404%" fy="50.7800314%" r="49.9999973%" gradientTransform="translate(0.508522,0.507800),scale(0.375000,1.000000),translate(-0.508522,-0.507800)" id="radialGradient-1">
            <stop stop-color="#000000" offset="0%"></stop>
            <stop stop-color="#000000" stop-opacity="0" offset="100%"></stop>
        </radialGradient>
        <radialGradient cx="50.8522404%" cy="50.7800314%" fx="50.8522404%" fy="50.7800314%" r="49.9999973%" gradientTransform="translate(0.508522,0.507800),scale(0.250000,1.000000),translate(-0.508522,-0.507800)" id="radialGradient-2">
            <stop stop-color="#000000" offset="0%"></stop>
            <stop stop-color="#000000" stop-opacity="0" offset="100%"></stop>
        </radialGradient>
        <radialGradient cx="47.8723662%" cy="52.127653%" fx="47.8723662%" fy="52.127653%" r="50%" gradientTransform="translate(0.478724,0.521277),scale(1.000000,0.933333),translate(-0.478724,-0.521277)" id="radialGradient-3">
            <stop stop-color="#000000" offset="0%"></stop>
            <stop stop-color="#000000" stop-opacity="0" offset="100%"></stop>
        </radialGradient>
        <radialGradient cx="50.8522404%" cy="50.7800314%" fx="50.8522404%" fy="50.7800314%" r="49.9999973%" gradientTransform="translate(0.508522,0.507800),scale(0.370257,1.000000),translate(-0.508522,-0.507800)" id="radialGradient-4">
            <stop stop-color="#000000" offset="0%"></stop>
            <stop stop-color="#000000" stop-opacity="0" offset="100%"></stop>
        </radialGradient>
        <radialGradient cx="50.8522404%" cy="50.7800314%" fx="50.8522404%" fy="50.7800314%" r="49.9999973%" gradientTransform="translate(0.508522,0.507800),scale(0.341772,1.000000),translate(-0.508522,-0.507800)" id="radialGradient-5">
            <stop stop-color="#000000" offset="0%"></stop>
            <stop stop-color="#000000" stop-opacity="0" offset="100%"></stop>
        </radialGradient>
        <linearGradient x1="101.666667%" y1="34.0902378%" x2="-10.8333333%" y2="48.8392014%" id="linearGradient-6">
            <stop stop-color="#D3D7CF" offset="0%"></stop>
            <stop stop-color="#EEEEEC" offset="100%"></stop>
        </linearGradient>
        <linearGradient x1="101.742867%" y1="48.5472484%" x2="-14.596%" y2="86.9543188%" id="linearGradient-7">
            <stop stop-color="#888A85" offset="0%"></stop>
            <stop stop-color="#555753" offset="100%"></stop>
        </linearGradient>
        <linearGradient x1="93.9525643%" y1="10.7773571%" x2="-96.5508947%" y2="30.9363664%" id="linearGradient-8">
            <stop stop-color="#FFFFFF" offset="0%"></stop>
            <stop stop-color="#FFFFFF" stop-opacity="0" offset="100%"></stop>
        </linearGradient>
        <linearGradient x1="50%" y1="74.6964667%" x2="50%" y2="-7.7994%" id="linearGradient-9">
            <stop stop-color="#FFFFFF" offset="0%"></stop>
            <stop stop-color="#BABDB6" offset="100%"></stop>
        </linearGradient>
        <linearGradient x1="105.972429%" y1="51.6919457%" x2="-67.2924738%" y2="73.733115%" id="linearGradient-10">
            <stop stop-color="#2E3436" offset="0%"></stop>
            <stop stop-color="#729FCF" offset="100%"></stop>
        </linearGradient>
        <linearGradient x1="85.01795%" y1="89.8989641%" x2="40.2753836%" y2="4.30448829%" id="linearGradient-11">
            <stop stop-color="#FFFFFF" offset="0%"></stop>
            <stop stop-color="#FFFFFF" stop-opacity="0" offset="100%"></stop>
        </linearGradient>
        <linearGradient x1="77.3054547%" y1="100.007909%" x2="77.3054547%" y2="-0.0356748199%" id="linearGradient-12">
            <stop stop-color="#FFFFFF" offset="0%"></stop>
            <stop stop-color="#FFFFFF" stop-opacity="0" offset="100%"></stop>
        </linearGradient>
        <linearGradient x1="25.6064726%" y1="47.3058692%" x2="113.660896%" y2="47.4857326%" id="linearGradient-13">
            <stop stop-color="#729FCF" offset="0%"></stop>
            <stop stop-color="#295EAD" offset="100%"></stop>
        </linearGradient>
        <linearGradient x1="28.7163505%" y1="25.3195405%" x2="262.224158%" y2="101.155338%" id="linearGradient-14">
            <stop stop-color="#FFFFFF" offset="0%"></stop>
            <stop stop-color="#FFFFFF" stop-opacity="0" offset="100%"></stop>
        </linearGradient>
        <linearGradient x1="35.8085426%" y1="68.7022947%" x2="70.5079378%" y2="68.7022939%" id="linearGradient-15">
            <stop stop-color="#EEEEEC" offset="0%"></stop>
            <stop stop-color="#A2A298" offset="100%"></stop>
        </linearGradient>
        <linearGradient x1="123.776994%" y1="32.7870813%" x2="3.92040307%" y2="31.0067894%" id="linearGradient-16">
            <stop stop-color="#FFFFFF" offset="0%"></stop>
            <stop stop-color="#FFFFFF" stop-opacity="0.2937853" offset="100%"></stop>
        </linearGradient>
        <linearGradient x1="26.5626064%" y1="52.3437721%" x2="75.0001138%" y2="52.3437721%" id="linearGradient-17">
            <stop stop-color="#0C1D35" offset="0%"></stop>
            <stop stop-color="#FFFFFF" stop-opacity="0.2937853" offset="100%"></stop>
        </linearGradient>
        <linearGradient x1="15.2813007%" y1="49.4463807%" x2="156.178657%" y2="49.5274324%" id="linearGradient-18">
            <stop stop-color="#000000" offset="0%"></stop>
            <stop stop-color="#000000" stop-opacity="0" offset="100%"></stop>
        </linearGradient>
        <linearGradient x1="36.9127517%" y1="11.8628558%" x2="36.9127517%" y2="100.091777%" id="linearGradient-19">
            <stop stop-color="#EEEEEC" offset="0%"></stop>
            <stop stop-color="#EEEEEC" stop-opacity="0" offset="100%"></stop>
        </linearGradient>
    </defs>
    <g id="Page-1" stroke="none" stroke-width="1" fill="none" fill-rule="evenodd">
        <g id="preferences" transform="translate(0.000000, -5.000000)">
            <path d="M32,56 C32,59.3137085 24.836556,62 16,62 C7.163444,62 0,59.3137085 0,56 C2.23302027e-15,52.6862915 7.163444,50 16,50 C24.836556,50 32,52.6862915 32,56 Z" id="path5331" fill="url(#radialGradient-1)" fill-rule="nonzero" opacity="0.15"></path>
            <path d="M20,57.5 C20,58.3284271 17.3137085,59 14,59 C10.6862915,59 8,58.3284271 8,57.5 C8,56.6715729 10.6862915,56 14,56 C17.3137085,56 20,56.6715729 20,57.5 Z" id="path6769" fill="url(#radialGradient-2)" fill-rule="nonzero" opacity="0.2"></path>
            <polygon id="path6010" fill="url(#radialGradient-3)" fill-rule="nonzero" opacity="0.5" points="35.212766 26 25 36.9422492 28.787234 41 39 30.0577508"></polygon>
            <g id="g6807" transform="translate(1.000000, 0.000000)">
                <path d="M64.0000009,57.3914677 C64.0000009,60.4777943 57.2426389,62.9797564 48.9070104,62.9797564 C40.571382,62.9797564 33.81402,60.4777943 33.81402,57.3914677 C33.81402,54.305141 40.571382,51.8031789 48.9070104,51.8031789 C57.2426389,51.8031789 64.0000009,54.305141 64.0000009,57.3914677 Z" id="path6765" fill="url(#radialGradient-4)" fill-rule="nonzero" opacity="0.15"></path>
                <path d="M55.767443,58.1338964 C55.767443,59.2993492 53.0030684,60.2441353 49.5930396,60.2441353 C46.1830108,60.2441353 43.4186362,59.2993492 43.4186362,58.1338964 C43.4186362,56.9684437 46.1830108,56.0236575 49.5930396,56.0236575 C53.0030684,56.0236575 55.767443,56.9684437 55.767443,58.1338964 Z" id="path6773" fill="url(#radialGradient-5)" fill-rule="nonzero" opacity="0.2"></path>
                <g id="g6739" transform="translate(0.414395, 0.380927)">
                    <g id="g6553" transform="translate(32.313998, 32.549668) rotate(-45.000000) translate(-32.313998, -32.549668) translate(19.813998, 0.049668)">
                        <path d="M7.91902459,0.208613249 C3.73249445,1.84063973 0.791902459,5.56146505 0.791902459,9.88053946 C0.791902459,13.9197054 3.37119212,17.4277489 7.12712213,19.2007586 L7.12712213,59.6694034 C7.12712213,62.3972383 9.59944161,64.5932917 12.6704394,64.5932931 C15.7414371,64.5932931 18.2137566,62.3972369 18.2137566,59.6694034 L18.2137566,19.2007586 C21.9696866,17.4277489 24.5489762,13.9197054 24.5489762,9.88053946 C24.5489762,5.56146463 21.6083842,1.84063959 17.4218541,0.208613249 L17.4218541,8.56164043 L14.6996894,11.3752917 L10.6411893,11.3752917 L7.91902459,8.56164043 L7.91902459,0.208613249 Z" id="path6491" stroke="url(#linearGradient-7)" stroke-width="0.999999967" fill="url(#linearGradient-6)" fill-rule="nonzero" stroke-linecap="round" stroke-linejoin="round"></path>
                        <path d="M6.28572577,2.80244801 C3.94551938,4.4741578 2.42520128,7.0028056 2.42520128,9.88053946 C2.42520128,13.3789652 4.62096783,16.3923196 7.86953069,17.9258228 C8.41380367,18.1671778 8.75846021,18.6604095 8.76042096,19.2007586 L8.76042096,59.6694034 C8.76042096,61.6297586 10.463469,63.1425027 12.6704394,63.1425042 C14.8774082,63.1425042 16.5804577,61.6297572 16.5804577,59.6694034 L16.5804577,19.2007586 C16.5824185,18.6604095 16.927075,18.1671778 17.471348,17.9258228 C20.7199109,16.3923196 22.9156774,13.3789652 22.9156774,9.88053946 C22.9156774,7.00280518 21.3953593,4.47415766 19.0551529,2.80244801 L19.0551529,8.56164043 C19.0508276,8.90139206 18.9104628,9.2286771 18.6592017,9.48486975 L15.937037,12.298521 C15.633854,12.6295429 15.1800923,12.8230088 14.6996894,12.8260799 L10.6411893,12.8260799 C10.1607864,12.8230088 9.70702473,12.6295429 9.40384171,12.298521 L6.681677,9.48486975 C6.43041585,9.2286771 6.29005114,8.90139206 6.28572577,8.56164043 L6.28572577,2.80244801 Z" id="path6505" stroke="url(#linearGradient-8)" stroke-width="0.999999967" stroke-linecap="round"></path>
                        <path d="M15.0461467,59.6694028 C15.0461467,60.8348553 13.9825062,61.7796413 12.6704393,61.7796413 C11.3583723,61.7796413 10.2947319,60.8348553 10.2947319,59.6694028 C10.2947319,58.5039503 11.3583723,57.5591644 12.6704393,57.5591644 C13.9825062,57.5591644 15.0461467,58.5039503 15.0461467,59.6694028 Z" id="path6507" stroke="url(#linearGradient-9)" stroke-width="1.00000003" fill="#888A85" fill-rule="nonzero" stroke-linecap="round"></path>
                        <rect id="rect6533" fill="url(#linearGradient-10)" fill-rule="nonzero" opacity="0.23106061" transform="translate(12.670440, 37.984291) rotate(-0.021978) translate(-12.670440, -37.984291) " x="9.50845695" y="22.5093487" width="6.32396563" height="30.9498845" rx="1.7379364"></rect>
                    </g>
                    <path d="M14.5683675,8.6189139 L18.5401899,12.6912774 C18.77185,12.9342348 18.9115771,13.2538233 18.9343401,13.5927938 L19.2072137,17.2921162 C19.2497774,17.7166118 19.1052343,18.1384175 18.8130635,18.442327 L16.3268845,20.9914401 C16.0304781,21.2910053 15.6190862,21.4392088 15.2050722,21.3955676 L11.5970795,21.1157866 C11.2664778,21.0924459 10.9547808,20.9491833 10.7178217,20.7116591 L6.74599839,16.6392943" id="path6573" stroke="url(#linearGradient-11)" stroke-width="0.99999994" stroke-linecap="round"></path>
                    <path d="M15.590843,7.92780534 C14.7829341,7.92995061 13.9780561,8.0340602 13.1896802,8.23554844 L18.0348837,13.2034013 C18.1578562,13.3277267 18.23533,13.466541 18.2492733,13.6430343 L18.5494186,17.3359515 C18.5681312,17.5554346 18.4881505,17.7968641 18.3350291,17.9514377 L16.1482558,20.2375293 C19.1038526,20.9566901 21.518444,22.288809 24.6809593,20.5452724 C25.6838193,17.1845433 24.872804,13.356139 22.2797965,10.6974932 C20.4304497,8.80133205 18.0145713,7.92136967 15.590843,7.92780534 Z M6.37209302,15.2257131 C5.8316806,17.448627 6.0035782,19.8165227 6.97238372,21.9081347 C8.51841972,20.9492395 9.88560477,20.3959069 11.1315407,20.1056394 L6.37209302,15.2257131 Z" id="path6651" fill="url(#linearGradient-12)" fill-rule="nonzero" opacity="0.59051723"></path>
                </g>
            </g>
            <g id="g6432" transform="translate(31.207107, 32.914214) rotate(45.000000) translate(-31.207107, -32.914214) translate(21.207107, 0.914214)">
                <rect id="rect5288" stroke="#052F6C" stroke-width="1.00001243" fill="url(#linearGradient-13)" fill-rule="nonzero" stroke-linecap="round" stroke-linejoin="round" transform="translate(9.760408, 50.500000) rotate(0.154980) translate(-9.760408, -50.500000) " x="0.132674488" y="38" width="19.2554663" height="25" rx="4.0743828"></rect>
                <rect id="rect5292" stroke="url(#linearGradient-14)" stroke-width="1.0000165" opacity="0.5" stroke-linecap="round" stroke-linejoin="round" transform="translate(9.760408, 50.500000) rotate(0.166119) translate(-9.760408, -50.500000) " x="2.39802347" y="39" width="14.7247683" height="23" rx="3.0795631"></rect>
                <path d="M3.53069795,0 L4.31077687,7.07580302 L6.46694659,9.51457362 L6.45115079,40.3502441 C6.64391063,42.496064 12.6299619,42.6079975 13.0154838,40.3359534 L13.0701901,9.53218214 L15.2676867,7.67880788 L15.9901173,0.0207685984 C15.9901173,0.0207685984 3.53069795,0 3.53069795,0 Z" id="path5286" stroke="#888A85" stroke-width="1.00000027" fill="url(#linearGradient-15)" fill-rule="nonzero" stroke-linecap="round" stroke-linejoin="round"></path>
                <rect id="rect2804" fill="url(#linearGradient-16)" fill-rule="nonzero" opacity="0.3" transform="translate(4.097035, 51.500000) rotate(0.246341) translate(-4.097035, -51.500000) " x="2.39802347" y="44" width="3.39802347" height="15" rx="0.6661315"></rect>
                <rect id="rect5290" fill="url(#linearGradient-17)" fill-rule="nonzero" opacity="0.3" transform="translate(10.326745, 51.500000) rotate(0.206969) translate(-10.326745, -51.500000) " x="8.06139591" y="44" width="4.53069795" height="15" rx="1.3473127"></rect>
                <rect id="rect5398" fill="url(#linearGradient-18)" fill-rule="nonzero" opacity="0.25" transform="translate(15.423780, 51.500000) rotate(0.246342) translate(-15.423780, -51.500000) " x="13.7247683" y="44" width="3.39802347" height="15" rx="0.6661315"></rect>
                <path d="M4.66337244,0 L5.34753824,6.27272727 L7.40003564,8.59090909 C7.49268154,8.70209745 7.53985942,8.82747273 7.5368688,8.95454545 L11.9839465,9 C11.9739478,8.83750051 12.0462132,8.67746298 12.1891962,8.54545455 L14.173277,6.77272727 L14.8574428,0 C13.1394051,0 6.38141019,0 4.66337244,0 Z" id="path5450" fill="url(#linearGradient-19)" fill-rule="nonzero"></path>
            </g>
        </g>
    </g>
</svg>