<?xml version="1.0" encoding="UTF-8" standalone="no"?>
<svg
   xmlns:dc="http://purl.org/dc/elements/1.1/"
   xmlns:cc="http://creativecommons.org/ns#"
   xmlns:rdf="http://www.w3.org/1999/02/22-rdf-syntax-ns#"
   xmlns:svg="http://www.w3.org/2000/svg"
   xmlns="http://www.w3.org/2000/svg"
   xmlns:sodipodi="http://sodipodi.sourceforge.net/DTD/sodipodi-0.dtd"
   xmlns:inkscape="http://www.inkscape.org/namespaces/inkscape"
   width="270"
   height="270"
   version="1.1"
   id="svg3725"
   sodipodi:docname="qr_finder.svg"
   inkscape:version="0.92.4 (5da689c313, 2019-01-14)">
  <metadata
     id="metadata3731">
    <rdf:RDF>
      <cc:Work
         rdf:about="">
        <dc:format>image/svg+xml</dc:format>
        <dc:type
           rdf:resource="http://purl.org/dc/dcmitype/StillImage" />
        <dc:title></dc:title>
      </cc:Work>
    </rdf:RDF>
  </metadata>
  <defs
     id="defs3729" />
  <sodipodi:namedview
     pagecolor="#ffffff"
     bordercolor="#666666"
     borderopacity="1"
     objecttolerance="10"
     gridtolerance="10"
     guidetolerance="10"
     inkscape:pageopacity="0"
     inkscape:pageshadow="2"
     inkscape:window-width="3840"
     inkscape:window-height="2093"
     id="namedview3727"
     showgrid="false"
     inkscape:zoom="4.538861"
     inkscape:cx="119.23677"
     inkscape:cy="147.63528"
     inkscape:window-x="2391"
     inkscape:window-y="-9"
     inkscape:window-maximized="1"
     inkscape:current-layer="svg3725" />
  <rect
     id="rect169"
     width="270"
     height="270"
     x="0"
     y="0"
     style="fill:#fffffe;fill-opacity:1;stroke-width:0.99070013" />
  <path
     d="M 10,229.82759 V 199.65517 H 70.34483 V 260 H 10 Z m 51.72414,0 V 208.27586 H 18.62069 v 43.10345 h 43.10345 z m -34.48276,0 v -12.93104 h 25.86207 v 25.86207 H 27.24138 Z M 10,40.172412 V 10 H 70.34483 V 70.344829 H 10 Z m 51.72414,0 V 18.62069 H 18.62069 v 43.103446 h 43.10345 z m -34.48276,0 V 27.241377 h 25.86207 v 25.86207 H 27.24138 Z m 172.41379,0 V 10 H 260 v 60.344829 h -60.34483 z m 51.72414,0 V 18.62069 h -43.10345 v 43.103446 h 43.10345 z m -34.48276,0 V 27.241377 h 25.86207 v 25.86207 h -25.86207 z"
     id="path3723"
     inkscape:connector-curvature="0"
     sodipodi:nodetypes="cccccccccccccccccccccccccccccccccccccccccccccccccccccc"
     style="fill:#000000;fill-opacity:1;stroke:none;stroke-width:1.07758617;stroke-opacity:1" />
</svg>
