<?xml version="1.0" encoding="UTF-8" standalone="no"?>
<svg
   xmlns:dc="http://purl.org/dc/elements/1.1/"
   xmlns:cc="http://creativecommons.org/ns#"
   xmlns:rdf="http://www.w3.org/1999/02/22-rdf-syntax-ns#"
   xmlns:svg="http://www.w3.org/2000/svg"
   xmlns="http://www.w3.org/2000/svg"
   xmlns:sodipodi="http://sodipodi.sourceforge.net/DTD/sodipodi-0.dtd"
   xmlns:inkscape="http://www.inkscape.org/namespaces/inkscape"
   viewBox="0 0 128 128"
   enable-background="new 0 0 24 24"
   version="1.1"
   id="svg123"
   sodipodi:docname="save_dark_theme.svg"
   width="128"
   height="128"
   inkscape:version="0.92.4 (5da689c313, 2019-01-14)">
  <metadata
     id="metadata129">
    <rdf:RDF>
      <cc:Work
         rdf:about="">
        <dc:format>image/svg+xml</dc:format>
        <dc:type
           rdf:resource="http://purl.org/dc/dcmitype/StillImage" />
        <dc:title></dc:title>
      </cc:Work>
    </rdf:RDF>
  </metadata>
  <defs
     id="defs127" />
  <sodipodi:namedview
     pagecolor="#ffffff"
     bordercolor="#666666"
     borderopacity="1"
     objecttolerance="10"
     gridtolerance="10"
     guidetolerance="10"
     inkscape:pageopacity="0"
     inkscape:pageshadow="2"
     inkscape:window-width="1083"
     inkscape:window-height="735"
     id="namedview125"
     showgrid="false"
     inkscape:zoom="1.7383042"
     inkscape:cx="-108.52326"
     inkscape:cy="12"
     inkscape:window-x="0"
     inkscape:window-y="0"
     inkscape:window-maximized="0"
     inkscape:current-layer="svg123" />
  <path
     d="M 25.111111,14 C 19,14 14,19 14,25.111111 V 102.88889 C 14,109 19,114 25.111111,114 H 102.88889 C 109,114 114,109 114,102.88889 V 30.666666 L 97.333336,14 Z m 16.666667,5.555555 H 86.222222 V 47.333334 H 41.777778 Z m 27.777777,5.555556 V 41.777778 H 80.666666 V 25.111111 Z M 36.222222,64 h 55.555556 c 3.333331,0 5.555558,2.222222 5.555558,5.555555 V 97.33334 c 0,3.33332 -2.222227,5.55555 -5.555558,5.55555 H 36.222222 c -3.333333,0 -5.555556,-2.22223 -5.555556,-5.55555 V 69.555555 C 30.666666,66.222222 32.888889,64 36.222222,64 Z"
     id="path121"
     inkscape:connector-curvature="0"
     style="stroke-width:5.55555582;fill:#cccccc;fill-opacity:1" />
</svg>
