<?xml version="1.0" encoding="UTF-8" standalone="no"?>
<svg
   xmlns:dc="http://purl.org/dc/elements/1.1/"
   xmlns:cc="http://creativecommons.org/ns#"
   xmlns:rdf="http://www.w3.org/1999/02/22-rdf-syntax-ns#"
   xmlns:svg="http://www.w3.org/2000/svg"
   xmlns="http://www.w3.org/2000/svg"
   xmlns:xlink="http://www.w3.org/1999/xlink"
   xmlns:sodipodi="http://sodipodi.sourceforge.net/DTD/sodipodi-0.dtd"
   xmlns:inkscape="http://www.inkscape.org/namespaces/inkscape"
   width="512pt"
   height="512pt"
   viewBox="0 0 512 512"
   version="1.1"
   id="svg3290"
   sodipodi:docname="seal.svg"
   inkscape:version="0.92.4 (5da689c313, 2019-01-14)">
  <metadata
     id="metadata3296">
    <rdf:RDF>
      <cc:Work
         rdf:about="">
        <dc:format>image/svg+xml</dc:format>
        <dc:type
           rdf:resource="http://purl.org/dc/dcmitype/StillImage" />
      </cc:Work>
    </rdf:RDF>
  </metadata>
  <defs
     id="defs3294">
    <linearGradient
       inkscape:collect="always"
       id="linearGradient3853">
      <stop
         style="stop-color:#e24848;stop-opacity:1"
         offset="0"
         id="stop3849" />
      <stop
         style="stop-color:#bf2c2c;stop-opacity:1"
         offset="1"
         id="stop3851" />
    </linearGradient>
    <linearGradient
       inkscape:collect="always"
       xlink:href="#linearGradient3853"
       id="linearGradient3855"
       x1="132.12494"
       y1="70.651131"
       x2="362.40469"
       y2="400.58282"
       gradientUnits="userSpaceOnUse" />
  </defs>
  <sodipodi:namedview
     pagecolor="#ffffff"
     bordercolor="#666666"
     borderopacity="1"
     objecttolerance="10"
     gridtolerance="10"
     guidetolerance="10"
     inkscape:pageopacity="0"
     inkscape:pageshadow="2"
     inkscape:window-width="3840"
     inkscape:window-height="2093"
     id="namedview3292"
     showgrid="false"
     inkscape:zoom="0.9777961"
     inkscape:cx="1169.0668"
     inkscape:cy="222.4692"
     inkscape:window-x="2391"
     inkscape:window-y="-9"
     inkscape:window-maximized="1"
     inkscape:current-layer="svg3290" />
  <g
     id="#ff0000ff"
     style="fill-opacity:1;fill:url(#linearGradient3855)">
    <path
       fill="#ff0000"
       opacity="1.00"
       d=" M 304.44 1.84 C 310.45 10.37 316.50 18.88 322.70 27.29 C 331.11 21.44 339.54 15.62 348.07 9.93 C 352.02 19.50 355.33 29.31 359.18 38.92 C 368.80 35.58 378.41 32.22 388.02 28.83 C 389.35 39.05 390.28 49.32 391.41 59.57 C 401.62 58.87 411.85 58.25 422.09 57.92 C 420.54 67.91 418.95 77.89 417.15 87.83 C 427.17 89.93 437.22 91.90 447.22 94.13 C 443.02 103.57 438.59 112.91 434.74 122.50 C 444.12 126.41 453.16 131.08 462.29 135.55 C 455.84 143.65 449.13 151.53 442.79 159.71 C 450.58 166.38 458.19 173.26 466.14 179.75 C 457.55 185.56 449.13 191.60 440.86 197.84 C 446.64 206.36 452.30 214.96 457.94 223.57 C 448.24 226.87 438.81 230.93 429.11 234.21 C 432.59 244.01 435.79 253.90 439.11 263.75 C 428.86 264.49 418.62 265.26 408.42 266.38 C 409.00 276.65 409.66 286.92 410.10 297.20 C 400.10 295.67 390.11 294.04 380.17 292.14 C 378.07 302.16 376.10 312.22 373.87 322.22 C 364.57 318.22 355.35 314.02 346.16 309.76 C 341.50 318.95 336.98 328.22 332.22 337.36 C 324.36 330.75 316.53 324.11 308.37 317.88 C 301.74 325.71 294.98 333.42 288.36 341.25 C 282.60 332.77 276.53 324.52 270.58 316.18 C 261.85 321.77 253.23 327.52 244.46 333.05 C 241.20 323.46 237.53 314.00 233.85 304.56 C 224.14 307.49 214.63 311.05 204.98 314.19 C 203.66 304.10 202.66 293.98 201.81 283.85 C 191.45 283.94 181.15 284.98 170.85 285.93 C 172.38 275.68 174.08 265.45 176.00 255.27 C 165.90 253.31 155.82 251.18 145.65 249.60 C 149.75 240.06 154.31 230.73 158.24 221.13 C 149.20 216.45 139.93 212.24 130.74 207.88 C 137.10 199.64 143.94 191.77 150.25 183.50 C 142.18 177.10 134.53 170.20 126.86 163.34 C 135.29 157.56 143.59 151.60 152.00 145.78 C 146.41 137.13 140.71 128.55 135.04 119.96 C 144.46 116.25 153.97 112.79 163.34 108.96 C 160.37 99.27 157.00 89.71 153.88 80.07 C 163.93 78.76 174.02 77.78 184.11 76.84 C 184.03 66.52 183.45 56.19 182.13 45.95 C 192.35 47.48 202.56 49.12 212.70 51.13 C 214.60 41.03 216.68 30.96 218.89 20.91 C 228.16 25.12 237.44 29.32 246.85 33.23 C 251.43 24.17 255.98 15.11 260.40 5.97 C 268.41 12.33 276.34 18.80 284.21 25.33 C 291.21 17.72 297.93 9.87 304.44 1.84 M 284.44 50.56 C 256.10 53.24 228.70 66.40 209.16 87.16 C 184.90 111.44 171.88 146.73 175.25 180.97 C 177.64 225.64 207.94 266.92 249.16 283.85 C 295.17 304.39 353.27 291.23 386.57 253.60 C 400.92 237.58 411.22 217.91 415.74 196.86 C 423.88 158.05 412.02 115.29 383.82 87.18 C 358.73 60.53 320.86 46.51 284.44 50.56 Z"
       id="path3283"
       style="fill-opacity:1;fill:url(#linearGradient3855)" />
    <path
       fill="#ff0000"
       opacity="1.00"
       d=" M 292.41 78.42 C 326.85 76.58 361.33 95.92 377.82 126.19 C 396.94 159.32 392.51 204.36 366.63 232.66 C 343.88 260.25 303.99 271.41 270.02 260.92 C 234.84 251.08 207.39 218.39 203.96 181.97 C 199.02 146.76 217.77 110.17 248.03 92.03 C 261.23 83.50 276.88 79.54 292.41 78.42 Z"
       id="path3285"
       style="fill-opacity:1;fill:url(#linearGradient3855)" />
    <path
       fill="#ff0000"
       opacity="1.00"
       d=" M 44.88 406.79 C 82.27 363.24 119.97 319.95 157.82 276.80 C 156.45 284.91 155.09 293.02 153.86 301.15 C 165.52 300.82 177.13 299.78 188.76 298.93 C 189.60 310.64 190.98 322.30 192.07 333.98 C 203.22 330.23 214.20 325.91 225.53 322.70 C 229.32 333.60 233.60 344.31 237.50 355.17 C 247.34 348.81 257.06 342.26 266.91 335.90 C 273.75 345.35 280.44 354.90 287.53 364.18 C 295.02 355.39 302.65 346.72 310.22 338.01 C 319.45 345.34 328.33 353.11 337.72 360.25 C 341.78 409.55 347.06 458.74 351.11 508.05 C 331.11 497.30 310.90 486.93 291.04 475.93 C 287.24 474.04 282.65 470.71 278.35 473.33 C 256.58 484.88 235.01 496.84 213.03 508.00 C 217.33 462.21 221.86 416.43 225.68 370.60 C 202.30 409.31 179.91 448.62 156.90 487.55 C 145.41 463.99 133.91 440.43 121.99 417.09 C 96.24 414.05 70.49 410.82 44.88 406.79 Z"
       id="path3287"
       style="fill-opacity:1;fill:url(#linearGradient3855)" />
  </g>
</svg>
