<?xml version="1.0" encoding="UTF-8" standalone="no"?>
<svg
   xmlns:dc="http://purl.org/dc/elements/1.1/"
   xmlns:cc="http://creativecommons.org/ns#"
   xmlns:rdf="http://www.w3.org/1999/02/22-rdf-syntax-ns#"
   xmlns:svg="http://www.w3.org/2000/svg"
   xmlns="http://www.w3.org/2000/svg"
   xmlns:xlink="http://www.w3.org/1999/xlink"
   xmlns:sodipodi="http://sodipodi.sourceforge.net/DTD/sodipodi-0.dtd"
   xmlns:inkscape="http://www.inkscape.org/namespaces/inkscape"
   width="512pt"
   height="512pt"
   viewBox="0 0 512 512"
   version="1.1"
   id="svg3290"
   sodipodi:docname="seal.svg"
   inkscape:version="0.92.4 (5da689c313, 2019-01-14)">
  <metadata
     id="metadata3296">
    <rdf:RDF>
      <cc:Work
         rdf:about="">
        <dc:format>image/svg+xml</dc:format>
        <dc:type
           rdf:resource="http://purl.org/dc/dcmitype/StillImage" />
      </cc:Work>
    </rdf:RDF>
  </metadata>
  <defs
     id="defs3294">
    <linearGradient
       inkscape:collect="always"
       id="linearGradient3853">
      <stop
         style="stop-color:#e24848;stop-opacity:1"
         offset="0"
         id="stop3849" />
      <stop
         style="stop-color:#bf2c2c;stop-opacity:1"
         offset="1"
         id="stop3851" />
    </linearGradient>
    <linearGradient
       inkscape:collect="always"
       xlink:href="#linearGradient3853"
       id="linearGradient840"
       gradientUnits="userSpaceOnUse"
       x1="145.9315"
       y1="281.58469"
       x2="362.40469"
       y2="400.58282" />
    <linearGradient
       inkscape:collect="always"
       xlink:href="#linearGradient3853"
       id="linearGradient855"
       x1="182.13"
       y1="45.950001"
       x2="373.87"
       y2="322.22"
       gradientUnits="userSpaceOnUse" />
  </defs>
  <sodipodi:namedview
     pagecolor="#ffffff"
     bordercolor="#666666"
     borderopacity="1"
     objecttolerance="10"
     gridtolerance="10"
     guidetolerance="10"
     inkscape:pageopacity="0"
     inkscape:pageshadow="2"
     inkscape:window-width="2400"
     inkscape:window-height="1284"
     id="namedview3292"
     showgrid="false"
     inkscape:zoom="0.9777961"
     inkscape:cx="588.78277"
     inkscape:cy="288.24017"
     inkscape:window-x="2391"
     inkscape:window-y="-9"
     inkscape:window-maximized="1"
     inkscape:current-layer="svg3290" />
  <g
     id="g847"
     style="fill-opacity:1;fill:url(#linearGradient855)">
    <path
       d="m 304.44,1.84 c 6.01,8.53 12.06,17.04 18.26,25.45 8.41,-5.85 16.84,-11.67 25.37,-17.36 3.95,9.57 7.26,19.38 11.11,28.99 9.62,-3.34 19.23,-6.7 28.84,-10.09 1.33,10.22 2.26,20.49 3.39,30.74 10.21,-0.7 20.44,-1.32 30.68,-1.65 -1.55,9.99 -3.14,19.97 -4.94,29.91 10.02,2.1 20.07,4.07 30.07,6.3 -4.2,9.44 -8.63,18.78 -12.48,28.37 9.38,3.91 18.42,8.58 27.55,13.05 -6.45,8.1 -13.16,15.98 -19.5,24.16 7.79,6.67 15.4,13.55 23.35,20.04 -8.59,5.81 -17.01,11.85 -25.28,18.09 5.78,8.52 11.44,17.12 17.08,25.73 -9.7,3.3 -19.13,7.36 -28.83,10.64 3.48,9.8 6.68,19.69 10,29.54 -10.25,0.74 -20.49,1.51 -30.69,2.63 0.58,10.27 1.24,20.54 1.68,30.82 -10,-1.53 -19.99,-3.16 -29.93,-5.06 -2.1,10.02 -4.07,20.08 -6.3,30.08 -9.3,-4 -18.52,-8.2 -27.71,-12.46 -4.66,9.19 -9.18,18.46 -13.94,27.6 -7.86,-6.61 -15.69,-13.25 -23.85,-19.48 -6.63,7.83 -13.39,15.54 -20.01,23.37 -5.76,-8.48 -11.83,-16.73 -17.78,-25.07 -8.73,5.59 -17.35,11.34 -26.12,16.87 -3.26,-9.59 -6.93,-19.05 -10.61,-28.49 -9.71,2.93 -19.22,6.49 -28.87,9.63 -1.32,-10.09 -2.32,-20.21 -3.17,-30.34 -10.36,0.09 -20.66,1.13 -30.96,2.08 1.53,-10.25 3.23,-20.48 5.15,-30.66 -10.1,-1.96 -20.18,-4.09 -30.35,-5.67 4.1,-9.54 8.66,-18.87 12.59,-28.47 -9.04,-4.68 -18.31,-8.89 -27.5,-13.25 6.36,-8.24 13.2,-16.11 19.51,-24.38 -8.07,-6.4 -15.72,-13.3 -23.39,-20.16 8.43,-5.78 16.73,-11.74 25.14,-17.56 -5.59,-8.65 -11.29,-17.23 -16.96,-25.82 9.42,-3.71 18.93,-7.17 28.3,-11 -2.97,-9.69 -6.34,-19.25 -9.46,-28.89 10.05,-1.31 20.14,-2.29 30.23,-3.23 -0.08,-10.32 -0.66,-20.65 -1.98,-30.89 10.22,1.53 20.43,3.17 30.57,5.18 1.9,-10.1 3.98,-20.17 6.19,-30.22 9.27,4.21 18.55,8.41 27.96,12.32 4.58,-9.06 9.13,-18.12 13.55,-27.26 8.01,6.36 15.94,12.83 23.81,19.36 7,-7.61 13.72,-15.46 20.23,-23.49 m -20,48.72 c -28.34,2.68 -55.74,15.84 -75.28,36.6 -24.26,24.28 -37.28,59.57 -33.91,93.81 2.39,44.67 32.69,85.95 73.91,102.88 46.01,20.54 104.11,7.38 137.41,-30.25 14.35,-16.02 24.65,-35.69 29.17,-56.74 8.14,-38.81 -3.72,-81.57 -31.92,-109.68 C 358.73,60.53 320.86,46.51 284.44,50.56 Z"
       id="path3283"
       style="opacity:1;fill:url(#linearGradient855);fill-opacity:1.0"
       inkscape:connector-curvature="0" />
    <path
       d="m 292.41,78.42 c 34.44,-1.84 68.92,17.5 85.41,47.77 19.12,33.13 14.69,78.17 -11.19,106.47 -22.75,27.59 -62.64,38.75 -96.61,28.26 -35.18,-9.84 -62.63,-42.53 -66.06,-78.95 -4.94,-35.21 13.81,-71.8 44.07,-89.94 13.2,-8.53 28.85,-12.49 44.38,-13.61 z"
       id="path3285"
       style="opacity:1;fill:url(#linearGradient855);fill-opacity:1.0"
       inkscape:connector-curvature="0" />
  </g>
  <path
     inkscape:connector-curvature="0"
     style="opacity:1;fill:url(#linearGradient840);fill-opacity:1"
     id="path3287"
     d="m 44.88,406.79 c 37.39,-43.55 75.09,-86.84 112.94,-129.99 -1.37,8.11 -2.73,16.22 -3.96,24.35 11.66,-0.33 23.27,-1.37 34.9,-2.22 0.84,11.71 2.22,23.37 3.31,35.05 11.15,-3.75 22.13,-8.07 33.46,-11.28 3.79,10.9 8.07,21.61 11.97,32.47 9.84,-6.36 19.56,-12.91 29.41,-19.27 6.84,9.45 13.53,19 20.62,28.28 7.49,-8.79 15.12,-17.46 22.69,-26.17 9.23,7.33 18.11,15.1 27.5,22.24 4.06,49.3 9.34,98.49 13.39,147.8 -20,-10.75 -40.21,-21.12 -60.07,-32.12 -3.8,-1.89 -8.39,-5.22 -12.69,-2.6 -21.77,11.55 -43.34,23.51 -65.32,34.67 4.3,-45.79 8.83,-91.57 12.65,-137.4 -23.38,38.71 -45.77,78.02 -68.78,116.95 -11.49,-23.56 -22.99,-47.12 -34.91,-70.46 -25.75,-3.04 -51.5,-6.27 -77.11,-10.3 z" />
</svg>
