<svg xmlns="http://www.w3.org/2000/svg" xmlns:xlink="http://www.w3.org/1999/xlink" version="1.0" x="0px" y="0px" viewBox="0 0 100 125" enable-background="new 0 0 100 100" xml:space="preserve"><g><path d="M56.2,62.5c0-11.5-5.8-17.9-11.4-24.2c-4.3-4.8-8.5-9.4-10.5-16.6l5.8,5.1c0.9,0.8,2,1.2,3.1,1.2c1.3,0,2.6-0.5,3.6-1.6   c1.7-2,1.6-5-0.4-6.7L29.8,5.2c-0.9-0.8-2-1.2-3.1-1.2c-0.3,0-0.5,0-0.8,0.1c-1.4,0.2-2.6,1.1-3.4,2.3L12.5,24   c-1.3,2.3-0.5,5.2,1.8,6.5c0.7,0.4,1.5,0.6,2.3,0.6c1.7,0,3.3-0.9,4.1-2.4l3.7-6.5c2.5,10.7,8.3,17.1,13.2,22.5c5,5.5,9,9.9,9,17.8   v29c0,2.6,2.1,4.8,4.8,4.8c2.6,0,4.8-2.1,4.8-4.8V62.5z"/><path d="M90.6,35.6L78,19.2c-0.9-1.1-2.2-1.8-3.6-1.9c-1.4,0-2.8,0.5-3.7,1.6L56.9,34.6c-1.7,2-1.5,5,0.4,6.7c2,1.7,5,1.5,6.7-0.4   l5.5-6.3c-1.4,9.2-5.8,14.6-10.5,19.8c0.6,2.4,1,5.1,1,8v5.6c1.5-2.1,3.2-4.1,5.2-6.3C70.5,55.9,77,48.7,78.9,36l4.1,5.4   c0.9,1.2,2.3,1.9,3.8,1.9c1,0,2-0.3,2.9-1C91.8,40.6,92.2,37.7,90.6,35.6z"/></g><text x="0" y="115" fill="#000000" font-size="5px" font-weight="bold" font-family="'Helvetica Neue', Helvetica, Arial-Unicode, Arial, Sans-serif">Created by Nick Bluth</text><text x="0" y="120" fill="#000000" font-size="5px" font-weight="bold" font-family="'Helvetica Neue', Helvetica, Arial-Unicode, Arial, Sans-serif">from the Noun Project</text></svg>