<?xml version="1.0" encoding="UTF-8" standalone="no"?>
<svg
   xmlns:dc="http://purl.org/dc/elements/1.1/"
   xmlns:cc="http://creativecommons.org/ns#"
   xmlns:rdf="http://www.w3.org/1999/02/22-rdf-syntax-ns#"
   xmlns:svg="http://www.w3.org/2000/svg"
   xmlns="http://www.w3.org/2000/svg"
   xmlns:sodipodi="http://sodipodi.sourceforge.net/DTD/sodipodi-0.dtd"
   xmlns:inkscape="http://www.inkscape.org/namespaces/inkscape"
   id="a5dc4270-06a2-4ef5-9d68-96cca65c057c"
   data-name="Layer 1"
   viewBox="0 0 256 256"
   version="1.1"
   sodipodi:docname="tab_converter.svg"
   inkscape:version="0.92.4 (5da689c313, 2019-01-14)">
  <metadata
     id="metadata47">
    <rdf:RDF>
      <cc:Work
         rdf:about="">
        <dc:format>image/svg+xml</dc:format>
        <dc:type
           rdf:resource="http://purl.org/dc/dcmitype/StillImage" />
      </cc:Work>
    </rdf:RDF>
  </metadata>
  <sodipodi:namedview
     pagecolor="#ffffff"
     bordercolor="#666666"
     borderopacity="1"
     objecttolerance="10"
     gridtolerance="10"
     guidetolerance="10"
     inkscape:pageopacity="0"
     inkscape:pageshadow="2"
     inkscape:window-width="1180"
     inkscape:window-height="753"
     id="namedview45"
     showgrid="false"
     inkscape:zoom="1.84375"
     inkscape:cx="110.64407"
     inkscape:cy="128"
     inkscape:window-x="0"
     inkscape:window-y="0"
     inkscape:window-maximized="0"
     inkscape:current-layer="a5dc4270-06a2-4ef5-9d68-96cca65c057c" />
  <defs
     id="defs9">
    <style
       id="style2">.b743d51b-5f45-43ce-a2e3-63f6a8ebdbb1{fill:#283996;}.f7819f2c-cf76-46f6-af2f-61b85c26547a{fill:#2b2f83;}.eb115cac-7054-4299-9db9-17ca8bc49cc9{fill:#2d2871;}.b8c0e245-f7ee-462b-b267-7ec3d4df2d5d{fill:#ccc;}.a585e440-02ed-4cd6-99aa-9eddfe3b64d6{fill:#f9f9f9;}.feebc8bb-fb88-44a7-9444-a806e1e6a928{fill:#f2f2f2;}.b20664df-8d6c-41e1-9f98-00e0676416d2{fill:#020202;}.a61e32d7-ba65-44f1-a0f5-f7f2542ef93a{fill:#ebf0f2;}.b3d01f7e-69b1-49f3-bb38-5f047c94140c{opacity:0.64;isolation:isolate;fill:url(#bd6aca50-a75b-4206-96e0-657cd4f67850);}.a4fdf0c2-4094-412e-81b0-e5b57cc803ce{fill-opacity:0.05;}.abecb7c7-2367-4ade-b031-5b175c388474{fill:#40bdf4;}.be6eceb8-d995-402a-bc0a-30bbc6e6839e{fill:#2e599c;}.fd06155a-1f77-4d86-ac61-d1d1d8479c19{fill:#7ec3ec;}.b4c872e2-a570-42ec-be9b-abf953a7f686{fill:#ace0f3;}.a1ab1c70-5190-4d72-855c-db80227623e6{fill:#4e96dd;}</style>
    <radialGradient
       id="bd6aca50-a75b-4206-96e0-657cd4f67850"
       cx="-554.13"
       cy="482.57"
       r="5.4"
       gradientTransform="matrix(-35.85, 5.08, -2.53, -17.91, -18555.39, 11512.67)"
       gradientUnits="userSpaceOnUse">
      <stop
         offset="0"
         stop-color="#fff"
         id="stop4" />
      <stop
         offset="1"
         stop-color="#fff"
         stop-opacity="0"
         id="stop6" />
    </radialGradient>
  </defs>
  <title
     id="title11">Cash Addr Final Blue</title>
  <path
     id="f3096610-0a9b-4cd8-9978-98384fe952c8"
     data-name="Back"
     class="b743d51b-5f45-43ce-a2e3-63f6a8ebdbb1"
     d="m 72.3,8 h 51 a 22,22 0 0 1 21.46,19.73 L 162.3,228.27 A 22,22 0 0 0 183.7,248 H 132.75 A 22,22 0 0 1 111.29,228.27 L 93.75,27.73 A 22,22 0 0 0 72.3,8 Z"
     inkscape:connector-curvature="0"
     style="display:inline;fill:#283996" />
  <path
     id="fbb771cb-517e-4dc7-a34c-cbeee455f000"
     data-name="Shadow Back 2"
     class="f7819f2c-cf76-46f6-af2f-61b85c26547a"
     d="m 93.75,27.73 17.54,200.54 c 0,0.25 0.07,0.49 0.1,0.73 h 51 c 0,-0.24 -0.08,-0.48 -0.1,-0.73 L 144.71,27.73 c 0,-0.25 -0.07,-0.49 -0.1,-0.73 h -51 c 0.07,0.24 0.12,0.48 0.14,0.73 z"
     inkscape:connector-curvature="0"
     style="display:inline;fill:#2b2f83" />
  <g
     id="a35e4b24-d92b-44a4-92ab-ea2768bc4251"
     data-name="QR"
     style="display:inline">
    <rect
       id="bea88864-998d-421f-ac43-6b9b9a67ef27"
       data-name="QR6"
       class="b8c0e245-f7ee-462b-b267-7ec3d4df2d5d"
       x="35"
       y="35"
       width="186"
       height="186"
       rx="16"
       transform="rotate(90,128,128)"
       style="fill:#cccccc" />
    <rect
       id="a18dfb44-4814-4c58-a46e-1efd540c3da3"
       data-name="QR5"
       class="a585e440-02ed-4cd6-99aa-9eddfe3b64d6"
       x="43"
       y="43"
       width="170"
       height="170"
       rx="8"
       style="fill:#f9f9f9" />
    <rect
       id="e13cba9c-7bab-4f34-9b43-4615df73cfaf"
       data-name="QR4"
       class="feebc8bb-fb88-44a7-9444-a806e1e6a928"
       x="51"
       y="51"
       width="154"
       height="154"
       transform="rotate(90,128,128)"
       style="fill:#f2f2f2" />
    <rect
       id="bce50cef-dff3-4dba-8f3d-5217e2cc3c05"
       data-name="QR3"
       class="b20664df-8d6c-41e1-9f98-00e0676416d2"
       x="63"
       y="63"
       width="130"
       height="130"
       rx="10"
       transform="rotate(90,128,128)"
       style="fill:#020202" />
    <rect
       id="a33d7262-5d45-44b1-a5c1-e8fa87d7f5be"
       data-name="QR2"
       class="a61e32d7-ba65-44f1-a0f5-f7f2542ef93a"
       x="73"
       y="73"
       width="110"
       height="110"
       transform="rotate(90,128,128)"
       style="fill:#ebf0f2" />
    <rect
       id="f3c0e034-54f1-4196-be6c-193c6bf9dafb"
       data-name="QR1"
       class="b20664df-8d6c-41e1-9f98-00e0676416d2"
       x="93"
       y="93"
       width="70"
       height="70"
       transform="rotate(90,128,128)"
       style="fill:#020202" />
  </g>
  <path
     id="b4895472-0d86-49c0-863e-d0f6ecc7bbf5"
     data-name="Bright"
     class="b3d01f7e-69b1-49f3-bb38-5f047c94140c"
     d="m 61,73 v 110 a 12,12 0 0 0 12,12 h 110 a 12,12 0 0 0 12,-12 V 73 A 12,12 0 0 0 183,61 H 73 A 12,12 0 0 0 61,73 Z"
     inkscape:connector-curvature="0"
     style="display:inline;opacity:0.63999999;isolation:isolate;fill:url(#bd6aca50-a75b-4206-96e0-657cd4f67850)" />
  <path
     id="a5450d5f-b68f-4967-9926-50b993dddac1"
     data-name="Shadow Up Back"
     class="a4fdf0c2-4094-412e-81b0-e5b57cc803ce"
     d="M 73.09,8 A 22,22 0 0 1 93.75,27.73 L 94.38,35 H 51 a 15.75,15.75 0 0 0 -4.37,0.62 L 35,68.34 v 88.13 L 99,87.85 109.62,76.47 H 83.07 l 12,-33.74 3.2,-9 C 102.13,22.83 114.11,14 125,14 h 12.93 a 22.24,22.24 0 0 0 -4.88,-3.51 v 0 c -0.55,-0.3 -1.12,-0.56 -1.7,-0.81 l -0.13,-0.06 q -0.81,-0.33 -1.65,-0.6 l -0.26,-0.09 c -0.52,-0.16 -1,-0.29 -1.58,-0.41 l -0.39,-0.1 c -0.51,-0.1 -1,-0.17 -1.56,-0.24 -0.15,0 -0.3,-0.05 -0.46,-0.06 a 19.81,19.81 0 0 0 -2,-0.11 H 72.3 c 0.26,0 0.52,0 0.79,0 z"
     inkscape:connector-curvature="0"
     style="display:inline;fill-opacity:0.05" />
  <path
     id="fb049fd2-2471-44e9-b480-fa7c7df90fdf"
     data-name="Arrow Up"
     class="abecb7c7-2367-4ade-b031-5b175c388474"
     d="M 92.26,27.73 C 96.13,16.83 108.11,8 119,8 H 68 C 57.15,8 45.18,16.83 41.3,27.73 L 26.11,70.47 H 10.5 l 15.79,71.18 66.4,-71.18 H 77.07 Z"
     inkscape:connector-curvature="0"
     style="display:inline;fill:#40bdf4" />
  <polygon
     id="eb873af7-0e18-460d-b83e-2971ba11dfc2"
     data-name="Shadow Up"
     class="be6eceb8-d995-402a-bc0a-30bbc6e6839e"
     points="26.29,141.65 10.5,70.47 2.3,70.47 21.77,158.22 103.63,70.47 92.69,70.47 "
     style="display:inline;fill:#2e599c" />
  <path
     id="acc7233e-26ae-4434-900e-66e46942b5f2"
     data-name="Light Up 3"
     class="fd06155a-1f77-4d86-ac61-d1d1d8479c19"
     d="M 82.84,8 H 68 C 60.24,8 52,12.49 46.42,19 h 51 C 103,12.49 111.24,8 119,8 Z"
     inkscape:connector-curvature="0"
     style="display:inline;fill:#7ec3ec" />
  <path
     id="b171c287-7e91-41a7-a3ca-9285a773a1c3"
     data-name="Light Up 2"
     class="b4c872e2-a570-42ec-be9b-abf953a7f686"
     d="M 82.84,8 H 68 a 25.59,25.59 0 0 0 -11.49,3 h 51 A 25.59,25.59 0 0 1 119,8 Z"
     inkscape:connector-curvature="0"
     style="display:inline;fill:#ace0f3" />
  <g
     id="b95100e1-bbe6-4584-abaf-6b80a1ab8863"
     data-name="Light Up 1"
     style="display:inline">
    <polygon
       class="b4c872e2-a570-42ec-be9b-abf953a7f686"
       points="12.27,78.47 23.27,78.47 26.11,70.47 2.3,70.47 "
       id="polygon29"
       style="fill:#ace0f3" />
    <polygon
       class="b4c872e2-a570-42ec-be9b-abf953a7f686"
       points="77.14,70.47 74.3,78.47 85.22,78.47 103.63,70.47 "
       id="polygon31"
       style="fill:#ace0f3" />
  </g>
  <path
     id="ec01801a-95b6-4a01-a86e-9159ce4c25ef"
     data-name="Shadoe Down Back"
     class="a4fdf0c2-4094-412e-81b0-e5b57cc803ce"
     d="m 182.91,248 a 22,22 0 0 1 -20.66,-19.69 l -0.63,-7.27 H 205 a 15.75,15.75 0 0 0 4.37,-0.62 L 221,187.66 V 99.53 l -64,68.62 -10.62,11.38 h 26.56 l -12,33.74 -3.2,9 C 153.87,233.17 141.89,242 131,242 h -12.93 a 22.42,22.42 0 0 0 4.87,3.51 v 0 c 0.55,0.3 1.12,0.56 1.7,0.81 l 0.13,0.06 c 0.54,0.23 1.09,0.42 1.65,0.6 l 0.26,0.09 c 0.52,0.16 1.05,0.29 1.58,0.41 l 0.39,0.1 c 0.51,0.1 1,0.17 1.56,0.24 0.15,0 0.3,0 0.46,0.06 a 19.81,19.81 0 0 0 2.05,0.11 h 50.98 c -0.26,0 -0.52,0 -0.79,0 z"
     inkscape:connector-curvature="0"
     style="display:inline;fill-opacity:0.05" />
  <path
     id="b559a8df-f8b2-4e56-8c60-84cd218f4283"
     data-name="Arrow Down"
     class="abecb7c7-2367-4ade-b031-5b175c388474"
     d="M 163.74,228.27 C 159.87,239.17 147.89,248 137,248 h 51 c 10.89,0 22.86,-8.83 26.74,-19.73 l 15.19,-42.74 h 15.57 l -15.79,-71.18 -66.4,71.18 h 15.62 z"
     inkscape:connector-curvature="0"
     style="display:inline;fill:#40bdf4" />
  <polygon
     id="a23dc8e7-8408-4ddf-91bd-34817650345a"
     data-name="Light Down"
     class="b4c872e2-a570-42ec-be9b-abf953a7f686"
     points="229.71,114.35 245.5,185.53 253.7,185.53 234.23,97.78 152.37,185.53 163.31,185.53 "
     style="display:inline;fill:#ace0f3" />
  <path
     id="b6f1733e-8f51-45f1-9c3a-964d62539b07"
     data-name="Shadow Down 3"
     class="a1ab1c70-5190-4d72-855c-db80227623e6"
     d="M 173.16,248 H 188 c 7.76,0 16,-4.49 21.58,-11 h -51 c -5.54,6.51 -13.82,11 -21.58,11 z"
     inkscape:connector-curvature="0"
     style="display:inline;fill:#4e96dd" />
  <path
     id="eb0320e6-cd69-4439-8ea1-0d9629c8acd7"
     data-name="Shadow Down 2"
     class="be6eceb8-d995-402a-bc0a-30bbc6e6839e"
     d="M 173.16,248 H 188 a 25.59,25.59 0 0 0 11.49,-3 h -51 A 25.59,25.59 0 0 1 137,248 Z"
     inkscape:connector-curvature="0"
     style="display:inline;fill:#2e599c" />
  <g
     id="b18b7705-0008-42e3-94a6-acb6e31e4c47"
     data-name="Shadow Down 1"
     style="display:inline">
    <polygon
       class="be6eceb8-d995-402a-bc0a-30bbc6e6839e"
       points="229.89,185.53 232.73,177.53 243.73,177.53 253.7,185.53 "
       id="polygon39"
       style="fill:#2e599c" />
    <polyline
       class="be6eceb8-d995-402a-bc0a-30bbc6e6839e"
       points="152.37 185.53 178.86 185.53 181.7 177.53 170.78 177.53"
       id="polyline41"
       style="fill:#2e599c" />
  </g>
</svg>
