<?xml version="1.0" encoding="UTF-8" standalone="no"?>
<!-- Generator: Adobe Illustrator 17.1.0, SVG Export Plug-In . SVG Version: 6.00 Build 0)  -->

<svg
   xmlns:dc="http://purl.org/dc/elements/1.1/"
   xmlns:cc="http://creativecommons.org/ns#"
   xmlns:rdf="http://www.w3.org/1999/02/22-rdf-syntax-ns#"
   xmlns:svg="http://www.w3.org/2000/svg"
   xmlns="http://www.w3.org/2000/svg"
   xmlns:sodipodi="http://sodipodi.sourceforge.net/DTD/sodipodi-0.dtd"
   xmlns:inkscape="http://www.inkscape.org/namespaces/inkscape"
   version="1.1"
   id="Layer_1"
   x="0px"
   y="0px"
   viewBox="0 0 64 64"
   enable-background="new 0 0 69.9 107.3"
   xml:space="preserve"
   sodipodi:docname="tor_logo.svg"
   width="64"
   height="64"
   inkscape:version="0.92.4 (5da689c313, 2019-01-14)"
   inkscape:export-filename="F:\dev\Electron-Cash\icons\tor_logo.png"
   inkscape:export-xdpi="96"
   inkscape:export-ydpi="96"><metadata
   id="metadata897"><rdf:RDF><cc:Work
       rdf:about=""><dc:format>image/svg+xml</dc:format><dc:type
         rdf:resource="http://purl.org/dc/dcmitype/StillImage" /><dc:title></dc:title></cc:Work></rdf:RDF></metadata><defs
   id="defs895" /><sodipodi:namedview
   pagecolor="#ffffff"
   bordercolor="#666666"
   borderopacity="1"
   objecttolerance="10"
   gridtolerance="10"
   guidetolerance="10"
   inkscape:pageopacity="0"
   inkscape:pageshadow="2"
   inkscape:window-width="2123"
   inkscape:window-height="1374"
   id="namedview893"
   showgrid="false"
   units="px"
   inkscape:zoom="6.2604979"
   inkscape:cx="72.919602"
   inkscape:cy="63.509867"
   inkscape:window-x="2748"
   inkscape:window-y="337"
   inkscape:window-maximized="0"
   inkscape:current-layer="Layer_1" />
<g
   id="g890"
   transform="matrix(0.59645978,0,0,0.59645978,11.161804,-1.34394e-4)">
	<g
   id="g884">
		<g
   id="layer3_16_"
   transform="translate(-92,-63.999774)">
			<g
   id="layer5_16_">
				<g
   id="path2554_27_">
					<path
   d="m 132.1,72 -2.9,11.3 c 4,-8 10.5,-14 17.8,-19.3 -5.4,6.3 -10.3,12.5 -13.3,18.8 5.1,-7.1 11.9,-11.1 19.6,-13.7 C 143.2,78.2 135,88 128.9,97.8 L 124,95.7 c 0.8,-7.9 3.8,-15.9 8.1,-23.7 z"
   id="path857"
   inkscape:connector-curvature="0"
   style="fill:#68b044" />
				</g>
				<g
   id="path2534_10_">
					<path
   d="m 119,93.6 9.4,3.9 c 0,2.4 -0.2,9.6 1.3,11.8 15.6,20 12.9,60.2 -3.2,61.2 -24.5,0 -33.8,-16.6 -33.8,-31.9 0,-14 16.7,-23.2 26.7,-31.5 2.5,-2.3 2.1,-7.2 -0.4,-13.5 z"
   id="path860"
   inkscape:connector-curvature="0"
   style="fill:#f5f8de" />
				</g>
				<g
   id="path2536_17_">
					<path
   d="m 128.4,97.3 3.4,1.7 c -0.3,2.2 0.2,7.1 2.4,8.4 9.8,6.1 19.1,12.8 22.8,19.4 13,23.5 -9.1,45.2 -28.2,43.1 10.4,-7.7 13.4,-23.5 9.5,-40.7 -1.6,-6.7 -4,-12.8 -8.4,-19.7 -2,-3.3 -1.4,-7.5 -1.5,-12.2 z"
   id="path863"
   inkscape:connector-curvature="0"
   style="fill:#7e4798" />
				</g>
			</g>
			<g
   id="layer4_16_">
				<g
   id="path2540_17_">
					<path
   d="m 124.6,108.5 c -0.7,3.6 -1.5,10.2 -4.7,12.7 -1.3,1 -2.7,1.9 -4.1,2.9 -5.7,3.9 -11.4,7.5 -14,16.9 -0.6,2 -0.1,4.1 0.4,6.1 1.4,5.7 5.5,11.9 8.6,15.5 0,0.2 0.6,0.6 0.6,0.7 2.6,3.1 3.4,4 13.3,6.2 l -0.2,1.1 c -5.9,-1.6 -10.9,-3 -14,-6.6 0,-0.1 -0.6,-0.6 -0.6,-0.6 -3.3,-3.8 -7.4,-10.1 -8.9,-16.1 -0.6,-2.4 -1,-4.2 -0.4,-6.7 2.7,-9.7 8.6,-13.5 14.5,-17.5 1.3,-0.9 2.9,-1.7 4.2,-2.7 2.6,-1.9 4,-7.4 5.3,-11.9 z"
   id="path867"
   inkscape:connector-curvature="0"
   style="fill:#010101" />
				</g>
				<g
   id="path2542_17_">
					<path
   d="m 127.1,123.7 c 0.1,4.1 -0.3,6.2 0.7,9.1 0.6,1.7 2.8,4.1 3.4,6.4 0.9,3.1 1.8,6.5 1.7,8.6 0,2.4 -0.1,6.8 -1.2,11.6 -0.8,3.9 -2.6,7.3 -5.6,9.2 -3.1,-0.6 -6.8,-1.7 -8.9,-3.6 -4.2,-3.6 -7.9,-9.7 -8.4,-15.1 -0.4,-4.4 3.6,-10.8 9.3,-14 4.8,-2.8 5.9,-5.9 6.9,-11 -1.4,4.4 -2.8,8.2 -7.4,10.5 -6.7,3.5 -10.1,9.3 -9.8,14.9 0.5,7.1 3.3,12 9,15.9 2.4,1.7 6.8,3.4 9.6,3.9 v -0.4 c 2.1,-0.4 4.8,-3.8 6.2,-8.5 1.2,-4.2 1.7,-9.6 1.6,-13 -0.1,-2 -1,-6.3 -2.5,-10.2 -0.9,-2.1 -2.2,-4.3 -3.1,-5.8 -1,-1.4 -1,-4.7 -1.5,-8.5 z"
   id="path870"
   inkscape:connector-curvature="0"
   style="fill:#010101" />
				</g>
				<g
   id="path2544_17_">
					<path
   d="m 126.4,140 c 0.1,2.8 1.2,6.3 1.7,10 0.4,2.7 0.2,5.4 0.1,7.8 -0.1,2.8 -1,7.7 -2.2,10.1 -1.2,-0.5 -1.6,-1.2 -2.4,-2.2 -1,-1.3 -1.6,-2.7 -2.2,-4.3 -0.5,-1.2 -1,-2.6 -1.3,-4.1 -0.3,-2.4 -0.2,-6.1 2.5,-9.9 2.1,-3 2.5,-3.2 3.2,-6.7 -1,3.1 -1.7,3.4 -3.9,6 -2.5,2.9 -2.9,7.1 -2.9,10.5 0,1.4 0.6,3 1.1,4.5 0.6,1.6 1.2,3.2 2,4.4 1.3,1.9 3,3 3.8,3.2 0,0 0,0 0,0 0,0 0,0 0.1,0 v -0.1 c 1.5,-1.7 2.5,-3.4 2.8,-5.1 0.4,-2.1 0.5,-4.1 0.7,-6.6 0.2,-2.1 0.1,-4.8 -0.5,-7.7 -0.7,-3.7 -2,-7.3 -2.6,-9.8 z"
   id="path873"
   inkscape:connector-curvature="0"
   style="fill:#010101" />
				</g>
				<g
   id="path2550_17_">
					<path
   d="m 126.9,105.1 c 0.1,4.1 0.4,11.8 1.5,14.8 0.3,1 3.2,5.5 5.3,11 1.4,3.8 1.7,7.3 2,8.3 1,4.5 -0.2,12.1 -1.8,19.3 -0.8,3.9 -3.5,8.7 -6.6,10.6 l -0.6,1.1 c 1.7,-0.1 6,-4.3 7.5,-9.5 2.5,-8.9 3.6,-13 2.4,-22.8 -0.2,-1 -0.6,-4.2 -2.1,-7.7 -2.2,-5.3 -5.4,-10.4 -5.8,-11.4 -0.7,-1.5 -1.6,-8.7 -1.8,-13.7 z"
   id="path876"
   inkscape:connector-curvature="0"
   style="fill:#010101" />
				</g>
				<g
   id="path2552_17_">
					<path
   d="m 128.4,97.7 c -0.2,4.2 -0.3,7.6 0.5,10.7 0.9,3.4 5.3,8.3 7.1,14 3.5,10.8 2.6,24.9 0.1,35.9 -1,3.9 -5.5,9.5 -10,11.3 l 3.3,0.8 c 1.8,-0.1 6.5,-4.4 8.3,-9.4 2.9,-7.8 3.5,-17.2 2.3,-27 -0.1,-1 -1.7,-9.4 -3.2,-13 -2.1,-5.3 -5.5,-9 -6.7,-12.3 -0.9,-2.4 -1.3,-9 -0.7,-10.4 z"
   id="path879"
   inkscape:connector-curvature="0"
   style="fill:#010101" />
				</g>
			</g>
		</g>
	</g>
	<g
   id="g888">
		<path
   d="m 59.9,54.5 c -3.4,-3.1 -7.7,-5.6 -12.1,-8.1 -2,-1.1 -8.1,-5.9 -6,-12.7 l -15.5,-6.3 -1,0.8 c 5.2,9.3 2.5,14.2 -0.1,15.9 -5.2,3.5 -12.7,8 -16.5,11.9 -7.2,7.4 -9.3,14.4 -8.6,23.7 0.7,11.9 9.4,21.8 20.9,25.7 5.1,1.7 9.8,1.9 15,1.9 8.4,0 17,-2.2 23.3,-7.5 6.7,-5.5 10.6,-13.9 10.6,-22.5 0,-8.7 -3.6,-17 -10,-22.8 z m -2.3,43.4 c -5.7,4.8 -16.2,8 -21.6,7.8 -6.1,-0.3 -12.1,-1.3 -17.4,-3.9 C 9.3,97.3 3.1,87.6 2.7,79.7 1.9,63.6 9.6,58.9 16.8,53 c 4,-3.3 9.6,-4.9 12.8,-10.8 0.6,-1.3 1,-4.1 0.2,-7.1 -0.3,-1 -1.8,-4.6 -2.4,-5.4 L 39,34.9 c -1.4,5.3 2.9,10.9 6.4,12.8 3.5,2 9.1,5.7 12.5,8.8 5.9,5.3 9.1,12.8 9.1,20.8 0.1,7.8 -3.3,15.5 -9.4,20.6 z"
   id="path886"
   inkscape:connector-curvature="0"
   style="fill:#010101" />
	</g>
</g>
</svg>