<?xml version="1.0" encoding="utf-8"?>
<!-- Generator: Adobe Illustrator 13.0.0, SVG Export Plug-In . SVG Version: 6.00 Build 14948)  -->
<!DOCTYPE svg PUBLIC "-//W3C//DTD SVG 1.1//EN" "http://www.w3.org/Graphics/SVG/1.1/DTD/svg11.dtd">
<svg version="1.1" id="Layer_1" xmlns="http://www.w3.org/2000/svg" xmlns:xlink="http://www.w3.org/1999/xlink" x="0px" y="0px"
	 width="256px" height="256px" viewBox="0 0 256 256" enable-background="new 0 0 256 256" xml:space="preserve">
<g id="Layer_2">
	<g>
		
			<linearGradient id="P1_1_" gradientUnits="userSpaceOnUse" x1="307.2627" y1="-580.3887" x2="307.2626" y2="-390.6073" gradientTransform="matrix(1.2524 0 0 -1.2524 -257.3152 -480.5344)">
			<stop  offset="0.0056" style="stop-color:#3B3B3B"/>
			<stop  offset="0.5449" style="stop-color:#000000"/>
			<stop  offset="1" style="stop-color:#1A1A1A"/>
		</linearGradient>
		<path id="P1" fill="url(#P1_1_)" d="M1.934,127.5c0,69.236,56.33,125.566,125.567,125.566c69.235,0,125.565-56.33,125.565-125.566
			c0-69.237-56.33-125.567-125.565-125.567C58.264,1.933,1.934,58.263,1.934,127.5z"/>
		
			<linearGradient id="P2_1_" gradientUnits="userSpaceOnUse" x1="307.2617" y1="-580.3701" x2="307.2617" y2="-390.5845" gradientTransform="matrix(1.2524 0 0 -1.2524 -257.3152 -480.5344)">
			<stop  offset="0.0056" style="stop-color:#7B7B7B"/>
			<stop  offset="0.573" style="stop-color:#B4B4B4"/>
			<stop  offset="1" style="stop-color:#E6E6E6"/>
		</linearGradient>
		<path id="P2" fill="url(#P2_1_)" d="M9.487,127.5c0,65.074,52.941,118.014,118.015,118.014c65.073,0,118.01-52.938,118.01-118.014
			c0-65.073-52.938-118.014-118.01-118.014C62.428,9.486,9.487,62.427,9.487,127.5z"/>
		
			<linearGradient id="P3_1_" gradientUnits="userSpaceOnUse" x1="307.2627" y1="-576.5396" x2="307.2626" y2="-394.4487" gradientTransform="matrix(1.2524 0 0 -1.2524 -257.3152 -480.5344)">
			<stop  offset="0" style="stop-color:#FFFFFF"/>
			<stop  offset="0.5" style="stop-color:#212121"/>
			<stop  offset="1" style="stop-color:#8A8A8A"/>
		</linearGradient>
		<path id="P3" fill="url(#P3_1_)" d="M13.473,127.5c0,62.88,51.156,114.023,114.028,114.023
			c62.878,0,114.026-51.146,114.026-114.023c0-62.873-51.147-114.027-114.026-114.027C64.629,13.473,13.473,64.627,13.473,127.5z"/>
		<path id="P4" opacity="0.8" fill="#FFFFFF" enable-background="new    " d="M127.501,27.718
			c-57.263,0-103.856,46.583-103.856,103.854c0,57.263,46.593,103.845,103.856,103.845c57.267,0,103.854-46.582,103.854-103.845
			C231.355,74.301,184.768,27.718,127.501,27.718z"/>
		<path id="P5" fill="#8D0000" d="M23.645,127.5c0,57.268,46.593,103.846,103.856,103.846c57.267,0,103.854-46.578,103.854-103.846
			c0-57.264-46.588-103.853-103.854-103.853C70.238,23.647,23.645,70.236,23.645,127.5z"/>
		
			<radialGradient id="P6_1_" cx="185.5391" cy="-410.6392" r="57.022" gradientTransform="matrix(1.7767 0 0 -1.7767 -202.1438 -602.0847)" gradientUnits="userSpaceOnUse">
			<stop  offset="0.6467" style="stop-color:#FFB80A"/>
			<stop  offset="0.7144" style="stop-color:#FEB30A"/>
			<stop  offset="0.7899" style="stop-color:#FCA608"/>
			<stop  offset="0.8691" style="stop-color:#F99006"/>
			<stop  offset="0.9503" style="stop-color:#F47102"/>
			<stop  offset="1" style="stop-color:#F15A00"/>
		</radialGradient>
		<path id="P6" fill="url(#P6_1_)" d="M26.189,127.5c0,55.861,45.447,101.309,101.312,101.309
			c55.862,0,101.313-45.447,101.313-101.309c0-55.862-45.451-101.311-101.313-101.311C71.637,26.189,26.189,71.638,26.189,127.5z"/>
		<path id="P7" fill="#771111" d="M34.572,124.188c-1.127,0-2.042,0.914-2.042,2.043v2.537c0,1.129,0.914,2.043,2.042,2.043h17.802
			c1.127,0,2.042-0.914,2.042-2.043v-2.537c0-1.129-0.915-2.043-2.042-2.043H34.572z"/>
		<rect id="RE1" x="34.572" y="126.23" fill="#A00000" width="17.802" height="2.538"/>
		<path id="P8" fill="#771111" d="M202.073,124.188c-1.128,0-2.041,0.914-2.041,2.043v2.537c0,1.129,0.913,2.043,2.041,2.043h17.81
			c1.126,0,2.041-0.914,2.041-2.043v-2.537c0-1.129-0.915-2.043-2.041-2.043H202.073z"/>
		<rect id="RE2" x="202.073" y="126.23" fill="#A00000" width="17.81" height="2.538"/>
		<path id="P9" fill="#771111" d="M126.23,200.032c-1.128,0-2.042,0.913-2.042,2.041v17.803c0,1.127,0.914,2.041,2.042,2.041h2.543
			c1.129,0,2.041-0.914,2.041-2.041v-17.803c0-1.128-0.912-2.041-2.041-2.041H126.23z"/>
		<rect id="RE3" x="126.23" y="202.073" fill="#A00000" width="2.543" height="17.803"/>
		<path id="P10" fill="#771111" d="M126.23,32.529c-1.128,0-2.042,0.914-2.042,2.041v17.803c0,1.127,0.914,2.041,2.042,2.041h2.543
			c1.129,0,2.041-0.914,2.041-2.041V34.57c0-1.127-0.912-2.041-2.041-2.041H126.23L126.23,32.529z"/>
		<rect id="RE4" x="126.23" y="34.57" fill="#A00000" width="2.543" height="17.803"/>
		<g id="G4" transform="matrix(0.983242,-0.182303,0.182303,0.983242,-10.45843,57.70537)">
			<path opacity="0.28" fill="#8D0000" enable-background="new    " d="M115.373,100.175L70.571,22.573
				c-2.026-3.507-0.824-7.994,2.683-10.02l0,0c3.509-2.026,7.996-0.824,10.021,2.685l0,0l44.803,77.602
				c2.025,3.509,0.822,7.994-2.684,10.018l0,0c-1.575,0.91-3.345,1.169-5.001,0.859l0,0
				C118.356,103.341,116.49,102.109,115.373,100.175L115.373,100.175z"/>
			<path fill="#C65C05" d="M114.389,96.509l-0.001-89.607c0.001-4.051,3.283-7.336,7.336-7.335l0,0
				c4.052-0.001,7.334,3.284,7.336,7.334l0,0l0.001,89.607c-0.002,4.05-3.285,7.335-7.336,7.333l0,0
				c-0.46,0.001-0.909-0.04-1.344-0.122l0,0C116.972,103.089,114.389,100.098,114.389,96.509L114.389,96.509z"/>
			<path fill="#AA2E03" d="M118.057,102.859c-3.508-2.025-4.711-6.51-2.685-10.018l0,0l44.803-77.602
				c2.025-3.508,6.51-4.711,10.019-2.685l0,0c3.51,2.026,4.71,6.511,2.685,10.02l0,0l-44.8,77.602
				c-1.597,2.766-4.723,4.098-7.692,3.547l0,0C119.588,103.574,118.801,103.289,118.057,102.859L118.057,102.859z"/>
			<path fill="#8D0000" d="M118.059,102.859L58.853,68.677c-3.509-2.024-4.711-6.51-2.684-10.02l0,0
				c2.025-3.509,6.511-4.711,10.02-2.686l0,0l55.538,32.066l73.933-42.684c3.505-2.026,7.993-0.824,10.018,2.684l0,0
				c2.024,3.507,0.821,7.994-2.683,10.02l0,0l-77.601,44.802c-1.537,0.889-3.313,1.176-5.005,0.86l0,0
				C119.582,103.569,118.792,103.282,118.059,102.859L118.059,102.859z"/>
		</g>
		<g>
			<path fill="#FFFFFF" stroke="#000000" stroke-width="6" stroke-linecap="round" stroke-linejoin="round" d="M233.918,114.876
				c0,4.914-0.23,9.213-0.689,12.898c-0.92,4.763-1.607,8.522-2.067,11.289c-0.919,5.067-1.954,9.98-3.104,14.74
				c-1.149,4.76-3.104,11.516-5.861,20.271l-4.139,13.356l-1.839,5.758h-16.092l-1.608-5.758l-4.138-13.356
				c-4.598-15.355-7.471-26.525-8.62-33.513c-1.148-6.984-1.953-12.284-2.414-15.894c-0.459-3.606-0.688-6.871-0.688-9.791
				c0-11.821,1.225-20.574,3.678-26.256c2.449-5.682,6.167-9.252,11.146-10.71s9.082-2.188,12.301-2.188
				C225.872,75.723,233.918,88.775,233.918,114.876z M224.264,207.898c4.288,4.293,6.438,9.504,6.438,15.631
				c0,6.287-2.301,11.609-6.896,15.978c-4.599,4.367-9.886,6.552-15.861,6.552c-6.133,0-11.379-2.107-15.748-6.322
				c-4.365-4.213-6.551-9.385-6.551-15.516c0-6.281,2.146-11.725,6.438-16.32c4.288-4.599,9.575-6.896,15.86-6.896
				C214.225,201.003,219.666,203.302,224.264,207.898z"/>
		</g>
	</g>
</g>
</svg>
