<?xml version="1.0" encoding="utf-8"?>
<!-- Generator: Adobe Illustrator 18.1.1, SVG Export Plug-In . SVG Version: 6.00 Build 0)  -->
<svg version="1.1" id="Layer_1" xmlns="http://www.w3.org/2000/svg" xmlns:xlink="http://www.w3.org/1999/xlink" x="0px" y="0px"
	 width="156px" height="104px" viewBox="0 0 156 104" enable-background="new 0 0 156 104" xml:space="preserve">
<g>
	<rect fill="none" width="156" height="104"/>
	<g>
		<path fill="#868482" d="M37.6,103.3c-10.1,0-18.9-5-23.1-13.6C4.4,68.7,19.9,52.3,36.2,35c1.2-1.2,2.4-2.5,3.6-3.8
			c5.3-5.7,5.2-11.5,3.5-14.8c-1.8-3.4-5.5-4.9-10.2-4.2c-16.5,2.6-21.2,26.4-21.2,26.6L0,36.6C0.3,35.3,6.4,4.3,31.2,0.3
			c9.8-1.6,18.5,2.4,22.7,10.4c4.7,8.9,2.6,20.1-5.3,28.6c-1.2,1.3-2.4,2.6-3.6,3.8C28.3,60.9,19.1,71.6,25.4,84.5
			c3.3,6.8,11.1,7.6,16.9,6.3c9.2-2.1,19.8-11.1,19.7-29.5c-0.2-28.1,16.2-41.8,30.2-44.9c14.5-3.2,28.4,3.6,34.7,17
			c1.3,2.8,2.3,5.4,3.1,8.1c13.3,0.7,25.5,4.3,26,4.4l-3.4,11.5c-0.1,0-9.7-2.8-20.6-3.8c0.5,16.5-8.6,28.9-20.1,34.7
			c-11.9,6-24,3.8-28.9-5.2c-3.1-5.6-1.9-14.7,2.9-22.5c7.9-13,21.3-17.4,31.5-18.8c-0.4-1.2-0.9-2.4-1.4-3.4
			c-3.9-8.3-12.2-12.4-21.1-10.4c-9.7,2.2-21,12.1-20.8,33.1c0.2,25.5-15.6,38.1-29,41.3C42.5,103,40,103.3,37.6,103.3z M119.8,53.7
			c-14,1.5-20.6,8.5-23.4,12.9c-3.3,5.2-3.4,9.8-2.9,10.9c1.6,2.9,7.3,3,13,0.2C117.3,72.2,120.3,62.6,119.8,53.7z"/>
	</g>
</g>
</svg>
