<?xml version="1.0" encoding="utf-8"?>
<!-- Generator: Adobe Illustrator 18.1.1, SVG Export Plug-In . SVG Version: 6.00 Build 0)  -->
<svg version="1.1" id="Layer_1" xmlns="http://www.w3.org/2000/svg" xmlns:xlink="http://www.w3.org/1999/xlink" x="0px" y="0px"
	 width="148px" height="148px" viewBox="0 0 148 148" enable-background="new 0 0 148 148" xml:space="preserve">
<g>
	<rect fill="none" width="148" height="148"/>
	<g>
		<path fill="#868482" d="M146.8,132.7c1.6,1.6,1.6,4.1,0,5.7l-8.5,8.5c-1.6,1.6-4.1,1.6-5.7,0l-44.6-44.6c-1.6-1.6-1.6-4.1,0-5.7
			l8.5-8.5c1.6-1.6,4.1-1.6,5.7,0L146.8,132.7z"/>
		<path fill="#868482" d="M58,12c25.4,0,46,20.6,46,46s-20.6,46-46,46c-25.4,0-46-20.6-46-46S32.6,12,58,12 M58,0C26,0,0,26,0,58
			s26,58,58,58c32,0,58-26,58-58S90,0,58,0L58,0z"/>
	</g>
</g>
</svg>
