<?xml version="1.0" encoding="iso-8859-1"?>
<!-- Generator: Adobe Illustrator 25.2.3, SVG Export Plug-In . SVG Version: 6.00 Build 0)  -->
<svg version="1.1" baseProfile="basic" xmlns="http://www.w3.org/2000/svg" xmlns:xlink="http://www.w3.org/1999/xlink" x="0px"
	 y="0px" viewBox="0 0 40 40" xml:space="preserve">
<g id="Layer_10">
</g>
<g id="fluent_1_">
</g>
<g id="color">
</g>
<g id="office">
	<path style="fill:#F78F8F;" d="M20,31.441l-11.5,5.75V2.5h23v34.691L20,31.441z"/>
	<path style="fill:#C74343;" d="M31,3v33.382l-10.553-5.276L20,30.882l-0.447,0.224L9,36.382V3H31 M32,2H8v36l12-6l12,6V2L32,2z"/>
	<path style="fill:#BAE0BD;" d="M31,26.5c-4.687,0-8.5-3.813-8.5-8.5s3.813-8.5,8.5-8.5s8.5,3.813,8.5,8.5S35.687,26.5,31,26.5z"/>
	<path style="fill:#5E9C76;" d="M31,10c4.411,0,8,3.589,8,8s-3.589,8-8,8s-8-3.589-8-8S26.589,10,31,10 M31,9c-4.971,0-9,4.029-9,9
		s4.029,9,9,9s9-4.029,9-9S35.971,9,31,9L31,9z"/>
	<polygon style="fill:#FFFFFF;" points="32,23 30,23 30,19 26,19 26,17 30,17 30,13 32,13 32,17 36,17 36,19 32,19 	"/>
</g>
<g id="ios">
</g>
<g id="fluent">
</g>
</svg>