<?xml version="1.0" encoding="UTF-8"?>
<svg width="512" height="512" version="1.1" viewBox="0 0 512 512" xmlns="http://www.w3.org/2000/svg" xmlns:xlink="http://www.w3.org/1999/xlink">
 <use transform="translate(-216 -252)" width="100%" height="100%" xlink:href="#path831"/>
 <path id="path831" d="m244.94 256.71c-14.934 1.4562-25.469 19.091-24.913 37.987-2.155 55.246-0.0543 91.614 0.17146 143.49 0.95499 15.061 13.656 34.066 35.042 34.181 6.5619 0.30953 16.143 0.34717 30.995 0.34717 27.995 0 41.291 0.77865 41.291 2.4214 0 1.3327-2.9613 5.3827-6.5786 9-5.0074 5.0074-8.6562 6.5787-15.298 6.5787-10.341 0-14.124 3.1317-14.124 11.698v6.3018h144v-6.3018c0-8.5666-3.7834-11.698-14.124-11.698-6.6413 0-10.29-1.5713-15.297-6.5787-3.6174-3.6173-6.5786-7.6673-6.5786-9 0-1.6428 13.297-2.4214 41.291-2.4214 15.112-7e-3 63.701 6.378 66.081-35.293 0.62209-11.405 0.62843-32.056 0.62843-72.708 0-39.56-7e-3 -60.178-0.58008-71.767-0.6711-12.6-1.8798-36.301-24.834-36.233h-118.59zm10.586 36h216v144h-216v-72z" fill="#fff"/>
 <path d="m110.41 469.11c-4.9443-1.8094-13.262-7.4832-18.485-12.608-15.863-15.568-16.401-19.038-16.401-105.69v-76.1h36v150.96l5.5228 5.5227c5.4382 5.4383 6.1188 5.5228 44.468 5.5228h38.945c3.4461 14.807 6.6856 24.504 14.871 36-30.131-0.82757-61.12 0.99452-90.818-1.2282-6.8699-0.53546-11.167-1.3039-14.104-2.3788z" fill="#fff"/>
</svg>
