<?xml version="1.0" encoding="utf-8"?>
<!-- Generator: Adobe Illustrator 23.0.1, SVG Export Plug-In . SVG Version: 6.00 Build 0)  -->
<svg version="1.1"
	 id="svg2" inkscape:export-filename="/home/voegtlin/logos/electrum_blue.png" inkscape:export-xdpi="10.014582" inkscape:export-ydpi="10.014582" inkscape:version="1.0.2-2 (e86c870879, 2021-01-15)" sodipodi:docname="electrum_lightblue.svg" xmlns:cc="http://creativecommons.org/ns#" xmlns:dc="http://purl.org/dc/elements/1.1/" xmlns:inkscape="http://www.inkscape.org/namespaces/inkscape" xmlns:rdf="http://www.w3.org/1999/02/22-rdf-syntax-ns#" xmlns:sodipodi="http://sodipodi.sourceforge.net/DTD/sodipodi-0.dtd" xmlns:svg="http://www.w3.org/2000/svg"
	 xmlns="http://www.w3.org/2000/svg" xmlns:xlink="http://www.w3.org/1999/xlink" x="0px" y="0px" viewBox="0 0 779.8 779.8"
	 style="enable-background:new 0 0 779.8 779.8;" xml:space="preserve">
<style type="text/css">
	.st0{opacity:0.6;fill:url(#SVGID_1_);enable-background:new    ;}
	.st1{fill:url(#SVGID_2_);}
	.st2{fill:#FFFFFF;}
	.st3{opacity:0.4;fill:url(#SVGID_3_);}
</style>
<g>
	<g>
		<g>
			<g>
				
					<linearGradient id="SVGID_1_" gradientUnits="userSpaceOnUse" x1="512.9473" y1="-350.6651" x2="250.5674" y2="-88.2857" gradientTransform="matrix(1 0 0 -1 0 164)">
					<stop  offset="0" style="stop-color:#378094"/>
					<stop  offset="1" style="stop-color:#32ACC3"/>
				</linearGradient>
				<path class="st0" d="M467.7,547.9c-25.7,13.4-54.9,21.3-86,21.3c-23,0-44.9-4.1-65.1-11.7c0-0.7-0.3-1.7-0.3-2.4
					c0-5.5,1.7-11.3,5.1-17.5c3.4-6.2,8.6-13,15.4-20.6c17.5,2.4,42.5,4.1,75.1,5.1c22.3,0.7,37.4,2.4,44.9,5.5
					c7.5,3.1,11,8.6,11,16.1C468.4,544.9,468.1,546.2,467.7,547.9z M382.7,442c11,0,19.9-4.1,27.1-12.3c7.2-8.2,10.6-21.3,10.6-38.7
					c0-23-5.1-40.8-15.1-53.8c-7.2-9.6-16.8-14.4-28.5-14.4c-10.6,0-19.5,4.1-26.7,12.7s-11,21.6-11,39.1c0,23,4.8,40.5,14.7,53.1
					C361.8,437.2,371.1,442,382.7,442z M381.7,197.9c-102.2,0-185.5,83-185.5,185.5c0,71.3,40.5,133.4,99.4,164.6
					c2.1-2.7,4.5-6.2,7.2-9.3c1-1.4,8.6-9.3,22.3-23.3c-7.5-4.5-12.7-8.6-16.1-12c-3.1-3.4-4.8-7.5-4.8-12c0-5.1,2.1-11,6.2-17.8
					c4.1-6.9,13.7-16.5,28.5-28.8c-12-5.8-21.6-14.4-28.1-25c-6.5-10.6-9.6-22.3-9.6-35.3c0-19.9,7.5-36.7,22.3-50.7
					c14.7-14.1,33.9-21.3,56.9-21.3c18.5,0,34.3,4.5,48,13c12-11.7,20.9-21.6,26.7-29.8c7.9-11.3,11.7-21.3,11.7-30.5
					c0-7.2-2.1-13-6.5-17.5c-4.5-4.5-9.6-6.9-15.4-6.9c-5.5,0-10.3,1.7-14.7,4.8c-4.5,3.1-7.5,7.9-9.6,14.1h-3.1
					c1.4-10.3,4.8-17.8,10.6-23.3c5.8-5.5,12.7-8.2,21.3-8.2c8.9,0,16.5,2.7,22.6,8.6c6.2,5.8,8.9,12.7,8.9,20.6
					c0,5.5-1.4,11.3-4.1,16.8c-4.1,8.9-10.6,18.2-19.9,28.1c-13.4,14.4-21.6,23.3-25.4,26.7l0.3,0.3h28.5c5.8,0,9.9-0.3,12.3-0.7
					c2.4-0.3,4.5-1.4,6.5-2.7c2.1-1.4,3.4-3.1,5.1-5.8h3.1l-9.9,28.5h-30.2c6.9,9.9,10.3,22.3,10.3,37.4c0,18.5-7.2,34.6-21.3,47.7
					c-14.1,13.4-33.3,19.9-56.9,19.9c-9.9,0-19.9-1.4-30.2-4.5c-6.5,5.5-10.6,10.3-13,14.4c-2.4,4.1-3.4,7.5-3.4,10.3
					c0,2.4,1,4.8,3.4,7.2c2.4,2.4,7.2,4.1,14.1,4.8c4.1,0.7,14.1,1.4,30.5,1.7c29.8,0.7,49.4,2.1,57.9,3.4
					c13.4,1.7,24.3,6.9,32.2,15.1s12,18.2,12,29.8c0,1,0,2.1,0,3.1c50.1-33.3,83.3-90.2,83.3-155
					C567.5,280.9,484.2,197.9,381.7,197.9z"/>
				
					<linearGradient id="SVGID_2_" gradientUnits="userSpaceOnUse" x1="258.877" y1="-96.7311" x2="504.561" y2="-342.4154" gradientTransform="matrix(1 0 0 -1 0 164)">
					<stop  offset="0" style="stop-color:#388095"/>
					<stop  offset="1" style="stop-color:#378399"/>
				</linearGradient>
				<path class="st1" d="M405.3,336.8c9.9,13,15.1,30.9,15.1,53.8c0,17.5-3.4,30.5-10.6,38.7c-7.2,8.2-16.1,12.3-27.1,12.3
					c-11.7,0-20.9-4.8-28.5-14.4c-9.9-12.7-14.7-30.2-14.7-53.1c0-17.5,3.8-30.9,11-39.1c7.2-8.6,16.1-12.7,26.7-12.7
					C388.5,322.4,398.1,327.2,405.3,336.8z M325.5,515c-7.5-4.5-12.7-8.6-16.1-12c-3.1-3.4-4.8-7.5-4.8-12c0-5.1,2.1-11,6.2-17.8
					s13.7-16.5,28.5-28.8c-12-5.8-21.6-14.4-28.1-25c-6.5-10.6-9.6-22.3-9.6-35.3c0-19.9,7.5-36.7,22.3-50.7s33.9-21.3,56.9-21.3
					c18.5,0,34.3,4.5,48,13c12-11.7,20.9-21.6,26.7-29.8C463.3,284,467,274,467,264.8c0-7.2-2.1-13-6.5-17.5
					c-4.5-4.5-9.6-6.9-15.4-6.9c-5.5,0-10.3,1.7-14.7,4.8c-4.5,3.1-7.5,7.9-9.6,14.1h-3.1c1.4-10.3,4.8-17.8,10.6-23.3
					c5.8-5.5,12.7-8.2,21.3-8.2c4.8,0,9.3,0.7,13.4,2.4c-24.3-12.7-51.8-20.2-81.2-20.2c-96,0-173.8,77.8-173.8,173.8
					c0,67.5,38.7,126.2,95,155C304.5,536.6,311.7,529.1,325.5,515z M468.8,232.9c1.4,1,2.7,2.1,3.8,3.1c6.2,5.8,8.9,12.7,8.9,20.6
					c0,5.5-1.4,11.3-4.1,16.8c-4.1,8.9-10.6,18.2-19.9,28.1c-13.4,14.4-21.6,23.3-25.4,26.7l0.3,0.3h28.5c5.8,0,9.9-0.3,12.3-0.7
					c2.4-0.3,4.5-1.4,6.5-2.7c2.1-1.4,3.4-3.1,5.1-5.8h3.1l-9.9,28.5h-30.2c6.9,9.9,10.3,22.3,10.3,37.4c0,18.5-7.2,34.6-21.3,47.7
					c-14.1,13.4-33.3,19.9-56.9,19.9c-9.9,0-19.9-1.4-30.2-4.5c-6.5,5.5-10.6,10.3-13,14.4c-2.4,4.1-3.4,7.5-3.4,10.3
					c0,2.4,1,4.8,3.4,7.2c2.4,2.4,7.2,4.1,14.1,4.8c4.1,0.7,14.1,1.4,30.5,1.7c29.8,0.7,49.4,2.1,57.9,3.4
					c13.4,1.7,24.3,6.9,32.2,15.1c5.5,5.5,9.3,12,11,19.5c43.9-31.5,72.7-83,72.7-141.2C555.5,318.9,520.5,263.1,468.8,232.9z
					 M457.1,527.4c-7.5-3.1-22.3-5.1-44.9-5.5c-32.6-1-57.6-2.4-75.1-5.1c-6.9,7.2-12,14.1-15.4,20.6c-1.4,2.7-2.7,5.1-3.4,7.9
					c19.5,7.9,41.1,12,63.8,12c30.5,0,59.7-7.9,84.3-21.9C464.6,531.8,461.6,529.4,457.1,527.4z"/>
				<path class="st2" d="M488.3,319.6h-3.1c-1.4,2.4-3.1,4.5-5.1,5.8c-2.1,1.4-4.1,2.4-6.5,2.7c-2.4,0.3-6.5,0.7-12.3,0.7h-28.5
					v-0.7c3.4-3.4,12-12,25.4-26.7c9.3-9.9,15.8-19.2,19.9-28.1c2.7-5.5,4.1-11.3,4.1-16.8c0-7.9-3.1-14.7-8.9-20.6
					c-6.2-5.8-13.7-8.6-22.6-8.6c-8.6,0-15.4,2.7-21.3,8.2c-5.8,5.5-9.3,13.4-10.6,23.3h3.1c2.1-6.2,5.1-11,9.6-14.1
					c4.5-3.1,9.3-4.8,14.7-4.8c6.2,0,11.3,2.4,15.4,6.9c4.5,4.5,6.5,10.3,6.5,17.5c0,9.3-3.8,19.5-11.7,30.5
					c-5.8,8.2-14.7,18.2-26.7,29.8c-13.7-8.6-29.5-13-48-13c-23.3,0-42.2,7.2-56.9,21.3c-14.7,14.1-22.3,31.2-22.3,50.7
					c0,13,3.1,24.7,9.6,35.3s15.8,18.9,28.1,25c-14.7,12.3-24.3,22.3-28.5,28.8c-4.1,6.9-6.2,12.7-6.2,17.8c0,4.5,1.7,8.6,4.8,12
					c3.1,3.4,8.6,7.5,16.1,12c-13.7,14.4-21.3,21.9-22.3,23.3c-2.7,3.4-5.1,6.5-7.2,9.3c6.5,3.4,13.7,6.5,20.9,9.3
					c0-0.7-0.3-1.7-0.3-2.4c0-5.5,1.7-11.3,5.1-17.5c3.4-6.2,8.6-13,15.4-20.6c17.5,2.4,42.5,4.1,75.1,5.1
					c22.3,0.7,37.4,2.4,44.9,5.5c7.5,3.1,11,8.6,11,16.1c0,1.4,0,2.7-0.3,4.5c5.5-2.7,11-6.2,16.1-9.6c0-1,0-2.1,0-3.1
					c0-12-4.1-21.9-12-29.8c-7.9-8.2-18.9-13-32.2-15.1c-8.9-1.4-28.1-2.4-57.9-3.4c-16.1-0.3-26.4-1-30.5-1.7
					c-6.9-1-11.7-2.7-14.1-4.8c-2.4-2.4-3.4-4.8-3.4-7.2c0-2.7,1-6.2,3.4-10.3c2.4-4.1,6.5-8.9,13-14.4c10.3,3.1,20.2,4.5,30.2,4.5
					c24,0,42.9-6.5,56.9-19.9s21.3-29.1,21.3-47.7c0-14.7-3.4-27.1-10.3-37.4h30.2L488.3,319.6z M409.8,429.7
					c-7.2,8.2-16.1,12.3-27.1,12.3c-11.7,0-20.9-4.8-28.5-14.4c-9.9-12.7-14.7-30.2-14.7-53.1c0-17.5,3.8-30.9,11-39.1
					c7.2-8.6,16.1-12.7,26.7-12.7c11.7,0,20.9,4.8,28.5,14.4c9.9,13,15.1,30.9,15.1,53.8C420.4,408.4,417,421.4,409.8,429.7z"/>
			</g>
		</g>
	</g>
	<linearGradient id="SVGID_3_" gradientUnits="userSpaceOnUse" x1="11.1504" y1="389.9055" x2="768.6606" y2="389.9055">
		<stop  offset="0" style="stop-color:#3BAAC2"/>
		<stop  offset="1" style="stop-color:#2E6780"/>
	</linearGradient>
	<path class="st3" d="M767.6,317.5c-7.5-39.1-54.6-67.4-132.8-79.8c-19.5-3.1-40.5-5.1-62.5-6.1c1.3-23.3,1.2-45.7-0.3-66.6
		c-5.6-79.6-31.1-130.2-71.6-142.7c-40.5-12.4-90,15.2-139.4,77.9c-10.8,13.7-21.3,28.8-31.5,45c-16.4-9.9-32.6-18.7-48.4-26.1
		c-72.2-33.9-128.8-36.4-159.5-7.1c-13.3,12.7-20.8,30.6-22.6,52.7c-10.5,4.6-17.9,15.1-17.9,27.3c0,14.3,10.1,26.2,23.5,29.1
		c3.8,15.7,9.4,32.6,16.9,50.5c6.3,15.2,13.9,30.8,22.4,46.7c-13.3,6.5-26,13.2-37.8,20.2c-68.2,40.3-101.6,84-94.1,123.1
		c7.5,39.1,54.6,67.4,132.8,79.8c18.1,2.9,37.4,4.8,57.7,5.9c-1.3,23.7-1.3,46.3,0.2,67.5c0.5,7.5,1.2,14.8,2.1,21.8
		c-7.3,5.4-12,14.1-12,23.8c0,14.3,10.1,26.3,23.6,29.1c12.4,36.5,32,60,57.8,67.9c6.4,2,12.9,2.9,19.7,2.9
		c36.3,0,78.1-27.9,119.7-80.8c10.8-13.7,21.3-28.8,31.5-45c16.4,9.9,32.6,18.7,48.4,26.1c38.9,18.2,73.2,27.4,101.4,27.4
		c24.2,0,43.9-6.7,58.1-20.3c30.6-29.3,30.6-86,0-159.6c-6.2-14.8-13.5-30-21.7-45.4c14.6-7,28.4-14.3,41.3-21.8
		c3.3,1.3,6.9,2,10.6,2c16.3,0,29.5-13.1,29.8-29.3C754.3,381.3,773.5,348,767.6,317.5z M373.4,109.9
		c38.1-48.4,76.4-74.7,107.5-74.7c5.1,0,10.1,0.7,14.8,2.2c33.4,10.3,55.4,57.2,60.5,128.7c1.4,20.4,1.5,42.2,0.3,65
		c-33.8-0.7-69.9,0.9-107.2,4.8c-35.2-31.9-71.2-59.8-106.5-82.4C352.7,137.8,363,123.2,373.4,109.9z M519.2,430.4
		c-6.9,22.4-14.5,44.2-22.6,65.3c-26.6,7.4-54.3,13.9-82.7,19.3c-28.1,5.4-55.9,9.5-83,12.4c-14.5-13.4-28.9-27.5-43-42.2
		c-18.6-19.4-36-39.3-52.2-59.3c5.5-25.1,12.2-50.7,20.1-76.4c6.8-22.1,14.3-43.7,22.3-64.5c28.2-8,57.6-15,87.9-20.8
		c26.4-5,52.4-8.9,78-11.8c14.6,13.4,29,27.6,43.1,42.3c18.6,19.4,36,39.3,52.2,59.3C533.7,379.1,527.1,404.7,519.2,430.4z
		 M551.8,369.8c22.2,28.7,41.6,57.6,57.8,85.8c-28.7,12.8-60.4,24.4-94.1,34.6c6.7-17.9,13-36.4,18.7-55.2
		C540.9,413.1,546.8,391.4,551.8,369.8z M489.2,514c-14.8,35.8-31.3,69.1-48.9,98.9c-31-19.9-62.7-44-93.8-71.4
		c23.1-2.8,46.6-6.5,70.3-11C441.5,525.7,465.8,520.2,489.2,514z M309.9,529.4c-31.5,2.7-61.9,3.6-90.5,2.8
		c2.2-27.7,6.3-56.7,12.1-86.5c14.1,17,29.1,33.8,44.9,50.4C287.5,507.5,298.7,518.6,309.9,529.4z M223.1,410
		c-21.9-28.3-41.1-56.8-57.1-84.6c28.4-12.9,59.7-24.6,93.1-34.9c-6.6,17.7-12.7,35.8-18.4,54.3C234,366.7,228.1,388.5,223.1,410z
		 M285.4,266.6c14.9-36.1,31.5-69.7,49.2-99.6c31,19.9,62.6,43.9,93.7,71.4c-21.5,2.7-43.3,6.1-65.4,10.3
		C336.4,253.7,310.5,259.8,285.4,266.6z M498.4,283.8c-11.1-11.6-22.3-22.8-33.7-33.6c26.1-2.4,51.4-3.6,75.7-3.6
		c5.1,0,10.1,0.1,15.1,0.2c-2.2,27.9-6.3,57.3-12.2,87.4C529.2,317.2,514.2,300.3,498.4,283.8z M136.2,265.6
		c-6.7-16.1-11.8-31.3-15.4-45.5c11.6-4,20-15.1,20-28.1c0-15-11.1-27.4-25.6-29.5c1.9-16.6,7.6-29.9,17.3-39.2
		c11-10.6,27.2-15.8,47.3-15.8c25.8,0,58.1,8.6,94.7,25.8c15.3,7.2,31,15.7,46.8,25.3c-20.1,33.8-38.7,72.1-55,113.3
		c-38.9,11.4-75.3,24.8-107.9,39.6C149.9,296,142.4,280.6,136.2,265.6z M147.5,525.9c-70.1-11.1-113.8-35.6-119.8-67.2
		c-6-31.6,25.6-70.4,86.7-106.6c11.7-6.9,24.2-13.6,37.4-20c18.4,32.2,41,65.1,67,97.8c-7.4,35.1-12.4,69.3-15,101.7
		C184,530.5,165.1,528.7,147.5,525.9z M401.5,669.9c-44.4,56.4-89,82.8-122.4,72.6c-19.7-6.1-35.4-24.9-46.1-54
		c11.4-4.2,19.6-15.1,19.6-28c0-16.5-13.3-29.8-29.8-29.8c-0.9,0-1.8,0.1-2.6,0.1c-0.6-5.5-1.2-11.2-1.6-17.1
		c-1.5-20.6-1.5-42.7-0.2-65.8c6.9,0.2,13.9,0.3,21,0.3c27.5,0,56.4-1.5,86.1-4.5c35.2,32,71.3,59.9,106.6,82.5
		C422.2,642,411.9,656.6,401.5,669.9z M638.7,514.2c27.6,66.2,28.9,118.1,3.7,142.2c-25.2,24.1-77,20.5-141.9-10
		c-15.3-7.2-31-15.7-46.8-25.3c20-33.6,38.4-71.6,54.7-112.5c39.2-11.3,75.9-24.5,108.9-39.3C625.4,484.6,632.6,499.6,638.7,514.2z
		 M708.6,397.2c-5.3-8.3-14.5-13.8-25.1-13.8c-16.4,0-29.8,13.3-29.8,29.8c0,6.5,2.1,12.5,5.6,17.4c-11.1,6.4-22.9,12.5-35.4,18.4
		c-18.6-32.6-41.4-66-67.7-99.1c7.4-35.4,12.5-69.9,15-102.6c21.5,1,42,2.9,61.1,5.9c70.1,11.1,113.8,35.6,119.8,67.2
		C756.6,343.4,741,370.3,708.6,397.2z"/>
</g>
<sodipodi:namedview  bordercolor="#666666" borderopacity="1" fit-margin-bottom="43.37159" fit-margin-left="5" fit-margin-right="5" fit-margin-top="43.37159" gridtolerance="10" guidetolerance="10" id="namedview51" inkscape:current-layer="svg2" inkscape:cx="637.59035" inkscape:cy="804.37887" inkscape:document-rotation="0" inkscape:guide-bbox="true" inkscape:pageopacity="0" inkscape:pageshadow="2" inkscape:showpageshadow="false" inkscape:window-height="1027" inkscape:window-maximized="1" inkscape:window-width="1920" inkscape:window-x="-8" inkscape:window-y="-8" inkscape:zoom="0.1767767" objecttolerance="10" pagecolor="#ffffff" showborder="false" showgrid="false" showguides="true">
	</sodipodi:namedview>
</svg>
