<svg id="Layer_1" data-name="Layer 1" xmlns="http://www.w3.org/2000/svg" viewBox="0 0 80 80"><defs><style>.cls-1,.cls-2{fill:#fff;}.cls-2,.cls-3{fill-rule:evenodd;}.cls-4{fill:#ff0032;}.cls-5{fill:#00d30d;}</style></defs><path d="M16.66,78.7a4.28,4.28,0,0,1-4.28-4.28V5.64a4.28,4.28,0,0,1,4.28-4.28H54a4.29,4.29,0,0,1,4.29,4.28V74.42A4.29,4.29,0,0,1,54,78.7Z"/><path class="cls-1" d="M54,1.36a4.29,4.29,0,0,1,4.29,4.28V74.42A4.29,4.29,0,0,1,54,78.7H16.66a4.28,4.28,0,0,1-4.28-4.28V5.64a4.28,4.28,0,0,1,4.28-4.28H54m0-.89H16.66a5.18,5.18,0,0,0-5.17,5.17V74.42a5.18,5.18,0,0,0,5.17,5.18H54a5.18,5.18,0,0,0,5.18-5.18V5.64A5.18,5.18,0,0,0,54,.47Z"/><path class="cls-1" d="M54,0H16.66a5.62,5.62,0,0,0-5.61,5.61V74.39A5.61,5.61,0,0,0,16.66,80H54a5.61,5.61,0,0,0,5.61-5.61V5.64A5.63,5.63,0,0,0,54,0ZM16.66,2.72H54v0a2.93,2.93,0,0,1,2.93,2.92V74.39A2.93,2.93,0,0,1,54,77.31H16.66a2.92,2.92,0,0,1-2.92-2.92V5.64A2.92,2.92,0,0,1,16.66,2.72Z"/><rect class="cls-1" x="16.89" y="7.91" width="36.84" height="66.51" rx="1.8"/><circle id="Oval" cx="24" cy="36.87" r="4.69"/><circle id="Oval-2" data-name="Oval" cx="24" cy="47.38" r="4.69"/><circle id="Oval-3" data-name="Oval" cx="24" cy="57.87" r="4.69"/><circle id="Oval-4" data-name="Oval" cx="24" cy="68.35" r="4.69"/><circle id="Oval-5" data-name="Oval" cx="35.14" cy="36.87" r="4.69"/><circle id="Oval-6" data-name="Oval" cx="35.14" cy="47.38" r="4.69"/><circle id="Oval-7" data-name="Oval" cx="35.14" cy="57.87" r="4.69"/><circle id="Oval-8" data-name="Oval" cx="35.14" cy="68.35" r="4.69"/><circle id="Oval-9" data-name="Oval" cx="46.31" cy="36.87" r="4.69"/><circle id="Oval-10" data-name="Oval" cx="46.31" cy="47.38" r="4.69"/><circle id="Oval-11" data-name="Oval" cx="46.31" cy="57.87" r="4.69"/><circle id="Oval-12" data-name="Oval" cx="46.31" cy="68.35" r="4.69"/><path class="cls-2" d="M54,31.14H16.66a3.37,3.37,0,0,1-3.37-3.37V6.18a3.37,3.37,0,0,1,3.37-3.37H54a3.37,3.37,0,0,1,3.37,3.37V27.74A3.36,3.36,0,0,1,54,31.14Z"/><path class="cls-3" d="M54,30.57H16.66a3.37,3.37,0,0,1-3.37-3.37V5.64a3.37,3.37,0,0,1,3.37-3.37H54a3.37,3.37,0,0,1,3.37,3.37V27.2A3.35,3.35,0,0,1,54,30.57Z"/><path class="cls-2" d="M40.62,24.28H20.56a1,1,0,0,1-1-1V12.69a1,1,0,0,1,1-1h20a1,1,0,0,1,1,1V23.27A1,1,0,0,1,40.62,24.28Z"/><circle class="cls-4" cx="62.31" cy="61.23" r="13.87"/><path class="cls-1" d="M62.31,47.35A13.88,13.88,0,1,1,48.44,61.23,13.87,13.87,0,0,1,62.31,47.35m0-3.12a17,17,0,1,0,17,17,17,17,0,0,0-17-17Z"/><circle class="cls-5" cx="62.31" cy="61.23" r="13.87"/><path class="cls-1" d="M62.31,47.35A13.88,13.88,0,1,1,48.44,61.23,13.87,13.87,0,0,1,62.31,47.35m0-3.12a17,17,0,1,0,17,17,17,17,0,0,0-17-17Z"/></svg>