<?xml version="1.0" encoding="utf-8"?>
<!-- Generator: Adobe Illustrator 18.1.1, SVG Export Plug-In . SVG Version: 6.00 Build 0)  -->
<svg version="1.1" id="Layer_1" xmlns="http://www.w3.org/2000/svg" xmlns:xlink="http://www.w3.org/1999/xlink" x="0px" y="0px"
	 width="144px" height="127px" viewBox="0 0 144 127" enable-background="new 0 0 144 127" xml:space="preserve">
<g>
	<rect fill="none" width="144" height="127"/>
	<g>
		<g>
			<path fill="#868482" d="M144,90.3H0V0h144V90.3z M10.9,79.4h122.2V10.9H10.9V79.4z"/>
		</g>
		<g>
			<rect x="19.5" y="20.2" fill="#868482" width="11.7" height="11.7"/>
		</g>
		<g>
			<rect x="38.1" y="20.2" fill="#868482" width="11.7" height="11.7"/>
		</g>
		<g>
			<rect x="56.8" y="20.2" fill="#868482" width="11.7" height="11.7"/>
		</g>
		<g>
			<rect x="75.5" y="20.2" fill="#868482" width="11.7" height="11.7"/>
		</g>
		<g>
			<rect x="94.2" y="20.2" fill="#868482" width="11.7" height="11.7"/>
		</g>
		<g>
			<rect x="112.9" y="20.2" fill="#868482" width="11.7" height="11.7"/>
		</g>
		<g>
			<rect x="19.5" y="39.7" fill="#868482" width="11.7" height="11.7"/>
		</g>
		<g>
			<rect x="38.1" y="39.7" fill="#868482" width="11.7" height="11.7"/>
		</g>
		<g>
			<rect x="56.8" y="39.7" fill="#868482" width="11.7" height="11.7"/>
		</g>
		<g>
			<rect x="75.5" y="39.7" fill="#868482" width="11.7" height="11.7"/>
		</g>
		<g>
			<rect x="94.2" y="39.7" fill="#868482" width="11.7" height="11.7"/>
		</g>
		<g>
			<rect x="112.9" y="39.7" fill="#868482" width="11.7" height="11.7"/>
		</g>
		<g>
			<rect x="38.1" y="59.2" fill="#868482" width="67.7" height="11.7"/>
		</g>
		<g>
			<polygon fill="#868482" points="72,115.2 62.2,108.2 45.9,108.2 72,126.9 98.1,108.2 81.8,108.2 			"/>
		</g>
	</g>
</g>
</svg>
