<?xml version="1.0" encoding="utf-8"?>
<!-- Generator: Adobe Illustrator 18.1.1, SVG Export Plug-In . SVG Version: 6.00 Build 0)  -->
<svg version="1.1" id="Layer_1" xmlns="http://www.w3.org/2000/svg" xmlns:xlink="http://www.w3.org/1999/xlink" x="0px" y="0px"
	 width="124px" height="96px" viewBox="0 0 124 96" enable-background="new 0 0 124 96" xml:space="preserve">
<g>
	<g>
		<g>
			<path fill="#868482" d="M55.4,70.8L46.9,49H19.4L11,70.8H2.9L30,2h6.7l27,68.8H55.4z M44.4,41.8l-8-21.2c-1-2.7-2.1-6-3.2-9.9
				c-0.7,3-1.7,6.3-3,9.9l-8.1,21.2H44.4z"/>
			<path fill="#868482" d="M66.6,72.8H54.1L45.5,51H20.8l-8.4,21.8H0L28.7,0h9.4L66.6,72.8z M56.8,68.8h4L35.4,4h-1.9l1.7,6.2
				c1.1,3.8,2.1,7.1,3.1,9.7l9,24h-28l9.1-23.9c1.2-3.5,2.2-6.7,2.9-9.6L32.8,4h-1.4L5.9,68.8h3.8L18.1,47h30.2L56.8,68.8z
				 M25.1,39.8h16.4l-7-18.5c-0.4-1.1-0.8-2.2-1.2-3.4c-0.4,1.1-0.7,2.2-1.2,3.4L25.1,39.8z"/>
		</g>
		<g>
			<path fill="#868482" d="M116.2,70.8l-1.5-7.3h-0.4c-2.6,3.2-5.1,5.4-7.7,6.5s-5.7,1.7-9.5,1.7c-5.1,0-9.1-1.3-12-3.9
				s-4.3-6.4-4.3-11.2c0-10.4,8.3-15.8,24.9-16.3l8.7-0.3v-3.2c0-4-0.9-7-2.6-8.9s-4.5-2.9-8.3-2.9c-4.3,0-9.1,1.3-14.5,3.9l-2.4-6
				c2.5-1.4,5.3-2.5,8.3-3.2s6-1.2,9.1-1.2c6.1,0,10.7,1.4,13.6,4.1s4.4,7.1,4.4,13.1v35.1H116.2z M98.7,65.3c4.8,0,8.6-1.3,11.4-4
				s4.1-6.4,4.1-11.2v-4.6l-7.8,0.3c-6.2,0.2-10.6,1.2-13.4,2.9S89,53.1,89,56.7c0,2.8,0.9,5,2.6,6.4S95.6,65.3,98.7,65.3z"/>
			<path fill="#868482" d="M97.1,73.8c-5.6,0-10.1-1.5-13.3-4.5c-3.3-3-5-7.3-5-12.7c0-11.6,9-17.8,26.8-18.3l6.8-0.2v-1.3
				c0-3.5-0.7-6.1-2.1-7.6c-1.3-1.5-3.6-2.2-6.8-2.2c-4,0-8.6,1.3-13.7,3.7l-1.9,0.9L84,22.1l1.6-0.8c2.7-1.4,5.6-2.6,8.8-3.4
				c3.2-0.8,6.4-1.2,9.6-1.2c6.6,0,11.7,1.6,15,4.6c3.4,3.1,5.1,8,5.1,14.5v37.1h-9.4l-1.1-5.3c-2,2-4,3.5-6,4.4
				C104.7,73.1,101.2,73.8,97.1,73.8z M103.5,23c4.4,0,7.7,1.2,9.8,3.5c2.1,2.3,3.1,5.7,3.1,10.3V42l-10.7,0.3
				c-23,0.7-23,10.9-23,14.3c0,4.3,1.2,7.5,3.7,9.7c2.5,2.3,6.1,3.4,10.6,3.4c3.5,0,6.4-0.5,8.7-1.5c2.2-1,4.6-3,6.9-6l0.6-0.8h2.6
				l0.7,1.6l1.2,5.7h2.1V35.8c0-5.4-1.3-9.3-3.8-11.6c-2.6-2.4-6.7-3.5-12.3-3.5c-2.8,0-5.7,0.4-8.6,1.1c-2.2,0.6-4.3,1.3-6.3,2.3
				l0.9,2.3C94.9,24.1,99.4,23,103.5,23z M98.7,67.3c-3.5,0-6.4-0.9-8.5-2.7C88,62.8,87,60.1,87,56.7c0-4.3,1.7-7.6,5-9.6
				c3.1-1.9,7.8-3,14.4-3.2l9.9-0.4v6.7c0,5.3-1.6,9.6-4.8,12.6C108.3,65.8,104,67.3,98.7,67.3z M112.2,47.6l-5.7,0.2
				c-5.8,0.2-10,1.1-12.4,2.6C92,51.8,91,53.8,91,56.7c0,2.2,0.6,3.8,1.9,4.9c1.3,1.1,3.3,1.7,5.8,1.7c4.3,0,7.6-1.1,10-3.4
				c2.4-2.3,3.5-5.5,3.5-9.7V47.6z"/>
		</g>
	</g>
	<rect y="88" fill="#868482" width="124" height="8"/>
</g>
</svg>
