<?xml version="1.0" encoding="UTF-8" standalone="no"?>
<!-- Created with Inkscape (http://www.inkscape.org/) -->

<svg
   xmlns:dc="http://purl.org/dc/elements/1.1/"
   xmlns:cc="http://creativecommons.org/ns#"
   xmlns:rdf="http://www.w3.org/1999/02/22-rdf-syntax-ns#"
   xmlns:svg="http://www.w3.org/2000/svg"
   xmlns="http://www.w3.org/2000/svg"
   xmlns:sodipodi="http://sodipodi.sourceforge.net/DTD/sodipodi-0.dtd"
   xmlns:inkscape="http://www.inkscape.org/namespaces/inkscape"
   width="744.09448819"
   height="1052.3622047"
   id="svg2"
   version="1.1"
   inkscape:version="0.48.3.1 r9886"
   sodipodi:docname="noface.svg">
  <defs
     id="defs4" />
  <sodipodi:namedview
     id="base"
     pagecolor="#ffffff"
     bordercolor="#666666"
     borderopacity="1.0"
     inkscape:pageopacity="0.0"
     inkscape:pageshadow="2"
     inkscape:zoom="0.35"
     inkscape:cx="532.5838"
     inkscape:cy="371.07669"
     inkscape:document-units="px"
     inkscape:current-layer="layer1"
     showgrid="false"
     inkscape:window-width="1280"
     inkscape:window-height="776"
     inkscape:window-x="0"
     inkscape:window-y="24"
     inkscape:window-maximized="1" />
  <metadata
     id="metadata7">
    <rdf:RDF>
      <cc:Work
         rdf:about="">
        <dc:format>image/svg+xml</dc:format>
        <dc:type
           rdf:resource="http://purl.org/dc/dcmitype/StillImage" />
        <dc:title></dc:title>
      </cc:Work>
    </rdf:RDF>
  </metadata>
  <g
     inkscape:label="Layer 1"
     inkscape:groupmode="layer"
     id="layer1">
    <path
       style="opacity:0.83716047999999998;fill:#d7d7d7;fill-opacity:1;stroke:#000000;stroke-opacity:1;stroke-width:0;stroke-miterlimit:4;stroke-dasharray:none"
       d="m 472.75139,908.92052 c 46.46702,-26.26397 56.56855,-68.69038 66.67007,-98.99495 10.10153,-30.30458 52.52793,-228.29448 42.42641,-347.49248 -10.10153,-119.198 -58.58885,-135.36044 -107.07617,-159.6041 -48.48732,-24.24366 -133.34014,-18.18275 -175.76654,8.08122 -42.42642,26.26397 -92.93405,60.60915 -101.01527,143.44166 -8.08122,82.83251 9.13377,276.70605 46.46702,371.73614 22.22336,56.56854 47.29278,70.95769 78.79191,84.85281 31.49913,13.89512 116.60088,16.01267 149.50257,-2.0203 z"
       id="path3050"
       inkscape:connector-curvature="0"
       sodipodi:nodetypes="csssssszc"
       inkscape:export-filename="/tmp/noface.png"
       inkscape:export-xdpi="9.078413"
       inkscape:export-ydpi="9.078413" />
    <path
       inkscape:connector-curvature="0"
       style="opacity:0.83716048;fill:#ababab;fill-opacity:0.74885846;stroke:none"
       d="m 492.99757,311.80631 c 11.23452,31.03781 23.13916,71.59216 24.1875,106.1875 2.02031,66.67006 5.54127,210.00456 -28.28125,357.59375 -10.92538,47.67439 -26.21568,100.16446 -38.96875,141.28125 8.92901,-2.00577 16.75879,-4.61954 22.8125,-7.9375 46.46702,-26.26397 56.58598,-68.69543 66.6875,-99 10.10153,-30.30458 52.50777,-228.302 42.40625,-347.5 -8.83005,-104.1945 -46.99116,-129.67233 -88.84375,-150.625 z"
       id="path3820"
       inkscape:export-filename="/tmp/noface.png"
       inkscape:export-xdpi="9.0802708"
       inkscape:export-ydpi="9.0802708" />
    <path
       style="fill:#a81ac6;fill-opacity:0.67579908;stroke:none"
       d="m 472.36815,608.40014 c -4.54569,5.05077 -10.60661,24.74874 -10.60661,35.86042 0,11.11167 2.52538,74.24621 7.07107,78.79189 4.57367,4.57366 12.12183,0.50508 26.76904,-30.80965 14.64721,-31.31473 21.91152,-55.56287 16.66752,-78.28682 -1.51523,-6.56599 -4.50174,-10.38257 -16.16244,-11.11168 -14.45847,-0.90404 -19.19289,0.50507 -23.73858,5.55584 z"
       id="path3845"
       inkscape:connector-curvature="0"
       sodipodi:nodetypes="zzszssz"
       inkscape:export-filename="/tmp/noface.png"
       inkscape:export-xdpi="9.0802708"
       inkscape:export-ydpi="9.0802708" />
    <path
       style="fill:#a81ac6;fill-opacity:0.67579908;stroke:none"
       d="m 286.37825,604.86461 c 7.07107,9.09137 8.08122,112.632 3.03045,117.68277 -5.05076,5.05076 -12.6269,1.51523 -23.23351,-16.66752 -10.6066,-18.18275 -20.20305,-64.64976 -18.18274,-81.31728 2.0203,-16.66752 1.51523,-25.25381 10.6066,-25.25381 9.09137,0 20.70813,-3.53553 27.7792,5.55584 z"
       id="path3847"
       inkscape:connector-curvature="0"
       sodipodi:nodetypes="zssssz"
       inkscape:export-filename="/tmp/noface.png"
       inkscape:export-xdpi="9.0802708"
       inkscape:export-ydpi="9.0802708" />
    <path
       style="fill:#a81ac6;fill-opacity:0.67579908;stroke:none"
       d="m 462.83854,381.17677 c -8.66075,13.24483 -7.77299,51.73804 -2.02325,66.24003 5.74974,14.502 9.6608,10.52382 22.5255,9.96166 12.86469,-0.56214 19.26168,-1.19861 20.40396,-11.36163 1.14228,-10.16302 -2.04364,-34.96948 -13.76246,-51.74883 -11.71882,-16.77936 -18.48299,-26.33608 -27.14375,-13.09123 z"
       id="path3853"
       inkscape:connector-curvature="0"
       sodipodi:nodetypes="zssszz"
       inkscape:export-filename="/tmp/noface.png"
       inkscape:export-xdpi="9.0802708"
       inkscape:export-ydpi="9.0802708" />
    <path
       style="fill:#a81ac6;fill-opacity:0.67579908;stroke:none"
       d="m 324.37703,377.77117 c 9.72067,11.6648 0.91396,64.28078 -12.14285,74.14286 -13.0568,9.86208 -22.85715,13.57143 -32.14286,5 -9.28571,-8.57143 -7.14286,-21.42857 -1.42857,-33.57143 5.71428,-12.14286 35.99361,-57.23623 45.71428,-45.57143 z"
       id="path3855"
       inkscape:connector-curvature="0"
       sodipodi:nodetypes="zzssz"
       inkscape:export-filename="/tmp/noface.png"
       inkscape:export-xdpi="9.0802708"
       inkscape:export-ydpi="9.0802708" />
    <path
       style="opacity:0.83716048;fill:#0a0a0a;fill-opacity:1;stroke:none"
       d="m 547.2342,519.77115 c 0,11.44018 -31.18128,20.71428 -56.42858,20.71428 -25.2473,0 -35.87633,-9.30771 -35,-20.71428 0.71429,-9.29732 6.89556,-18.57143 30.71429,-18.57143 25.2473,0 60.71429,7.13125 60.71429,18.57143 z"
       id="path3875"
       inkscape:connector-curvature="0"
       sodipodi:nodetypes="sssss"
       inkscape:export-filename="/tmp/noface.png"
       inkscape:export-xdpi="9.0802708"
       inkscape:export-ydpi="9.0802708" />
    <path
       style="opacity:0.83716048;fill:#0a0a0a;fill-opacity:1;stroke:none"
       d="m 327.23418,518.3426 c 0,11.44018 -13.32413,19.99999 -38.57143,19.99999 -25.2473,0 -52.85715,-8.55981 -52.85715,-19.99999 0,-11.44018 15.46699,-15 49.28572,-19.28572 25.04698,-3.1741 42.14286,7.84554 42.14286,19.28572 z"
       id="path3875-7"
       inkscape:connector-curvature="0"
       sodipodi:nodetypes="sssss"
       inkscape:export-filename="/tmp/noface.png"
       inkscape:export-xdpi="9.0802708"
       inkscape:export-ydpi="9.0802708" />
    <path
       style="opacity:0.83716048;fill:#686868;fill-opacity:1;stroke:none"
       d="m 535.18812,558.75169 c 0,7.07211 -34.2757,11.37662 -49.88312,11.37662 -15.60742,0 -30.74952,-5.75386 -30.20779,-12.80519 0.44156,-5.74743 17.11985,0.66234 31.84416,0.66234 15.60742,0 48.24675,-6.30588 48.24675,0.76623 z"
       id="path3875-8"
       inkscape:connector-curvature="0"
       sodipodi:nodetypes="sssss"
       inkscape:export-filename="/tmp/noface.png"
       inkscape:export-xdpi="9.0802708"
       inkscape:export-ydpi="9.0802708" />
    <path
       style="opacity:0.83716048;fill:#686868;fill-opacity:1;stroke:none"
       d="m 314.87059,558.28812 c 4.59886,6.2357 -11.88122,14.97403 -28.98054,14.97403 -17.09932,0 -47.2273,-7.2259 -47.2273,-14.97403 0,-7.74814 25.47538,4.1266 48.3799,1.224 16.96365,-2.14973 22.11365,-8.97214 27.82794,-1.224 z"
       id="path3875-7-8"
       inkscape:connector-curvature="0"
       sodipodi:nodetypes="sssss"
       inkscape:export-filename="/tmp/noface.png"
       inkscape:export-xdpi="9.0802708"
       inkscape:export-ydpi="9.0802708" />
    <path
       style="opacity:0.83716048;fill:#0a0a0a;fill-opacity:1;stroke:none"
       d="m 473.66274,781.55688 c 6.65191,13.65366 -38.85529,27.5 -86.78571,27.5 -47.93043,0 -95.7096,-15.21039 -86.78572,-27.5 4.28571,-5.90212 38.141,-4.64286 86.07143,-4.64286 47.93042,0 83.92857,-2.68783 87.5,4.64286 z"
       id="path3963"
       inkscape:connector-curvature="0"
       sodipodi:nodetypes="sssss"
       inkscape:export-filename="/tmp/noface.png"
       inkscape:export-xdpi="9.0802708"
       inkscape:export-ydpi="9.0802708" />
    <path
       style="opacity:0.83716048;fill:#979797;fill-opacity:1;stroke:none"
       d="m 411.80809,840.61364 c 2.26113,5.85484 -13.20775,11.79229 -29.50033,11.79229 -16.29259,0 -32.53376,-6.52237 -29.50034,-11.79229 1.45681,-2.53088 12.96495,-1.99091 29.25754,-1.99091 16.29258,0 28.52912,-1.15257 29.74313,1.99091 z"
       id="path3963-0"
       inkscape:connector-curvature="0"
       sodipodi:nodetypes="sssss"
       inkscape:export-filename="/tmp/noface.png"
       inkscape:export-xdpi="9.0802708"
       inkscape:export-ydpi="9.0802708" />
  </g>
</svg>
