<svg xmlns="http://www.w3.org/2000/svg" viewBox="0 0 100 100"><path d="M87.8 62.51V36.7c3.14-1.04 5.42-4 5.42-7.49 0-4.35-3.54-7.89-7.89-7.89-2.09 0-3.99.82-5.4 2.16l-21.99-12.7c.11-.52.16-1.05.16-1.6 0-4.35-3.54-7.89-7.89-7.89s-7.89 3.54-7.89 7.89c0 .55.06 1.08.16 1.6L20.24 23.62c-1.43-1.42-3.4-2.3-5.57-2.3-4.35 0-7.89 3.54-7.89 7.89 0 3.64 2.48 6.7 5.84 7.61v25.56c-3.36.92-5.84 3.98-5.84 7.62 0 4.35 3.54 7.89 7.89 7.89 2.09 0 3.99-.82 5.4-2.16l22.52 13c-.18.66-.29 1.36-.29 2.08 0 4.35 3.54 7.89 7.89 7.89s7.89-3.54 7.89-7.89c0-.72-.11-1.41-.29-2.08l22.27-12.86c1.4 1.24 3.23 2.01 5.24 2.01 4.35 0 7.89-3.54 7.89-7.89.03-3.48-2.25-6.44-5.39-7.48zm-3.96 10.97c-1.29-.55-2.21-1.8-2.29-3.27 0-.05-.01-.11-.01-.16v-.04c0-.07.01-.13.01-.2.07-1.24.73-2.32 1.71-2.96.07-.04.14-.09.21-.13.05-.03.09-.05.14-.07.51-.26 1.09-.41 1.71-.41.85 0 1.64.29 2.27.76.07.05.14.11.21.17.79.69 1.3 1.71 1.3 2.84 0 2.08-1.69 3.78-3.78 3.78-.43 0-.84-.08-1.23-.21-.08-.04-.16-.07-.25-.1zM50.21 94.6c-2.04 0-3.7-1.62-3.77-3.64 0-.05-.01-.09-.01-.14 0-.03 0-.07.01-.1.03-1.28.71-2.4 1.71-3.06.2-.13.42-.24.64-.34.08-.03.17-.07.26-.09.37-.12.76-.18 1.16-.18.41 0 .8.07 1.16.18.09.03.17.06.26.09.23.09.44.2.64.34 1.01.66 1.68 1.78 1.71 3.06 0 .03.01.07.01.1 0 .05-.01.09-.01.14-.08 2.02-1.74 3.64-3.77 3.64zM16.16 73.48c-.46.19-.96.3-1.48.3-2.08 0-3.78-1.69-3.78-3.78 0-1.32.69-2.49 1.72-3.16.07-.04.14-.09.21-.13.55-.31 1.18-.49 1.85-.49.07 0 .14.01.22.01.77.04 1.47.32 2.05.75.07.05.14.11.21.17.69.6 1.15 1.44 1.27 2.39.01.08.02.17.02.25 0 .07.01.13.01.2 0 .15-.01.31-.03.46-.15 1.27-.94 2.35-2.04 2.91-.08.04-.16.08-.23.12zM10.9 29.21c0-2.08 1.69-3.78 3.78-3.78.62 0 1.19.15 1.71.41l.21.12c.58.34 1.06.84 1.39 1.43.3.54.47 1.16.47 1.82 0 .15-.01.31-.03.46-.01.09-.02.18-.04.27-.11.59-.37 1.12-.72 1.58-.15.2-.32.38-.51.54-.07.06-.14.11-.21.17-.63.48-1.42.76-2.27.76-.67 0-1.3-.18-1.85-.49-.07-.04-.14-.08-.21-.13-1.04-.67-1.72-1.84-1.72-3.16zM50.21 5.4c1.84 0 3.37 1.32 3.71 3.06.02.09.03.18.04.26.02.15.03.3.03.46 0 1.38-.75 2.59-1.85 3.25l-.21.12c-.46.23-.97.37-1.51.4-.07 0-.13.01-.2.01-.62 0-1.19-.15-1.71-.41l-.21-.12c-.61-.37-1.12-.9-1.44-1.54-.26-.51-.41-1.09-.41-1.71 0-.15.01-.31.03-.46.01-.09.02-.18.04-.26.32-1.74 1.85-3.06 3.69-3.06zm33.63 20.34c.46-.19.96-.3 1.48-.3 2.08 0 3.78 1.69 3.78 3.78 0 1.13-.51 2.15-1.3 2.84-.07.06-.14.11-.21.17-.63.48-1.42.76-2.27.76-.53 0-1.03-.11-1.48-.3-.13-.05-.25-.12-.37-.18-.07-.04-.14-.08-.21-.13-.91-.6-1.55-1.57-1.69-2.71-.01-.08-.02-.17-.02-.25 0-.07-.01-.13-.01-.2 0-.66.17-1.28.47-1.82.37-.66.93-1.2 1.6-1.55.08-.04.16-.08.23-.11zm-4.08 38.67L57.83 51.75c.17-.65.27-1.32.27-2.02s-.1-1.38-.27-2.02l22.09-12.75c.93.88 2.07 1.53 3.35 1.87v25.56c-1.35.36-2.55 1.07-3.51 2.02zm-57.54-32.9h8.76c.39 1.28 1.1 2.42 2.03 3.33L17.15 62.32V36.7c2.42-.8 4.33-2.74 5.07-5.19zm16.32-6.07c2.08 0 3.78 1.69 3.78 3.78 0 .87-.3 1.66-.79 2.3-.63.82-1.59 1.37-2.68 1.46-.1.01-.21.02-.31.02-2.08 0-3.78-1.69-3.78-3.78 0-.66.17-1.28.47-1.82.63-1.14 1.83-1.92 3.21-1.95.04-.01.07-.01.1-.01zm-1.93 11.42c.62.16 1.26.25 1.93.25 3.55 0 6.56-2.36 7.55-5.59h31.55L55.78 44.14c-1.43-1.42-3.4-2.3-5.57-2.3-4.35 0-7.89 3.54-7.89 7.89 0 .7.1 1.38.27 2.02L20.72 64.38l15.89-27.52zm13.6 16.64c-.62 0-1.19-.15-1.71-.41-.12-.06-.24-.13-.35-.2-1.03-.67-1.72-1.84-1.72-3.16 0-.07.01-.14.01-.2.11-1.99 1.75-3.57 3.77-3.57.62 0 1.19.15 1.71.41 1.17.6 1.98 1.78 2.06 3.16 0 .07.01.13.01.2s-.01.14-.01.2c-.11 1.99-1.76 3.57-3.77 3.57zm-4-26.11c-.33-1.41-1.04-2.67-2.02-3.68l3.99-6.92c.65.17 1.32.27 2.02.27 2.17 0 4.14-.88 5.57-2.3l21.87 12.62H46.21zm-5.56-5.78c-.67-.19-1.38-.3-2.11-.3-3.73 0-6.85 2.6-7.67 6.08h-8.09l21.8-12.59-3.93 6.81zm-18.3 46.58l22.29-12.87c.96.95 2.16 1.66 3.51 2.02v25.87c-1.18.32-2.25.9-3.14 1.69L22.35 71.82c.14-.58.22-1.19.22-1.81 0-.63-.08-1.24-.22-1.82zm29.92 15.02V57.34c1.34-.36 2.55-1.07 3.51-2.02L77.7 67.98c-.17.65-.27 1.32-.27 2.02s.1 1.38.27 2.02L55.41 84.9c-.89-.79-1.96-1.37-3.14-1.69z" fill="#aaa"/></svg>